<svg xmlns="http://www.w3.org/2000/svg" viewBox="817 648 11170 13140">
  <g id="layer6" transform="translate(-2.225e-5)" >
    <path
      style="fill:#ffffff;stroke-width:45.6"
      d="m 4413,7180 -715,83 -853,96 -510,170 -298,244 -131,356 16,122 157,-128 218,22 49,37 603,6 47,43 9,92 -75,91 -421,227 452,3 302,69 210,113 216,169 222,219 -25,-125 51,3 92,38 7,-84 -82,-198 167,25 -25,-122 -59,-107 172,26 25,-38 -95,-161 189,-41 -122,-175 153,-41 -31,-72 -122,-166 31,-37 134,-51 -9,-37 -112,-60 18,-142 144,-28 v -38 l -132,-91 -41,-88 56,-92 114,-98 z"
    />
    <path
      style="fill:#ffffff;stroke-width:45.6"
      d="m 7506,10060 300,119 1139,214 1214,112 269,24 123,97 22,117 -77,123 75,82 53,73 -24,117 -108,62 79,71 31,104 -31,103 -185,92 58,67 22,62 -24,91 -94,61 -157,-16 1,114 -57,72 -219,20 -39,84 -72,42 -219,21 -45,76 -92,57 -116,15 -143,-28 -17,63 -54,49 -81,25 -115,2 -67,-18 -78,85 -102,35 -131,-3 -91,-55 -74,106 -106,54 -181,-18 -80,-40 -65,31 -152,-22 -186,-197 -225,-436 -185,-235 -48,-170 96,54 -24,-510 85,-58 -29,-144 94,-13 2,-90 -50,-119 49,-29 55,-8 -5,-99 152,51 22,-21 -159,-285 174,-8 -14,-84 z"
    />
  </g>
  <path
    id="right wing"
    style="fill:#9b5d2c"
    d="m 1081,2725 -21,1019 -199,1171 96,673 316,652 439,529 563,474 268,185 687,-137 851,-79 309,-21 -79,-130 -292,-302 -203,-120 -186,-278 -86,-16 -63,-268 -157,-210 -150,-255 -105,-64 -72,-221 -82,-113 -7,-216 -122,-196 -31,-224 -92,-177 -1,-192 -74,-130 -20,-328 -38,-231 -103,-173 -27,-402 -113,-197 -29,-67 -42,420 -98,291 21,-470 -74,-346 -143,-249 -12,36 11,669 -123,544 -94,-39 -4,-512 -143,-485 -125,-142 21,662 -31,331 -47,-67 -97,-365 z"
  />
  <path
    style="fill:#9b5d2c"
    d="m 4538,7310 429,-340 535,-696 535,-1116 471,-900 505,-616 845,-599 1741,-1167 645,-488 195,-263 191,-378 h 34 l 25,331 -204,577 985,-700 -51,280 -365,747 815,-484 -106,361 -297,480 -577,548 1040,-599 -98,369 -233,471 -361,357 13,115 -115,297 -284,255 -272,161 68,132 -72,318 -238,221 59,208 -76,284 -246,140 -72,246 -208,157 -170,34 -132,284 -352,81 13,166 -200,170 -191,47 -17,119 -221,136 -136,21 -21,149 -259,204 13,140 -119,183 -229,115 -59,212 -225,102 -25,144 -386,187 30,187 -221,123 -187,30 -1040,17 z"
    id="left wing"
  />
  <path
    style="fill:#9b5d2c"
    d="m 4785,7077 -388,117 -150,213 21,66 123,108 37,27 -42,37 -120,19 -8,126 111,71 -8,36 -150,73 10,39 144,189
      -142,66 102,163 -184,55 94,178 -184,-2 87,207 -181,-10 84,231 -19,45 -134,-53 27,139 555,711 349,382 -80,362 21,368
      64,269 228,459 64,159 v 222 l 321,237 208,263 84,-90 55,-225 78,55 92,-199 -12,-547 81,-109 -59,-560 155,265 144,396
      42,498 6,99 93,-73 179,239 102,227 119,-146 75,93 15,73 97,-141 59,-206 46,52 25,66 53,-64 58,-312 -15,-291 -69,-183
      122,61 -49,-517 92,-59 -32,-146 113,-26 -62,-216 104,-15 1,-100 139,44 33,-4 -174,-319 180,9 -22,-73 L 7377,9942 l
      -191,-161 -266,-588 -220,-370 -971,35 z"
  />
  <path
    id="beak"
    style="fill:#f8b00f;fill-opacity:1"
    d="m 1960,9173 -238,-494 65,-267 246,-275 111,-30 197,65 154,11 448,-3 59,62 -15,109 -128,107 -395,204 -194,147 -140,149 3,-170 66,-260 -177,146 -36,180 v 118 z"
  />
  <path
    id="right claw"
    style="fill:#f8b00f;fill-opacity:1"
    d="m 5178,12184 195,139 134,173 -248,291 -14,102 80,370 -68,107 -55,43 -2,35 -43,47 -62,35 -88,19 -109,-23 184,-71 3,-133 -13,-105 34,-107 -66,-127 -92,55 -103,106 -74,-8 -75,67 -24,178 35,105 -71,-19 -87,-95 -58,-82 -52,20 79,169 -115,-74 -94,-188 -67,39 -21,97 5,119 -122,-168 -24,-166 74,-186 88,-91 88,-1 123,-97 363,-71 68,19 101,-34 91,-88 58,-181 z"
  />
  <path
    id="left claw"
    style="fill:#f8b00f;fill-opacity:1"
    d="m 6394,12158 200,266 -61,327 -33,328 66,292 -62,125 -144,93 46,-76 12,-89 -56,-70 18,-160 -16,-65 -85,-13 -29,104 21,274 16,141 42,22 90,1 73,-17 -35,80 -91,35 -124,-41 -83,-68 -64,-38 -57,-198 -36,-67 -20,109 27,67 28,29 -1,116 81,109 -90,-16 -100,-83 -163,-208 18,-169 80,-157 -208,159 -57,130 -5,157 -75,-91 3,-192 50,-198 123,-84 533,-298 74,-99 64,-151 z"
  />
  <path
    id="bird outline"
    style="display:inline;fill:#000000"
    d="m 6049,13776 c -64,-15 -283,-232 -299,-297 -10,-41 -1,-145 19,-212 11,-38 11,-38 -31,-10 -23,15 -50,26 -82,74
      -29,44 -74,221 -15,287 15,17 23,36 17,42 -19,19 -96,-52 -135,-124 -31,-58 -36,-86 -29,-159 19,-185 36,-256
      74,-296 21,-22 151,-98 290,-169 385,-197 467,-290 488,-554 8,-103 6,-121 -11,-105 -54,51 -63,25 -63,-184 -1,-230
      -24,-386 -85,-568 -41,-122 -177,-428 -191,-428 -4,0 3,58 15,129 12,71 20,195 18,276 -4,125 -8,147 -31,143 -23,-4
      -25,18 -18,209 5,131 1,255 -11,322 -21,119 -92,313 -115,313 -8,0 -22,-20 -32,-44 -17,-43 -18,-43 -39,40 -28,106
      -81,211 -113,223 -25,9 -150,-110 -150,-142 0,-28 -26,-5 -123,107 -145,169 -142,156 -94,368 56,251 55,272 -23,344
      -35,32 -64,66 -64,75 0,24 -68,80 -112,93 -34,10 -33,7 11,-21 78,-49 91,-86 47,-128 -48,-45 -53,-43 -55,14 -2,63
      -8,71 -79,106 l -60,29 48,12 c 28,7 5,8 -56,4 -120,-10 -187,-37 -94,-38 66,-1 159,-35 188,-71 14,-17 17,-51
      9,-115 -7,-58 -4,-112 8,-150 17,-51 16,-68 -6,-110 -14,-28 -34,-51 -43,-51 -9,0 -49,33 -89,74 -58,59 -80,72
      -113,66 -52,-10 -93,27 -106,97 -6,29 -14,73 -20,98 -6,28 1,65 17,97 15,28 23,55 18,60 -33,33 -186,-76 -186,-131
      0,-19 12,-12 42,23 23,27 55,57 71,65 27,14 28,12 13,-33 -9,-27 -12,-72 -7,-100 6,-28 13,-69 16,-91 3,-22 6,-45
      7,-50 5,-25 94,-68 134,-65 35,3 51,-8 77,-52 18,-31 47,-60 65,-66 31,-10 31,-11 3,-32 -27,-20 -27,-22 -2,-32
      45,-17 119,39 142,107 11,34 27,62 35,62 21,0 -4,70 -30,85 -26,15 -30,107 -4,107 10,0 38,15 64,33 36,26 53,29
      78,16 75,-40 74,-91 -8,-413 -24,-92 -16,-132 42,-213 30,-42 30,-48 8,-83 -29,-45 -146,-114 -169,-100 -9,5 -18,22
      -42,63 -30,37 -67,89 -67,89 h 39 c 46,0 119,35 149,71 35,43 3,49 -41,7 -39,-36 -53,-39 -220,-39 -176,0 -366,23
      -468,57 -29,10 -82,46 -117,80 -64,63 -65,64 -65,181 0,90 6,120 24,128 13,5 24,20 24,34 0,37 72,172 110,206 42,38
      43,25 2,-42 -38,-64 -41,-110 -8,-110 15,0 24,-15 24,-40 0,-22 22,-83 48,-136 l 48,-96 h 102 c 56,0 133,-11
      170,-24 77,-27 101,-20 54,16 -43,33 -143,59 -213,56 -32,-1 -66,-2 -76,-1 -35,3 -90,162 -79,229 9,57 7,62 -22,52
      -29,-9 -31,-6 -17,31 9,23 27,62 40,88 33,63 31,67 -20,47 -58,-22 -125,-87 -148,-144 -10,-25 -35,-56 -56,-70
      -33,-22 -38,-22 -46,1 -16,43 -10,117 15,177 29,70 29,70 1,70 -31,0 -128,-121 -168,-209 -47,-104 -42,-199 15,-314
      55,-110 92,-149 146,-154 21,-2 63,-22 94,-46 74,-57 115,-71 288,-101 80,-14 164,-32 186,-41 34,-13 40,-12 32,9
      -24,63 159,-13 200,-83 40,-68 118,-361 99,-368 -64,-21 -74,-47 -76,-192 l -1,-145 -148,-294 c -184,-366 -219,-489
      -218,-782 0,-152 9,-236 37,-348 l 36,-148 -154,-154 c -96,-96 -260,-296 -437,-532 -587,-783 -837,-946 -1459,-953
      -241,-2 -249,-1 -312,39 -75,48 -175,143 -240,227 -25,32 -51,55 -59,50 -22,-14 -17,-183 10,-284 33,-127 31,-135
      -23,-83 -70,67 -94,131 -107,282 -9,102 -14,123 -23,87 -18,-78 -16,-207 3,-266 48,-144 332,-340 591,-407 104,-25
      303,-30 303,-6 0,9 -8,16 -18,16 -38,0 -326,147 -419,214 -152,109 -298,274 -298,334 0,26 20,13 100,-63 128,-123
      143,-133 442,-285 200,-103 256,-138 280,-180 38,-66 26,-124 -29,-138 -22,-6 -157,-6 -300,0 -238,9 -268,7 -354,-24
      -52,-18 -124,-33 -159,-33 -58,0 -74,10 -155,93 -56,57 -114,140 -151,215 -86,173 -79,246 48,507 71,146 97,187
      106,166 8,-19 12,-7 12,35 l 1,64 -39,-47 c -63,-77 -211,-378 -230,-466 -26,-127 10,-248 113,-378 48,-61 52,-73
      47,-171 -12,-285 172,-546 490,-694 l 115,-53 -100,-64 C 2212,7242 1924,7009 1742,6835 1357,6467 1080,6048
      940,5624 860,5379 830,5224 820,4998 c -10,-233 7,-358 101,-768 121,-526 126,-567 126,-1090 0,-343 6,-468 19,-468
      23,0 128,125 196,232 53,84 129,300 130,373 l 2,43 16,-40 c 30,-74 35,-535 8,-750 -29,-229 -20,-273 42,-192 22,30
      63,98 90,153 134,268 193,506 206,829 10,265 14,265 77,1 54,-226 70,-388 73,-732 2,-275 5,-299 28,-280 53,42 83,87
      130,199 58,137 90,272 106,445 l 12,128 28,-152 c 15,-84 29,-183 29,-220 1,-37 5,-68 10,-68 36,0 121,164 161,309
      13,45 27,158 33,250 8,139 16,176 46,216 65,87 90,195 99,424 7,167 15,225 36,256 44,64 64,142 64,242 0,73 9,106
      40,152 49,72 88,198 88,285 0,50 11,76 48,114 50,51 79,163 80,298 0,38 13,75 38,104 51,61 76,112 97,193 15,58
      28,73 89,104 57,29 81,54 115,124 24,48 43,98 44,109 1,12 29,55 63,96 74,89 116,169 155,299 35,114 49,136 90,136
      43,0 96,62 162,188 52,99 64,111 158,156 68,32 130,79 189,142 48,52 133,142 187,200 l 99,105 117,-30 c 237,-60
      301,-96 449,-247 315,-323 530,-687 940,-1587 385,-846 597,-1189 952,-1544 220,-220 369,-327 1612,-1165 1134,-764
      1304,-882 1501,-1042 296,-241 502,-510 575,-698 73,-188 98,-198 137,-169 44,32 50,182 17,382 -28,166 -89,383
      -131,465 -30,57 -15,56 65,-9 36,-29 170,-128 298,-219 357,-256 526,-384 543,-413 11,-19 16,4 16,83 1,176 -136,544
      -300,810 -35,57 -63,106 -61,108 7,8 387,-216 556,-327 94,-62 175,-109 180,-104 33,33 -42,314 -135,507 -76,158
      -214,364 -357,535 l -108,130 68,-35 c 133,-68 326,-181 465,-273 78,-51 144,-93 148,-93 26,0 -4,151 -67,335
      -142,419 -326,720 -535,873 -72,53 -80,65 -80,120 0,74 -57,237 -120,345 -64,110 -218,265 -350,354 -162,109
      -157,103 -137,185 22,86 1,218 -50,319 -19,38 -81,113 -138,168 l -103,99 26,77 c 66,195 -52,448 -259,554 -38,19
      -53,40 -61,85 -32,173 -168,298 -363,334 -52,10 -60,17 -69,69 -28,151 -165,275 -355,323 l -106,27 -19,76 c -11,42
      -33,95 -51,118 -44,59 -144,125 -225,148 -48,13 -76,33 -91,63 -44,86 -112,149 -207,194 -53,25 -139,-1 -167,50
      -28,51 -79,200 -181,268 -92,61 -99,71 -95,119 10,119 -111,282 -256,344 -68,29 -78,39 -78,81 0,117 -98,234
      -228,270 -65,18 -74,27 -84,76 -16,86 -109,167 -253,220 l -123,45 9,58 c 19,126 -87,221 -293,263 l -100,20 58,86 c
      77,114 164,290 245,497 89,226 124,282 247,396 202,189 371,256 910,363 561,111 1116,183 1660,216 500,30 515,31
      589,67 127,61 168,195 95,304 l -37,54 44,37 c 52,43 80,128 63,191 -6,24 -36,60 -65,80 -43,29 -48,38 -26,46 37,14
      73,91 73,154 0,70 -35,117 -117,159 -86,43 -82,38 -53,80 39,56 33,152 -13,197 -40,40 -129,65 -191,53 -32,-6 -37,-1
      -37,45 0,92 -86,151 -219,151 -59,0 -73,6 -88,39 -31,67 -91,95 -205,93 -71,-1 -103,4 -103,18 0,39 -104,120
      -178,138 -55,14 -90,14 -142,0 -37,-10 -70,-16 -71,-13 -2,3 -15,24 -29,47 -48,76 -196,117 -290,80 -21,-8 -42,1
      -73,32 -55,55 -161,84 -255,70 -66,-10 -90,-28 -263,-197 -176,-173 -322,-338 -408,-462 -58,-83 -16,-59 54,32 35,45
      168,188 296,317 205,208 241,237 307,253 41,10 99,14 128,8 59,-11 141,-54 141,-73 0,-7 -126,-138 -280,-292
      -154,-154 -280,-287 -280,-298 0,-25 55,23 338,293 131,125 258,237 280,249 90,47 278,7 289,-62 6,-35 -18,-58
      -235,-232 -182,-146 -537,-475 -481,-446 13,7 118,93 232,191 268,229 500,411 557,436 68,30 188,24 246,-12 45,-27
      97,-93 82,-103 -3,-2 -92,-56 -197,-121 -315,-192 -794,-548 -770,-572 5,-5 125,78 268,184 330,244 670,457 772,482
      43,11 101,15 128,9 48,-10 122,-64 122,-89 0,-7 -117,-71 -260,-144 -285,-144 -523,-285 -688,-407 -104,-77
      -153,-137 -64,-78 355,235 635,398 884,514 138,65 161,70 251,65 68,-4 110,-15 132,-36 33,-29 43,-97 21,-129 -6,-9
      -80,-45 -164,-79 -351,-143 -1102,-512 -1082,-532 4,-4 160,67 348,157 952,454 1040,484 1139,392 49,-45 52,-71
      17,-146 -22,-47 -35,-32 -279,-88 -244,-47 -554,-166 -820,-280 -251,-107 -643,-300 -622,-307 8,-3 150,57 315,133
      516,237 859,362 1186,432 130,28 132,28 218,-7 48,-19 102,-49 121,-67 46,-43 45,-128 -3,-184 l -37,-43 -263,-3 c
      -298,-3 -491,-39 -823,-153 -178,-61 -499,-194 -592,-244 -105,-57 5,-22 242,77 638,266 1099,355 1390,271 84,-24
      117,-42 131,-71 26,-53 11,-111 -44,-163 -45,-42 -48,-43 -105,-19 -71,30 -257,47 -321,30 -39,-11 -27,-15 80,-34
      151,-26 251,-68 306,-127 49,-53 51,-101 5,-158 -57,-73 -115,-86 -464,-104 -933,-49 -2006,-222 -2461,-397 -15,-6
      -11,7 12,36 20,25 36,67 36,93 0,48 0,48 -80,40 -44,-4 -80,-1 -80,7 0,8 32,70 72,137 40,68 87,141 68,152 -18,10
      -69,1 -104,-12 l -64,-23 2,51 c 2,46 -2,51 -51,56 -57,6 -59,21 -9,118 45,88 23,141 -58,141 -26,0 -28,7 -15,52
      20,71 20,73 -24,114 l -39,36 18,259 c 19,276 12,321 -45,273 -60,-50 -1,58 80,146 45,49 117,157 160,240 227,437
      314,543 446,543 h 63 l -42,-52 c -104,-128 -437,-672 -396,-646 10,6 113,151 228,322 220,327 251,358 388,393 90,23
      183,2 237,-51 43,-43 57,-26 23,27 -57,87 -235,112 -356,50 -30,-16 -55,-19 -70,-10 -41,26 -145,16 -207,-19 -82,-46
      -152,-143 -289,-398 -108,-202 -213,-376 -237,-391 -6,-4 -8,63 -5,148 6,170 -24,322 -80,414 -40,64 -52,65 -78,3
      -24,-59 -34,-50 -69,66 -30,99 -118,244 -141,230 -8,-5 -14,-23 -14,-41 0,-39 -44,-126 -63,-126 -8,0 -37,40 -65,90
      -28,49 -56,84 -63,76 -7,-8 -24,-48 -37,-89 -29,-86 -138,-280 -196,-345 l -35,-44 v 72 c 0,66 6,76 66,120 123,90
      125,100 92,320 -41,267 -40,399 3,512 31,82 33,99 15,165 -22,84 -96,171 -173,204 -28,12 -55,22 -60,22 -18,0 -8,-45
      14,-63 39,-33 48,-111 16,-146 -31,-34 -36,-101 -16,-193 11,-52 9,-60 -22,-70 -60,-19 -68,10 -58,195 15,268 17,285
      34,297 24,18 97,15 143,-6 54,-24 66,-9 41,51 -44,107 -176,120 -280,29 -31,-27 -56,-44 -56,-39 0,28 -69,-32
      -89,-76 l -22,-51 -1,61 c 0,47 10,72 47,109 26,26 44,55 39,63 -10,16 -10,16 -86,-2 z m -19,-79 c -46,-57 -102,-94
      -119,-77 -11,11 77,112 111,125 59,24 60,17 8,-48 z m 406,2 c 26,-25 24,-26 -34,-21 -37,4 -82,-5 -112,-20 -28,-14
      -59,-21 -70,-15 -11,6 -4,-5 14,-25 33,-34 33,-39 11,-142 -13,-59 -20,-150 -16,-203 8,-104 59,-245 71,-196 4,15
      20,28 36,28 54,0 69,40 57,156 -9,94 -7,112 18,135 41,37 112,21 124,-28 5,-21 -5,-79 -22,-130 -40,-117 -44,-157
      -27,-322 15,-152 6,-172 -106,-229 -46,-24 -66,-27 -83,-13 -18,15 -9,29 42,76 63,57 110,128 110,166 0,11 -21,-13
      -46,-52 -25,-40 -66,-87 -92,-106 l -46,-33 -57,45 c -32,25 -165,99 -297,165 -293,146 -334,178 -347,270 -5,38
      -16,97 -23,132 -14,67 -1,177 22,200 8,8 14,-15 14,-53 0,-38 16,-97 37,-137 l 37,-70 -34,-36 c -43,-46 -13,-69
      31,-25 l 32,32 69,-43 c 38,-24 93,-74 122,-113 49,-65 134,-131 169,-131 8,0 -12,28 -45,62 -33,34 -62,73 -64,87
      -2,14 -23,40 -46,59 -58,45 -113,197 -100,273 14,83 93,154 172,155 47,1 60,-5 60,-28 0,-16 -11,-37 -24,-48 -13,-11
      -24,-45 -24,-75 0,-73 75,-368 108,-424 30,-50 98,-71 147,-46 48,26 41,31 -30,21 l -63,-8 -35,115 c -29,94 -34,143
      -28,270 7,168 34,247 85,256 18,3 50,23 72,43 78,73 153,82 212,25 z m 69,-254 c -14,-14 -70,29 -78,62 -8,31 -5,31
      38,-10 26,-25 44,-48 40,-51 z m -489,-4 -13,-56 -2,49 c -1,27 3,54 9,60 18,18 19,5 6,-53 z m -1780,-196 c 16,-19
      16,-48 0,-137 -15,-85 -15,-127 -1,-172 l 18,-59 -47,45 c -104,100 -126,304 -47,432 l 41,62 9,-74 c 5,-41 17,-85
      28,-98 z m 2257,-664 c -20,-22 -56,-49 -78,-61 -39,-21 -41,-19 -66,48 l -25,69 61,28 c 34,15 74,42 90,59 28,31
      29,30 42,-36 12,-59 9,-72 -24,-107 z m -1113,-74 c -24,-25 -73,-62 -108,-80 -56,-30 -60,-35 -28,-40 44,-7 140,50
      174,102 23,36 53,39 53,5 0,-37 -262,-276 -278,-253 -10,14 -62,239 -57,244 3,3 39,23 79,46 40,23 83,61 96,85 l
      23,43 44,-53 44,-53 z m 324,33 c 21,-46 43,-115 49,-152 11,-73 28,-83 73,-42 27,25 30,23 52,-28 46,-112 60,-240
      55,-499 0,0 -11,-210 6,-237 C 5968,11555 5999,11562 5993,11500 c -4,-37 -11,-122 -15,-188 -8,-119 -62,-347
      -89,-374 -8,-8 -87,-42 -177,-76 -258,-97 -588,-286 -807,-462 l -54,-21 C 4765,10571 4755,10951 4818,11182 c 22,83
      85,230 162,380 134,262 182,406 167,503 -9,59 -8,60 92,126 108,71 274,236 348,342 62,88 78,93 118,7 z m 1279,-91 c
      13,-39 24,-91 24,-115 0,-24 8,-49 17,-55 23,-14 77,70 90,100 C 7144,12404 7191,12120 7189,11951 c -2,-142
      -10,-191 -52,-317 -27,-82 -50,-152 -50,-156 0,-20 44,-1 85,37 l 47,44 -10,-215 c -6,-118 -22,-219 -35,-368
      -13,-150 -169,-726 -301,-1015 -32,-70 -54,-130 -49,-135 12,-12 15,-8 101,167 l 79,162 8,-136 c 11,-183 44,-216
      44,-45 0,177 29,393 75,552 21,75 57,226 79,336 22,110 43,203 47,206 18,18 24,-52 8,-101 -23,-69 -12,-89 49,-89
      54,0 56,-7 23,-86 -48,-114 -21,-187 58,-162 34,11 38,-11 12,-59 -26,-48 -12,-50 82,-15 47,18 88,30 91,26 3,-3
      -34,-69 -83,-147 -104,-164 -113,-205 -41,-192 26,5 71,14 98,19 42,8 49,5 40,-16 -14,-36 -140,-202 -154,-202 -6,0
      -55,-40 -109,-89 l -98,-89 9,57 c 7,46 4,57 -18,57 -32,0 -74,-88 -224,-472 -68,-156 -115,-304 -194,-450 -91,-169
      -105,-184 -178,-185 -35,-1 -214,7 -399,17 -417,23 -626,9 -595,-41 5,-9 215,-19 492,-25 304,-6 489,-16 500,-27
      12,-12 11,-17 -2,-17 -33,0 -204,-83 -186,-90 10,-4 77,15 150,41 120,44 139,47 214,31 45,-9 117,-32 159,-50 84,-36
      104,-74 77,-145 -15,-39 -24,-43 -98,-43 -88,0 -302,-43 -326,-65 -31,-29 7,-31 143,-7 159,28 306,32 320,9 5,-8
      60,-32 122,-52 110,-35 239,-123 238,-162 -1,-28 -114,-75 -261,-107 -140,-31 -288,-90 -276,-109 4,-7 89,9 188,34
      100,25 221,47 269,48 123,4 269,-32 313,-76 32,-32 69,-143 52,-160 -3,-3 -75,-8 -160,-9 -179,-4 -316,-23 -340,-47
      -12,-12 59,-16 250,-14 219,3 273,-1 380,-55 108,-54 225,-114 241,-205 18,-99 -94,-71 -241,-64 -108,5 -361,-25
      -402,-47 -58,-31 -28,-39 110,-28 266,20 369,16 433,-18 33,-17 103,-50 158,-73 54,-23 117,-61 140,-85 50,-52
      70,-132 39,-157 -12,-10 -141,-22 -293,-29 -150,-6 -277,-15 -284,-19 -7,-4 -8,-15 -2,-25 7,-12 106,-14 308,-7
      361,12 492,-2 578,-61 72,-50 89,-82 58,-113 -16,-16 -88,-24 -268,-30 -135,-4 -262,-12 -282,-18 -91,-28 -12,-39
      280,-39 231,0 344,-7 419,-25 161,-39 257,-112 257,-195 0,-30 -9,-36 -47,-36 -26,0 -52,-7 -57,-16 -6,-9 -107,-17
      -245,-17 -265,-2 -399,-15 -387,-39 5,-10 120,-14 312,-11 577,9 811,-59 887,-259 l 16,-43 -84,12 c -76,11 -136,11
      -300,3 -31,-2 -142,3 -248,9 -248,16 -584,-27 -584,-74 0,-10 16,-13 37,-8 21,5 123,17 228,27 236,21 575,-1 723,-48
      55,-18 174,-44 264,-58 172,-27 254,-54 304,-99 32,-29 97,-146 87,-156 -3,-3 -71,2 -150,12 -160,20 -352,-34
      -423,-30 -76,3 -918,11 -963,0 -104,-23 -7,-34 304,-36 336,-2 667,-14 705,-27 12,-4 140,-18 285,-31 192,-18
      286,-33 343,-58 86,-37 182,-132 216,-215 27,-65 29,-182 4,-237 l -18,-40 -74,37 c -73,37 -310,118 -450,154 -40,10
      -144,21 -232,23 -88,2 -239,16 -336,30 -198,29 -577,35 -592,10 -6,-10 36,-16 115,-17 69,-1 139,-4 156,-7 17,-3
      83,-7 147,-9 149,-4 410,-43 422,-62 13,-21 119,-57 233,-79 163,-32 409,-112 545,-177 150,-72 255,-167 309,-277
      39,-82 53,-220 25,-249 -11,-11 -86,11 -232,70 -361,145 -586,200 -816,201 -67,0 -173,14 -240,32 -135,35 -191,41
      -166,16 9,-9 84,-33 167,-55 83,-21 237,-67 343,-102 106,-35 311,-101 456,-147 607,-192 911,-385 1054,-673 71,-142
      88,-258 31,-211 -33,28 -273,122 -596,235 -211,74 -423,165 -695,298 -368,180 -465,222 -465,201 0,-15 269,-160
      517,-280 131,-63 266,-139 301,-169 92,-79 216,-139 478,-233 590,-212 788,-365 992,-768 63,-125 160,-392 160,-439
      0,-22 -11,-19 -60,20 -225,177 -768,491 -1284,744 -324,162 -618,284 -678,284 -53,0 1,-30 227,-125 298,-126
      312,-133 312,-154 0,-10 31,-36 68,-56 37,-21 102,-65 144,-98 42,-33 117,-83 168,-111 299,-168 687,-569 890,-919
      65,-113 180,-388 167,-401 -3,-3 -124,71 -269,164 -145,93 -332,213 -416,265 -84,53 -207,148 -274,211 -113,106
      -237,203 -667,519 -91,67 -206,154 -256,193 -132,104 -273,195 -292,189 -12,-4 240,-210 368,-301 6,-4 27,-35 47,-67
      48,-79 172,-188 346,-306 79,-53 206,-158 283,-234 76,-75 181,-177 233,-225 171,-160 356,-477 461,-792 30,-90
      55,-173 55,-183 0,-10 -55,28 -121,87 -67,58 -266,214 -444,347 -233,175 -388,306 -557,473 -135,134 -196,187
      -236,187 -64,0 -134,65 -267,191 -209,197 -231,166 -26,-37 90,-89 150,-170 323,-302 172,-133 273,-244 377,-450
      88,-176 169,-499 167,-672 0,-52 -4,-48 -49,55 -106,244 -311,499 -586,725 -218,179 -269,215 -1397,971 -1079,723
      -1247,838 -1427,982 -474,378 -760,785 -1125,1603 -454,1015 -712,1449 -1099,1842 -203,207 -451,367 -496,322
      -11,-11 24,-47 105,-109 66,-51 119,-94 117,-96 -2,-2 -61,16 -132,39 -109,36 -141,55 -212,129 -115,119 -113,161
      13,242 43,28 79,60 79,72 0,30 -52,55 -115,55 -50,0 -53,3 -57,63 -4,60 -1,65 61,97 85,43 78,76 -25,117 -100,40
      -99,39 -69,63 46,37 141,174 141,205 0,23 -15,33 -64,41 -35,6 -64,16 -64,22 0,6 25,43 56,82 31,39 56,75 56,81 0,6
      -43,20 -96,30 -53,10 -96,22 -96,26 0,4 18,33 40,66 22,32 40,76 40,97 0,36 -5,37 -86,32 l -86,-7 38,75 c 21,42
      38,91 38,109 0,31 -6,33 -87,23 l -87,-11 39,94 c 44,108 52,198 16,198 -13,0 -50,-16 -82,-35 0,0 -48,-31 -56,-14 C
      3890,9146 3943,9210 4215,9561 c 451,583 824,899 1376,1166 132,64 251,120 264,124 16,5 0,-41 -46,-138 -103,-216
      -175,-412 -204,-562 -24,-125 -21,-216 8,-216 7,0 30,67 50,148 63,248 124,404 304,780 285,594 333,751 348,1118
      8,209 11,227 31,188 12,-23 28,-42 34,-42 46,0 235,263 274,381 12,37 28,67 35,67 7,0 28,-29 46,-64 18,-35 43,-64
      55,-64 29,0 105,90 105,125 1,42 58,-40 87,-124 z m -933,-1532 c -63,-120 -195,-587 -195,-692 0,-88 16,-49 66,161
      26,109 73,275 104,370 32,95 54,177 49,181 -5,5 -15,-5 -24,-21 z M 5924,8559 c -87,-26 -59,-47 64,-47 125,0
      263,-30 324,-71 47,-31 56,-31 56,-3 0,76 -312,161 -444,121 z m 156,-236 c 0,-10 20,-22 44,-27 345,-70 489,-153
      489,-281 0,-35 -19,-64 -78,-119 -48,-45 -72,-78 -63,-87 8,-8 69,-23 134,-33 136,-21 253,-67 268,-106 15,-39
      -14,-76 -73,-93 -58,-17 -58,-52 0,-44 88,12 143,85 120,159 -19,61 -196,132 -337,135 -40,1 -72,7 -72,14 0,7 25,28
      56,47 183,113 76,321 -210,408 -110,33 -279,50 -279,27 z m 500,-878 c -116,-14 -17,-52 140,-52 164,-1 358,-78
      431,-170 35,-44 44,-102 17,-102 -9,0 -16,-8 -16,-17 0,-9 16,-15 36,-12 28,4 37,17 41,57 4,43 -8,65 -69,130 -91,97
      -193,143 -365,163 -72,8 -138,14 -147,13 -9,-1 -39,-5 -68,-9 z m 354,-471 c -4,-7 9,-15 29,-19 248,-47 322,-68
      402,-110 98,-52 155,-109 155,-155 0,-32 -42,-72 -92,-88 -20,-6 -36,-18 -36,-27 0,-18 48,-6 115,28 48,24 68,70
      53,117 -17,54 -166,174 -261,210 -92,35 -351,66 -365,44 z m 198,-459 c -57,-11 -25,-33 64,-44 151,-19 436,-95
      552,-148 93,-42 108,-55 108,-90 0,-31 -18,-54 -72,-92 -88,-62 -93,-86 -12,-52 119,50 172,137 126,207 -27,42
      -203,119 -379,167 -121,33 -336,62 -387,52 z m 591,-542 c -26,-26 -1,-33 137,-41 166,-9 246,-39 261,-100 14,-57
      -6,-103 -50,-115 -21,-5 -35,-16 -30,-25 12,-19 69,-2 107,31 66,58 12,193 -94,238 -54,22 -311,31 -331,11 z m
      40,-358 c 4,-13 65,-32 159,-49 215,-38 321,-96 400,-220 54,-86 59,-159 13,-207 -38,-41 -92,-44 -191,-10 -78,27
      -354,87 -403,87 -17,0 -30,-6 -30,-14 0,-8 104,-40 231,-71 255,-63 435,-139 565,-237 150,-114 221,-249 157,-303
      -19,-16 -43,-12 -124,20 -173,69 -447,134 -820,194 -251,40 -296,45 -296,28 0,-22 18,-27 368,-91 390,-71 550,-110
      712,-172 270,-103 490,-278 597,-474 29,-54 47,-97 40,-97 -7,0 -56,10 -109,21 -146,32 -310,96 -492,192 -185,98
      -267,128 -320,117 l -36,-7 39,-13 c 21,-7 108,-47 192,-89 129,-64 148,-78 117,-87 -20,-6 -36,-17 -36,-25 0,-8
      2,-14 4,-14 2,0 69,-14 149,-30 287,-59 498,-207 651,-453 54,-88 136,-295 122,-309 -10,-10 -267,117 -421,208
      -128,75 -279,136 -339,136 -38,0 -22,-32 249,-194 272,-161 425,-373 487,-652 8,-35 7,-36 -27,-12 -19,14 -100,62
      -179,107 -79,46 -187,110 -240,142 -139,86 -296,163 -296,145 0,-8 37,-46 83,-84 268,-222 390,-375 426,-535 l
      14,-64 -138,103 c -76,56 -233,156 -350,222 -175,99 -214,127 -221,163 -40,190 -69,265 -146,367 -48,64 -39,65 72,3
      90,-51 114,-47 115,18 1,55 -50,189 -95,251 -44,61 -45,66 -16,73 51,13 55,57 11,145 -131,265 -359,443 -602,468
      -103,11 -283,-27 -322,-68 -22,-22 -12,-24 104,-13 218,21 292,12 416,-47 70,-33 142,-84 192,-136 81,-83 200,-262
      200,-301 0,-38 -60,-22 -128,35 -93,78 -270,159 -432,197 -175,42 -336,59 -336,37 0,-18 33,-29 288,-91 243,-60
      381,-129 502,-250 96,-97 142,-170 171,-272 l 14,-47 -41,27 c -67,44 -231,127 -413,243 -182,116 -536,254 -483,168
      5,-8 65,-39 134,-68 68,-30 157,-74 197,-98 40,-24 102,-58 138,-75 85,-40 269,-211 321,-301 49,-83 101,-245
      101,-312 v -48 l -76,67 c -117,103 -293,213 -556,348 -132,68 -245,126 -252,129 -7,3 -12,-4 -12,-16 1,-34 125,-119
      354,-240 221,-117 285,-157 463,-287 114,-83 156,-99 123,-46 -11,17 -15,36 -10,41 22,22 477,-263 650,-408 112,-93
      127,-87 110,41 -14,102 -70,223 -155,336 l -74,97 169,-91 c 93,-50 192,-113 220,-140 58,-56 70,-52 70,25 0,147
      -92,371 -215,521 l -71,88 114,-47 c 63,-26 126,-57 139,-68 55,-47 62,-44 53,26 -31,249 -194,536 -373,661 -70,49
      -62,69 16,42 41,-14 47,-12 55,18 30,114 -221,419 -435,530 -50,26 -52,30 -28,56 35,39 32,124 -8,187 -45,73
      -191,201 -292,255 -46,24 -85,46 -88,48 -3,2 17,26 44,52 65,65 65,142 1,253 -89,156 -251,242 -487,258 -102,7
      -125,5 -119,-13 z m -1219,6911 c 0,-47 -127,-169 -146,-139 -29,46 -13,86 54,128 84,53 92,54 92,11 z M 3988,9097 c
      41,16 36,-16 -21,-135 -40,-85 -45,-106 -28,-124 16,-16 35,-17 82,-4 33,9 67,14 74,12 20,-7 -52,-169 -89,-196
      -30,-23 -30,-24 9,-23 22,0 72,6 112,14 40,8 75,11 78,8 3,-3 -17,-45 -45,-94 -49,-85 -49,-89 -19,-105 17,-9 48,-17
      69,-17 20,0 47,-6 59,-14 33,-21 -73,-160 -123,-161 -67,-1 -19,-33 50,-33 80,0 139,-14 139,-33 0,-7 -32,-53
      -72,-102 -95,-117 -94,-143 8,-177 44,-15 80,-29 80,-32 0,-3 -26,-20 -58,-39 -53,-31 -66,-54 -54,-112 0,0 0,-56
      15,-75 C 4286,7624 4398,7612 4398,7612 l -78,-62 c -76,-60 -120,-138 -61,-210 C 4318,7269 4392,7217 4349,7217 c
      -13,0 -95,11 -182,24 -87,13 -332,38 -543,56 -455,39 -647,66 -868,121 -456,114 -698,306 -783,623 -36,134 -32,144
      38,97 66,-45 120,-50 214,-22 86,26 113,2 100,-91 -9,-63 -5,-75 41,-120 43,-43 58,-49 102,-39 28,6 75,12 103,13
      55,1 71,22 25,31 -22,4 -26,21 -23,85 4,68 -2,86 -35,117 -35,33 -49,36 -133,26 -79,-9 -90,-8 -73,11 16,17 85,21
      324,18 285,-4 305,-2 335,28 20,20 32,53 32,88 0,84 -76,158 -255,249 l -153,78 157,1 c 376,2 675,126 955,396 66,64
      124,117 134,90 C 3869,9057 3916,9069 3988,9097 Z M 2493,7940 c 6,-43 -30,-61 -75,-37 -31,17 -31,19 -5,50 35,40
      74,34 81,-13 z m 214,-595 c 203,-48 428,-76 893,-113 397,-31 589,-52 691,-73 l 43,-9 -99,-123 c -55,-68 -124,-149
      -155,-180 -56,-58 -178,-146 -187,-137 -3,3 13,46 35,96 40,90 52,170 27,170 -29,0 -64,-63 -140,-248 -74,-180
      -151,-310 -193,-324 -13,-4 -18,50 -19,186 0,106 -5,200 -11,209 -27,43 -37,-1 -47,-209 -7,-128 -24,-273 -40,-335
      -26,-99 -95,-242 -125,-261 -6,-4 -12,116 -12,267 0,272 -9,342 -40,323 -10,-6 -16,-111 -16,-266 0,-171 -8,-296
      -25,-379 -28,-135 -85,-271 -132,-313 -29,-26 -30,-22 -38,154 -8,179 -32,285 -64,285 -10,0 -12,-20 -6,-52 22,-107
      29,-359 12,-448 -9,-50 -34,-130 -54,-176 l -37,-85 -10,146 c -11,154 -52,326 -78,326 -21,0 -20,-35 10,-236
      35,-231 24,-446 -27,-564 l -38,-87 -19,127 c -21,136 -64,294 -87,318 -32,33 -31,-13 3,-193 48,-255 50,-455 3,-550
      l -34,-68 C 2694,4600 2567,5136 2530,5136 c -29,0 -27,-26 15,-160 68,-218 99,-391 101,-568 2,-151 -23,-280
      -53,-280 -7,0 -17,36 -23,80 -23,170 -158,494 -257,616 -72,88 -59,29 37,-170 53,-109 111,-244 130,-300 41,-122
      81,-373 80,-506 0,-123 -38,-302 -77,-364 l -30,-48 -19,109 c -36,208 -165,551 -207,551 -12,0 -18,-10 -13,-23
      5,-12 38,-115 74,-228 106,-332 132,-545 96,-771 -15,-91 -92,-316 -104,-303 -3,3 -13,79 -22,168 -21,208 -54,371
      -115,572 -49,161 -150,376 -176,376 -27,0 -13,-65 49,-230 77,-206 105,-401 94,-671 -7,-170 -16,-218 -68,-375
      -33,-99 -74,-196 -91,-216 l -33,-35 19,39 c 29,58 38,391 15,571 -40,322 -123,629 -238,874 -56,121 -94,152 -89,74
      2,-21 15,-103 29,-182 63,-343 47,-649 -50,-954 -40,-127 -146,-360 -158,-347 -3,3 2,42 11,86 30,142 21,663 -16,872
      -32,182 -70,304 -96,304 -7,0 -13,-103 -13,-228 0,-141 -8,-255 -21,-300 -30,-102 -119,-289 -160,-336 l -35,-40
      12,120 c 18,180 9,562 -18,752 -13,92 -61,339 -105,549 -101,476 -121,650 -97,875 75,706 465,1362 1137,1916 130,107
      496,372 514,372 6,0 71,-14 144,-31 z M 2020,5934 c 66,-288 67,-303 34,-546 -14,-104 17,-100 49,7 37,124 31,334
      -12,460 -19,57 -45,106 -58,110 -16,5 -20,-3 -13,-31 z m -174,-202 c 24,-153 30,-465 10,-579 l -20,-119 -29,55 c
      -16,30 -48,136 -72,235 -23,99 -50,180 -59,180 -15,0 -12,-44 14,-208 8,-53 8,-54 -15,-24 -42,55 -48,15 -18,-115
      31,-135 38,-452 11,-541 -15,-48 -15,-48 -51,48 -32,83 -61,214 -109,480 l -11,64 -5,-78 c -5,-70 -7,-75 -27,-48
      -38,52 -44,11 -16,-101 31,-121 26,-383 -10,-549 -17,-81 -20,-85 -34,-48 -42,107 -78,259 -87,365 -17,196 -44,112
      -55,-170 -9,-200 -18,-274 -47,-363 l -37,-112 -15,64 c -8,35 -12,195 -8,356 7,279 -4,362 -32,232 -7,-33 -13,-168
      -13,-300 0,-251 27,-440 64,-440 41,0 136,263 136,375 0,56 18,41 48,-39 31,-83 48,-100 74,-78 35,29 69,168 80,329
      l 11,150 44,-113 c 46,-116 73,-160 98,-160 8,0 14,11 40,70 26,58 30,102 30,290 0,124 -5,254 -12,289 l -12,64
      27,-64 c 35,-84 98,-184 116,-184 8,0 14,16 14,36 0,20 11,79 25,132 14,53 29,145 35,204 l 10,108 43,-84 c 23,-46
      55,-87 70,-89 23,-4 20,10 -19,88 -25,51 -62,161 -82,245 -32,133 -69,208 -104,208 -6,0 -6,-27 -1,-60 z m 233,2651
      c 49,-42 97,-61 97,-40 0,12 -118,89 -136,88 -9,0 9,-22 39,-48 z m -61,-58 c 8,-65 72,-93 170,-72 52,11 81,11
      96,-1 25,-21 43,-6 31,25 -11,28 -81,42 -152,31 -40,-6 -66,0 -102,27 l -48,36 z"
  />
</svg>
