<svg xmlns="http://www.w3.org/2000/svg" viewBox="1005 1359 8514 3709">
  <g transform="translate(-3.434e-6,3.3913e-5)">
    <path
      id="head"
      style="fill:#ffffff;stroke-width:10.727"
      d="m 3107,3250 135,-61 331,-2 357,79 269,29 -17,85 102,142 -12,50 -46,29 6,136 -110,44 -27,115 -98,13 -23,96 -133,-8 -319,-98 -275,-192 -177,-152 96,-2 79,-58 -142,-158 -37,-8 22,-62 z"
    />
    <path
      id="tail"
      style="fill:#ffffff;stroke-width:10.727"
      d="m 6128,4040 237,108 363,88 285,64 409,43 31,36 -54,52 -224,57 -357,20 408,105 102,31 -79,52 -231,20 157,57 18,51 -62,51 -182,5 -177,-39 -218,-88 134,169 13,95 -80,34 -203,-92 -67,44 -136,-29 -180,-169 -152,-216 46,-160 z"
    />
  </g>
  <path
    id="right wing"
    style="fill:#9b5d2c;stroke-width:0.264583"
    d="m 1086,1908 63,143 199,314 181,174 199,113 244,92 687,138 440,86 614,41 403,120 135,101 -76,28 -258,21 -308,-90 -295,-6 -179,47 -70,72 v 36 l -167,79 -79,86 -131,-40 -141,-179 -30,127 -62,25 -97,-79 -44,-95 -36,59 -69,-48 -33,-98 -84,37 -159,-113 -92,-171 -437,-157 -168,-229 -206,-439 6,-127 z"
  />
  <path
    id="left wing"
    style="fill:#9b5d2c;stroke-width:0.264583"
    d="m 4513,3346 52,-17 154,-153 173,-170 204,-151 332,-199 87,-58 338,-123 962,-216 258,-34 7,-22 192,-113 271,-148 505,-416 -115,251 -217,237 -197,138 319,-97 315,-136 380,-226 214,-171 -174,257 -208,191 -336,201 -452,145 260,-12 467,-84 431,-140 384,-116 356,-134 -38,99 -216,178 -333,184 -686,143 -501,41 603,20 281,-13 349,-49 -66,65 -318,136 -407,58 -402,-8 -208,-16 -625,-186 -229,115 92,56 v 66 l -228,119 -85,11 -5,116 -91,82 -182,33 7,91 -57,66 -154,66 -165,26 81,68 17,60 -13,38 153,126 33,101 -56,76 -174,78 -112,4 z"
  />
  <path
    id="body"
    style="fill:#9b5d2c;stroke-width:0.264583"
    d="m 6166,4082 -290,491 -172,-26 -102,-105 -76,140 -112,69 -91,-144 -38,-44 -569,-91 -485,-155 -254,-144 -70,-65 78,-14 23,-95 95,-10 28,-119 113,-40 -17,-142 63,-45 -51,-109 -78,-62 41,-63 -45,-72 397,31 74,22 1238,565"
  />
  <path
    id="feathers"
    style="fill:#9b5d2c;stroke-width:0.264583"
    d="m 6924,2471 773,253 319,57 329,8 -146,89 -261,47 -451,1 15,43 281,65 -35,56 -592,-4 -315,-80 137,94 390,94 48,37 -23,47 -206,29 -242,-24 -140,-47 148,109 61,55 -5,41 -48,43 -81,13 -217,-35 -279,-97 -202,-88 37,47 118,85 121,125 39,81 -126,55 -154,-27 -194,-98 -125,-51 13,-92 -110,-89 235,-39 142,-102 13,-100 205,-59 60,-81 17,-104 266,-85 44,-53 -40,-65 -105,-24 z"
  />
  <path
    id="beak"
    style="fill:#f8b00f;stroke-width:0.264583"
    d="m 3058,3336 -168,88 -65,94 -2,107 10,65 47,41 24,-63 91,-83 104,-24 80,7 75,-78 -80,-119 L 3091,3334 Z"
  />
  <path
    id="left claw"
    style="fill:#f8b00f;stroke-width:0.264583"
    d="m 5718,4546 139,19 30,9 19,301 28,43 -29,4 -74,-55 -34,-43 -6,49 88,144 -98,-27 -118,4 -65,-145 84,-191 7,-118 z"
  />
  <path
    id="right claw"
    style="fill:#f8b00f;stroke-width:0.264583"
    d="m 5407,4647 118,-71 46,64 20,126 -9,12 -51,-81 6,139 9,32 31,54 21,43 -38,-7 -2,19 -59,-6 -62,-19 -72,-99 -1,-82 33,-113 z"
  />
  <path
    id="eye"
    style="fill:#787878;stroke-width:0.264583"
    d="m 3335,3333 88,-6 6,14 -24,71 -51,2 z"
  />
  <path
    id="trace"
    style="fill:#000000;stroke-width:0.439806"
    d="m 6607,5064 c -12,-3 -45,-15 -73,-28 -28,-13 -64,-27 -80,-32 -29,-10 -30,-9 -48,4 -16,12 -25,14 -63,13 -87,-1
    -157,-36 -240,-118 -69,-69 -132,-155 -189,-259 -9,-17 -9,-13 -6,83 4,121 13,163 44,192 12,12 18,22 15,25 -6,6
    -71,-10 -94,-22 -14,-8 -60,-58 -60,-66 0,-3 -2,-4 -6,-2 -13,8 41,118 72,148 23,22 25,28 12,33 -8,3 -58,-12
    -71,-22 -4,-3 -17,-3 -31,1 -32,9 -98,6 -121,-4 -19,-9 -25,-19 -65,-108 l -18,-40 20,-50 c 11,-28 29,-71 40,-95
    21,-45 32,-87 34,-129 1,-23 -2,-27 -36,-52 -33,-24 -70,-96 -78,-151 -7,-47 5,-37 63,53 39,61 59,79 104,99 31,13
    33,18 16,33 -9,8 -17,10 -34,7 l -23,-4 3,54 c 3,53 2,55 -24,122 -15,37 -32,80 -39,95 l -13,27 25,54 c 14,29 27,57
    31,61 7,9 49,10 54,1 2,-4 -1,-13 -7,-22 -34,-45 -36,-64 -14,-113 6,-14 18,-45 27,-70 9,-25 18,-45 21,-45 3,0 4,6
    2,13 -1,7 -6,31 -9,53 -4,22 -10,48 -15,57 -16,31 10,109 40,120 40,15 68,22 68,17 0,-3 -6,-15 -14,-27 -20,-30
    -44,-91 -44,-111 0,-9 5,-34 11,-54 6,-20 13,-49 15,-63 2,-14 8,-35 13,-47 7,-17 9,-19 13,-9 5,14 -3,73 -14,109
    -6,19 -7,31 -3,41 11,29 81,86 94,78 5,-3 4,-7 -2,-14 -5,-5 -11,-19 -15,-30 -9,-28 -24,-177 -24,-237 0,-39 -2,-49
    -8,-46 -4,2 -11,1 -15,-2 -6,-4 -6,-9 3,-27 6,-12 12,-24 14,-25 10,-8 53,-95 59,-119 6,-24 10,-34 16,-38 9,-7 9,-3
    6,55 -2,35 -6,66 -9,70 -3,4 -7,14 -9,23 -2,9 -9,24 -16,32 -15,20 -10,33 24,70 13,14 31,35 40,47 9,11 19,24 23,28
    4,4 17,22 28,39 12,17 28,39 37,48 9,9 22,26 31,36 16,21 74,81 79,81 1,0 6,3 10,7 37,35 88,58 147,65 17,2 34,2
    40,-1 8,-5 7,-7 -7,-16 -22,-14 -50,-44 -64,-66 -6,-10 -13,-18 -20,-27 -8,-9 -12,-13 -13,-19 -2,-6 -20,-28 -40,-50
    -41,-44 -87,-113 -80,-117 3,-2 7,-1 9,3 2,3 8,4 12,2 6,-2 15,3 26,15 9,10 18,18 19,18 1,0 20,17 42,38 22,21 41,38
    50,47 8,9 18,25 26,44 2,5 15,16 30,25 14,9 29,20 33,23 4,4 17,11 30,16 30,12 83,44 128,76 19,14 45,28 58,32 20,6
    26,5 46,-4 21,-11 22,-13 22,-38 0,-39 -18,-68 -81,-132 -31,-31 -57,-60 -84,-79 -27,-19 -100,-64 -139,-92 -12,-8
    -22,-19 -22,-24 0,-11 22,-11 45,2 53,30 137,71 165,81 18,7 69,26 113,44 204,80 245,89 356,84 75,-4 105,-11
    126,-31 13,-12 15,-33 4,-40 -4,-2 -110,-31 -184,-50 -51,-13 -99,-28 -123,-39 -23,-10 -79,-27 -133,-40 -64,-16
    -88,-25 -164,-61 -39,-19 -74,-35 -77,-35 -3,0 -6,-3 -6,-6 0,-11 56,-6 103,9 26,8 63,18 84,23 21,5 70,17 110,28
    82,23 124,33 166,39 16,2 41,8 55,12 37,11 231,10 270,-1 29,-8 43,-23 22,-23 -6,0 -13,-2 -16,-5 -3,-3 -70,-19
    -148,-35 -175,-36 -247,-53 -272,-63 -10,-4 -29,-8 -41,-8 -42,0 -203,-47 -236,-55 -26,-8 -42,-21 -50,-25 -22,-11
    -42,-29 -38,-35 3,-5 84,10 132,25 52,16 161,34 207,35 104,0 312,-15 404,-30 61,-10 84,-16 119,-31 13,-6 36,-16
    51,-22 16,-7 28,-16 28,-21 0,-19 -111,-37 -320,-50 -119,-8 -112,-6 -268,-46 -58,-15 -146,-35 -192,-44 -71,-14
    -121,-26 -181,-44 -33,-10 -81,-23 -107,-30 -26,-7 -47,-15 -68,-22 C 6268,4133 6247,4124 6226,4115 c -103,-43
    -172,-81 -217,-120 -39,-33 -45,-39 -65,-65 -44,-56 -35,-52 -102,-47 -60,4 -75,10 -83,33 -2,7 -5,7 -12,-1 -15,-14
    -15,-48 -1,-66 7,-9 20,-12 68,-16 67,-5 157,-25 179,-39 37,-24 70,-70 70,-100 0,-22 -23,-64 -51,-95 -20,-21
    -96,-79 -105,-79 -4,0 -19,6 -34,14 -47,24 -67,32 -92,35 -13,2 -39,7 -58,12 -19,4 -55,11 -79,15 -107,17 -132,26
    -162,63 -11,13 -22,24 -25,24 -10,0 -4,-45 8,-70 20,-40 33,-45 161,-67 122,-21 160,-31 212,-56 49,-23 66,-44
    59,-71 -5,-18 -8,-22 -50,-53 l -38,-28 -58,3 c -81,5 -162,-9 -151,-25 6,-10 116,-25 221,-29 118,-5 126,-7 213,-39
    103,-39 145,-73 145,-117 0,-19 6,-19 -93,-2 -27,4 -78,10 -113,12 -76,4 -132,-6 -169,-31 l -23,-16 137,-3 c 98,-2
    149,-6 180,-13 24,-5 80,-17 125,-25 45,-8 97,-21 115,-29 62,-25 103,-68 111,-117 l 4,-24 -22,5 c -130,32 -300,43
    -389,26 -84,-16 -151,-38 -161,-52 -7,-10 1,-14 23,-9 100,22 392,20 469,-3 16,-5 53,-15 82,-24 29,-8 60,-18 70,-23
    10,-4 28,-11 41,-15 47,-15 141,-54 170,-75 l 22,-15 c 7,-17 -5,-36 -50,-53 -45,-18 -61,-18 -114,-3 -45,12 -125,27
    -183,33 -59,6 -180,-20 -180,-39 0,-3 24,-5 54,-5 133,-1 263,-22 391,-64 56,-18 191,-75 187,-79 -1,-1 -40,3 -86,10
    -69,10 -99,12 -171,9 -86,-3 -113,-7 -113,-15 0,-5 113,-23 250,-41 50,-6 103,-15 119,-20 63,-17 167,-63 244,-108
    19,-11 60,-33 90,-48 60,-31 59,-32 -23,-20 -30,5 -74,9 -97,9 -23,0 -54,3 -70,5 -16,3 -76,11 -133,18 -104,12
    -183,26 -250,44 -19,5 -51,13 -70,17 -19,4 -61,15 -93,23 -101,27 -145,37 -248,52 -34,5 -86,17 -116,26 -30,9 -85,22
    -121,29 -96,18 -169,35 -195,44 -26,9 -111,42 -131,49 -19,7 -72,28 -111,47 -18,8 -117,75 -157,106 -8,6 -33,22
    -55,35 -22,13 -42,26 -44,28 -2,2 -26,17 -55,32 -121,64 -142,76 -195,111 -30,20 -66,47 -80,59 -13,12 -47,40 -74,63
    -27,22 -50,44 -53,51 -4,7 -25,31 -49,60 -24,29 -55,63 -68,75 -14,13 -42,40 -63,60 -21,20 -41,37 -43,37 -2,0 -8,4
    -13,9 -5,5 -24,10 -43,12 -36,4 -101,-6 -101,-16 0,-3 17,-5 37,-5 20,0 43,-3 51,-7 36,-19 149,-127 221,-214 46,-54
    68,-77 99,-103 91,-77 179,-142 189,-146 10,-4 35,-18 64,-34 89,-48 206,-119 282,-171 124,-86 113,-80 291,-147
    115,-43 179,-61 286,-80 37,-7 92,-20 122,-29 30,-9 97,-23 148,-31 53,-8 159,-31 244,-53 176,-46 261,-64 346,-73
    173,-19 222,-28 247,-45 13,-9 29,-21 35,-27 27,-25 113,-77 199,-121 122,-62 187,-102 308,-189 13,-9 30,-21 37,-26
    17,-12 113,-87 116,-92 2,-2 38,-32 81,-67 151,-121 187,-164 235,-272 8,-18 15,-36 15,-39 0,-9 23,-13 32,-6 13,10
    10,44 -6,90 -8,22 -17,47 -20,56 -9,27 -58,122 -89,170 -151,236 -240,336 -369,415 -6,4 -9,9 -7,11 2,2 27,-5 55,-17
    28,-11 63,-25 78,-30 15,-5 37,-13 49,-19 12,-5 38,-16 58,-23 51,-18 146,-59 183,-77 122,-60 475,-275 541,-329
    5,-4 18,-13 29,-20 11,-7 28,-20 38,-28 10,-8 29,-25 43,-37 14,-12 36,-31 49,-43 26,-23 42,-26 53,-9 5,8 4,15
    -5,29 -18,32 -72,111 -83,124 -6,6 -20,23 -31,38 -11,14 -25,31 -30,38 -5,6 -19,23 -31,38 -23,28 -140,149 -173,177
    -41,36 -84,71 -101,82 -10,6 -19,12 -20,14 -3,4 -33,23 -148,90 -115,67 -194,99 -437,170 -42,12 -71,23 -66,24 6,1
    37,-2 70,-7 33,-5 90,-12 127,-15 184,-19 344,-54 586,-130 26,-8 69,-21 95,-29 26,-8 49,-16 52,-17 7,-5 253,-82
    354,-111 230,-67 339,-107 449,-163 33,-17 65,-31 70,-31 17,0 26,10 25,29 -1,38 -118,177 -201,238 -85,63 -262,175
    -275,175 -1,0 -29,13 -62,29 -133,65 -302,111 -520,142 -57,8 -135,20 -173,26 -38,6 -122,15 -186,20 -64,5 -128,10
    -143,11 -14,1 117,1 291,0 174,-1 333,-5 352,-7 19,-3 65,-10 102,-15 81,-11 161,-25 202,-34 27,-6 32,-5 42,4 6,6
    12,16 12,22 0,22 -54,64 -141,107 -116,59 -174,78 -368,125 -87,21 -114,26 -215,39 -106,14 -319,15 -439,3 -43,-4
    -82,-6 -87,-5 -18,7 186,51 290,62 81,9 241,8 307,-2 48,-7 59,-5 64,15 7,26 -39,61 -132,101 -116,50 -198,61
    -476,67 -221,5 -223,5 -81,31 85,15 117,31 125,60 5,19 4,23 -11,39 -9,9 -28,21 -43,26 -51,18 -324,31 -425,21
    -69,-7 -229,-34 -314,-52 -27,-6 -50,-10 -51,-9 -7,7 63,29 138,44 81,16 123,27 253,66 74,22 101,51 81,85 -12,21
    -43,36 -105,54 -38,10 -62,13 -150,13 -107,1 -143,-4 -231,-31 -18,-6 -33,-8 -33,-6 0,2 14,13 31,23 60,37 87,68
    95,106 6,30 -9,51 -52,75 -34,18 -39,19 -111,22 -85,3 -120,-4 -256,-46 -155,-48 -231,-76 -303,-110 -41,-19 -75,-35
    -77,-35 -5,0 23,23 45,36 11,7 23,15 26,17 3,3 27,20 53,39 86,63 148,142 148,188 0,45 -42,71 -130,81 -55,6 -63,6
    -106,-6 -26,-7 -89,-33 -141,-59 -52,-25 -95,-45 -95,-43 0,2 8,11 18,21 10,10 24,32 33,49 13,26 15,35 11,61 -4,34
    -22,67 -52,99 -23,25 -38,33 -91,51 -21,7 -40,15 -42,17 -6,5 18,29 57,59 42,32 259,139 326,161 94,31 116,38 189,57
    43,11 89,23 102,26 107,22 205,44 273,62 107,27 155,35 236,40 37,2 88,6 113,9 26,3 71,8 102,12 63,7 101,16 122,26
    62,31 53,84 -20,118 -93,44 -188,63 -384,79 l -87,7 67,10 c 37,6 93,16 125,22 153,31 193,47 207,81 7,16 6,20 -4,34
    -16,21 -64,40 -125,48 -50,7 -61,13 -40,19 19,6 37,30 40,55 8,61 -54,97 -179,104 -102,6 -229,-23 -353,-80 -40,-18
    -48,-13 -21,12 38,35 64,90 70,149 3,33 3,37 -13,54 -20,23 -68,36 -103,29 z M 6423,3631 c 46,-16 48,-21 26,-70
    -23,-49 -141,-165 -217,-211 -18,-11 -34,-22 -36,-23 -2,-2 -19,-17 -39,-34 l -36,-31 -43,21 c -24,11 -60,25 -80,30
    -20,5 -39,11 -43,13 -3,2 -28,7 -55,10 l -49,6 25,12 c 54,26 72,75 50,133 -2,6 1,8 11,8 26,0 145,46 153,58 2,3 8,6
    14,6 6,0 12,2 13,4 4,8 125,64 161,75 33,10 111,6 146,-7 z m 498,-161 c 36,-5 48,-10 61,-23 9,-9 16,-21 16,-27
    0,-11 -54,-71 -64,-71 -3,0 -9,-3 -13,-7 -21,-20 -170,-103 -211,-118 -58,-20 -187,-73 -228,-93 -17,-8 -33,-15
    -36,-15 -3,0 -6,-2 -7,-4 -1,-2 -19,-13 -40,-24 l -38,-20 -73,18 c -40,10 -78,18 -85,18 -11,0 -12,3 -12,43 0,33
    -2,46 -20,65 -18,19 -23,23 -23,26 0,6 45,30 70,38 8,2 24,11 35,18 47,31 144,67 367,136 146,45 209,53 301,40 z m
    386,-188 c 49,-10 93,-30 93,-43 0,-12 -27,-26 -81,-41 -24,-7 -57,-16 -73,-20 -30,-8 -79,-20 -205,-49 -67,-16
    -120,-37 -161,-66 -10,-7 -20,-15 -21,-16 -11,-13 -113,-58 -157,-69 -11,-3 -39,-12 -62,-20 -23,-8 -44,-15 -47,-15
    -3,0 -30,-12 -61,-26 -31,-14 -57,-26 -59,-26 -2,0 -3,11 -3,25 0,14 -3,34 -6,46 -6,21 -11,29 -38,59 -20,23 -16,20
    -15,29 2,12 54,18 70,30 5,4 24,13 44,20 34,14 73,31 148,65 21,10 46,21 55,25 30,14 189,66 247,82 93,25 239,29
    332,11 z m 308,-207 c 86,-5 134,-15 138,-28 2,-7 -2,-9 -100,-27 -151,-28 -178,-35 -259,-61 -18,-6 -52,-15 -76,-20
    -93,-21 -120,-27 -178,-44 -58,-17 -270,-119 -299,-133 -19,-16 -53,-37 -53,-37 l -14,14 c -17,17 -111,64 -166,83
    -21,7 -50,18 -64,24 l -26,11 35,16 c 37,17 86,34 169,59 29,9 73,23 99,32 147,52 187,63 288,81 79,14 159,28 183,31
    36,5 236,3 323,-2 z m 253,-180 c 164,-6 220,-13 297,-41 56,-20 90,-34 90,-38 0,-1 -36,-1 -81,1 -84,4 -193,-4
    -277,-19 -73,-14 -259,-59 -343,-84 -10,-3 -55,-15 -102,-28 -178,-48 -248,-69 -278,-83 -14,-6 -26,-11 -28,-11 -2,0
    -14,-5 -28,-11 -13,-6 -58,-25 -100,-41 -42,-17 -79,-33 -83,-36 -6,-5 -32,6 -43,18 -6,7 -118,59 -153,70 -28,9
    -28,14 1,19 28,4 49,21 61,47 8,16 19,25 60,46 28,14 58,30 66,35 34,22 119,53 267,95 59,17 229,51 291,59 58,7
    196,8 381,1 z m 378,-242 c 116,-17 150,-24 306,-64 52,-14 84,-24 148,-49 19,-7 160,-78 158,-80 -1,-1 -14,1 -30,4
    -16,3 -81,13 -145,23 -170,25 -353,31 -784,28 -347,-3 -422,-7 -504,-24 -21,-4 -61,-12 -90,-18 -127,-23 -181,-39
    -231,-69 -9,-5 -27,2 -98,37 -14,7 -14,23 51,47 65,24 246,83 320,101 57,14 115,25 298,52 150,23 180,25 349,25
    136,1 166,-1 253,-14 z m -553,-230 c 364,-14 453,-21 625,-47 43,-7 113,-17 154,-23 42,-6 87,-14 102,-17 14,-3
    39,-8 55,-11 30,-6 69,-16 124,-33 17,-5 44,-13 60,-17 16,-5 49,-17 74,-27 49,-20 198,-92 208,-100 5,-5 102,-69
    125,-83 5,-3 11,-7 12,-9 2,-2 20,-15 41,-28 47,-31 166,-151 158,-159 -4,-4 -14,0 -28,8 -12,8 -43,23 -69,33 -25,10
    -50,21 -55,24 -20,10 -187,64 -277,88 -108,30 -169,48 -276,85 -46,16 -128,42 -180,59 -53,16 -112,35 -131,41
    -116,37 -296,79 -401,92 -147,19 -268,35 -340,44 -92,12 -261,17 -308,8 -21,-4 -72,-9 -113,-11 -73,-4 -77,-4 -103,9
    -30,15 -34,22 -15,27 7,2 29,7 48,13 131,36 238,43 512,32 z m -239,-146 c 22,-3 63,-8 90,-12 54,-6 94,-14 183,-38
    76,-20 192,-54 215,-64 10,-4 32,-13 50,-21 58,-23 118,-53 200,-100 80,-46 143,-84 149,-91 2,-2 20,-18 41,-35
    46,-39 46,-39 106,-97 46,-45 80,-82 131,-142 37,-44 43,-52 40,-52 -3,0 -98,65 -102,70 -5,6 -105,64 -110,64 -3,0
    -6,2 -7,5 -2,6 -79,53 -86,53 -3,0 -6,2 -6,5 0,3 -10,10 -23,16 -13,6 -23,13 -23,15 0,2 -3,4 -6,4 -3,0 -30,15
    -60,33 -91,56 -196,106 -318,153 -76,29 -84,32 -175,58 -46,14 -90,27 -96,30 -11,5 -94,29 -134,40 -10,3 -40,15
    -67,29 -27,13 -56,25 -64,26 -8,1 -22,6 -30,12 -8,6 -18,10 -24,15 -6,5 -8,7 -14,9 -6,2 -18,9 -27,17 l -16,13 72,-4
    c 39,-2 90,-7 112,-10 z m -294,-76 c 42,-7 105,-14 163,-20 34,-3 67,-12 94,-26 111,-56 221,-116 241,-130 18,-12
    57,-48 96,-85 25,-25 87,-98 87,-104 0,-2 9,-14 20,-27 11,-13 20,-25 20,-28 0,-3 8,-15 17,-27 10,-12 17,-25 29,-43
    12,-18 21,-35 32,-51 11,-17 20,-33 20,-35 0,-3 -13,6 -28,20 -15,14 -33,29 -39,34 -24,18 -136,111 -143,118 -4,4
    -26,21 -48,38 -22,17 -44,33 -47,35 -3,3 -31,22 -61,42 -30,20 -56,39 -58,41 -2,2 -25,18 -52,34 -27,16 -55,34
    -63,39 -16,12 -319,168 -344,178 -15,6 24,4 64,-2 z M 5551,4977 c -2,-3 -2,-8 0,-12 2,-3 -17,-27 -42,-54 -36,-38
    -47,-55 -56,-81 -13,-41 -13,-96 0,-135 l 10,-30 c 6,73 2,152 40,217 17,27 54,60 78,71 25,11 24,18 -2,14 -17,-3
    -20,-2 -17,6 4,10 -6,13 -12,4 z m -105,-11 c -26,-16 -73,-72 -85,-101 -14,-36 -13,-87 3,-133 27,-74 26,-78
    -13,-147 -19,-34 -35,-65 -35,-70 0,-11 -19,-28 -32,-28 -6,0 -67,-9 -136,-21 -188,-31 -228,-37 -253,-41 -117,-15
    -272,-52 -367,-89 -29,-11 -128,-46 -221,-77 -93,-31 -187,-66 -209,-77 -38,-19 -109,-65 -130,-85 -5,-5 -20,-18
    -33,-29 -13,-11 -28,-25 -35,-31 -8,-7 -40,-17 -92,-28 -133,-28 -262,-78 -349,-134 -16,-10 -40,-26 -52,-34 -33,-21
    -127,-89 -131,-93 -2,-2 -20,-17 -41,-32 -21,-16 -39,-30 -41,-32 -2,-2 -29,-21 -61,-42 -68,-45 -99,-57 -120,-45
    -27,15 -90,72 -107,96 -19,28 -27,28 -19,1 12,-40 83,-122 128,-145 28,-15 85,-19 131,-10 21,4 26,3 46,-15 13,-11
    30,-27 39,-36 18,-19 34,-17 34,4 0,30 -60,91 -94,96 -12,2 -25,0 -30,-4 -4,-4 -9,-5 -11,-3 -4,4 13,18 49,39 15,9
    31,19 35,23 4,4 44,35 89,69 217,163 320,213 538,258 24,5 62,9 85,9 h 41 l 4,-22 c 2,-12 4,-30 4,-40 0,-29 22,-43
    67,-43 36,0 37,0 42,-19 3,-10 7,-29 10,-42 8,-45 35,-72 87,-85 41,-10 39,-6 30,-94 -5,-43 -4,-46 11,-65 9,-11
    19,-20 24,-20 11,0 26,-23 22,-34 -2,-5 -19,-26 -39,-46 -19,-20 -38,-45 -41,-54 -3,-10 -11,-22 -19,-27 -17,-11
    -17,-26 -1,-52 9,-14 11,-22 6,-26 -10,-10 -60,-16 -167,-19 -112,-4 -142,-9 -294,-51 -136,-37 -145,-38 -267,-39
    -149,-1 -230,14 -307,54 -40,21 -47,27 -48,42 -1,10 -5,19 -9,22 -4,3 -2,4 6,4 7,0 16,4 21,8 4,4 20,13 34,20 28,13
    39,21 52,39 6,8 3,6 -9,-4 -28,-25 -68,-40 -105,-41 -11,0 -103,42 -133,61 -51,32 -73,52 -88,84 -14,30 -16,40
    -17,98 -1,76 3,93 26,122 10,12 16,23 15,24 -4,4 -58,-26 -70,-39 -10,-11 -12,-23 -14,-96 l -2,-83 -39,-7 c -42,-7
    -81,-28 -119,-64 -24,-22 -68,-83 -68,-94 0,-16 -13,0 -23,28 -6,17 -16,37 -24,45 -49,52 -146,14 -188,-75 -17,-35
    -21,-38 -35,-24 -14,14 -40,16 -63,7 -25,-11 -48,-45 -64,-94 -6,-19 -12,-36 -13,-37 -1,-1 -10,3 -20,10 -41,29
    -113,1 -194,-75 -28,-26 -54,-54 -59,-63 -36,-69 -45,-87 -45,-97 0,-22 -16,-33 -79,-55 -35,-12 -91,-34 -153,-51
    -62,-17 -161,-60 -210,-92 -69,-45 -99,-84 -201,-256 -28,-48 -56,-94 -62,-103 -6,-8 -26,-47 -46,-85 -78,-154
    -107,-300 -74,-369 10,-21 57,-74 66,-74 3,0 12,18 21,39 53,130 80,179 158,289 97,138 225,268 319,327 81,50 177,95
    273,127 87,29 243,70 291,76 16,2 43,7 61,12 18,4 53,11 79,15 26,4 92,18 148,32 56,14 124,29 151,34 27,5 77,17
    111,26 80,22 198,44 297,55 43,5 110,13 148,18 142,18 166,20 305,26 209,9 216,10 431,66 83,22 203,64 257,91 40,20
    84,51 120,86 4,4 8,8 9,8 2,1 103,15 199,28 86,12 117,21 97,28 -4,2 -10,9 -13,17 -6,16 -10,17 -75,6 -45,-7
    -127,-19 -234,-32 -22,-3 -40,-4 -42,-2 -1,1 4,9 12,17 18,19 19,52 2,73 -13,16 -16,39 -5,39 4,0 26,20 48,44 51,54
    62,82 46,117 -7,15 -18,26 -33,33 -22,10 -22,11 -19,35 11,71 11,95 1,115 -9,19 -31,34 -50,34 -5,0 -19,3 -30,6
    -26,7 -37,28 -42,81 -5,53 -17,64 -68,64 h -39 l -3,31 c -4,41 -14,61 -34,68 -21,7 -21,13 2,30 26,19 28,21 51,39
    38,31 137,80 200,98 C 4298,4206 4359,4226 4410,4244 c 288,102 291,103 655,160 18,3 54,9 81,14 27,5 70,12 96,15
    37,5 50,9 63,22 9,9 15,19 16,30 1,11 15,40 29,53 2,2 7,10 12,19 5,9 19,27 32,41 20,21 43,59 43,71 0,2 -7,1 -15,-2
    -22,-8 -23,-8 -25,19 -1,14 -7,42 -13,63 -14,46 -14,53 -2,92 7,25 17,39 52,74 29,29 49,44 61,47 13,3 16,5 11,9
    -13,8 -42,6 -61,-6 z M 2803,3464 c 10,-10 9,-96 -2,-145 -13,-57 -23,-80 -36,-80 -6,0 -13,-2 -16,-5 -3,-3 -16,-8
    -29,-11 -13,-3 -52,-14 -87,-24 -35,-10 -66,-18 -68,-18 -9,0 3,90 15,113 7,13 14,24 17,25 2,1 4,4 4,8 0,19 84,111
    113,124 10,4 24,10 32,14 20,8 49,8 57,0 z m 120,-97 c 38,-22 92,-42 115,-42 h 19 l -25,-11 c -14,-6 -45,-17
    -70,-23 -24,-7 -62,-17 -84,-22 -22,-6 -41,-9 -42,-8 -1,1 1,12 6,24 5,12 11,45 12,75 l 3,54 18,-14 c 10,-8 31,-22
    47,-31 z m -427,25 c 14,-14 14,-18 14,-100 0,-47 -2,-95 -5,-107 -4,-21 -5,-21 -47,-31 -23,-5 -51,-12 -62,-15
    -52,-13 -49,-14 -50,16 0,15 -1,45 -2,66 -2,67 33,146 78,171 32,18 55,18 73,-1 z m -217,-107 c 8,-12 19,-96
    19,-140 v -27 l -42,-11 c -23,-6 -45,-13 -48,-16 -3,-3 -12,-5 -19,-5 -17,0 -18,16 -3,49 6,13 12,31 15,41 9,37
    35,97 46,108 15,14 23,14 32,0 z m 815,-36 c 44,-51 75,-63 214,-87 65,-11 273,-4 325,11 22,6 62,17 87,24 25,7
    48,14 50,15 4,2 100,23 134,29 15,3 24,1 30,-6 10,-10 112,-20 203,-20 34,0 45,-2 43,-7 -4,-13 -106,-59 -186,-85
    -42,-14 -83,-27 -89,-30 -7,-2 -45,-13 -84,-23 -40,-10 -91,-23 -113,-29 -49,-13 -147,-22 -300,-26 -63,-2 -164,-10
    -227,-18 -62,-8 -147,-18 -189,-23 -95,-10 -158,-22 -262,-48 -45,-11 -98,-24 -119,-28 -21,-4 -64,-14 -96,-21
    -32,-7 -73,-16 -90,-21 -43,-12 -96,-22 -207,-42 -156,-28 -338,-76 -454,-121 -40,-15 -201,-95 -214,-107 l -36,-27
    c -60,-45 -174,-157 -221,-220 -12,-16 -24,-30 -27,-31 -3,-1 -5,-5 -5,-9 0,-4 -6,-14 -13,-22 -77,-92 -113,-163
    -139,-275 -7,-29 -13,-57 -15,-63 -3,-11 -2,-13 -30,40 -11,21 -13,124 -2,152 3,9 11,33 16,52 6,19 12,37 15,40 3,3
    5,9 5,13 0,13 63,139 91,179 14,21 26,39 26,40 0,1 13,24 30,50 16,27 41,67 55,90 39,66 77,114 107,134 53,36 124,69
    204,95 196,63 317,105 390,137 27,12 69,29 93,38 24,9 58,22 76,28 37,14 192,52 297,74 21,4 54,12 73,17 19,5 46,12
    59,15 13,3 42,11 64,17 22,7 53,16 69,21 16,5 42,13 58,18 16,5 63,18 105,29 42,11 95,27 119,37 24,10 47,18 52,18
    4,0 17,-10 29,-24 z m -968,-118 c 6,-27 9,-53 7,-57 -2,-5 -11,-10 -20,-13 -19,-5 -144,-53 -158,-62 -15,-8 -65,-29
    -71,-29 -7,0 -7,16 -1,18 3,1 14,15 25,31 65,94 144,158 195,160 11,0 14,-5 23,-49 z m 3440,1783 c -22,-26 -44,-75
    -51,-113 -9,-48 -1,-132 12,-132 5,0 23,36 35,71 8,22 23,35 20,17 -1,-5 -5,-28 -9,-50 -9,-57 -16,-72 -42,-100 l
    -23,-24 19,-31 c 21,-34 38,-51 50,-51 11,0 10,2 -15,42 l -23,36 16,17 c 9,10 20,24 24,31 7,13 20,163 15,169 -5,5
    -26,-19 -36,-41 -5,-12 -12,-22 -15,-22 -3,0 -4,26 -3,60 2,56 3,62 24,99 12,22 21,39 19,39 -1,0 -9,-8 -17,-17 z M
    3356,3428 c -11,-8 -28,-50 -28,-69 0,-10 -3,-11 -22,-8 -33,6 -16,-5 25,-16 47,-13 152,-24 173,-19 29,7 14,18
    -27,20 l -39,2 v 20 c 0,30 -17,67 -33,73 -19,7 -38,6 -50,-3 z m 45,-30 c 8,-8 26,-45 26,-52 0,-4 -62,-2 -66,1
    -2,2 -1,9 2,16 3,7 7,20 8,29 4,18 15,21 29,7 z"
  />
</svg>
