<?xml version="1.0" encoding="UTF-8" standalone="no"?>
<!-- Created with Inkscape (http://www.inkscape.org/) -->

<svg
   width="210mm"
   height="297mm"
   viewBox="0 0 210 297"
   version="1.1"
   id="svg1"
   xml:space="preserve"
   sodipodi:docname="eagle-fly-6.svg"
   inkscape:version="1.4.3 (0d15f750, 2025-12-25)"
   xmlns:inkscape="http://www.inkscape.org/namespaces/inkscape"
   xmlns:sodipodi="http://sodipodi.sourceforge.net/DTD/sodipodi-0.dtd"
   xmlns="http://www.w3.org/2000/svg"
   xmlns:svg="http://www.w3.org/2000/svg"><sodipodi:namedview
     id="namedview1"
     pagecolor="#ffffff"
     bordercolor="#000000"
     borderopacity="0.25"
     inkscape:showpageshadow="2"
     inkscape:pageopacity="0.0"
     inkscape:pagecheckerboard="0"
     inkscape:deskcolor="#d1d1d1"
     inkscape:document-units="mm"
     inkscape:zoom="9.4293158"
     inkscape:cx="501.57404"
     inkscape:cy="227.58809"
     inkscape:window-width="1792"
     inkscape:window-height="1061"
     inkscape:window-x="0"
     inkscape:window-y="32"
     inkscape:window-maximized="0"
     inkscape:current-layer="svg1"
     inkscape:lockguides="false" /><defs
     id="defs1" /><g
     inkscape:groupmode="layer"
     id="layer4"
     inkscape:label="bird fill"><path
       style="fill:#9b5d2c;fill-opacity:1;stroke-width:0.264583"
       d="m 21.710829,38.152575 1.268994,2.86903 3.972503,6.289794 3.613872,3.47594 3.972505,2.262119 4.882866,1.848318 13.738238,2.758683 8.800196,1.710383 12.276134,0.827604 8.055353,2.400054 2.70351,2.013839 -1.517277,0.551735 -5.158734,0.413803 -6.151862,-1.793144 -5.903581,-0.110347 -3.586287,0.937953 -1.406927,1.434512 v 0.717259 l -3.338005,1.572448 -1.57245,1.710383 -2.620748,-0.800018 -2.813855,-3.586287 -0.606912,2.53799 -1.241406,0.496562 -1.931077,-1.572451 -0.882777,-1.903489 -0.717259,1.186233 -1.379342,-0.965539 -0.662083,-1.958665 -1.682795,0.744844 -3.172486,-2.262118 -1.848316,-3.420767 -8.745024,-3.144898 -3.365591,-4.579411 -4.110437,-8.772609 0.110348,-2.53799 z"
       id="path6"
       inkscape:label="right wing"
       sodipodi:insensitive="true" /><path
       style="fill:#9b5d2c;stroke-width:0.264583"
       d="m 90.257737,66.919665 1.049936,-0.349978 3.076133,-3.057713 3.462949,-3.40769 4.089225,-3.02087 6.63118,-3.978709 1.73148,-1.160457 6.76012,-2.468271 19.24884,-4.328689 5.15759,-0.681538 0.14736,-0.442079 3.83135,-2.265653 5.41546,-2.965612 10.09413,-8.325815 -2.30249,5.010226 -4.34711,4.733925 -3.94187,2.762994 6.3733,-1.934097 6.29962,-2.72615 7.60744,-4.512887 4.27343,-3.42611 -3.48137,5.139163 -4.16291,3.812929 -6.72328,4.015549 -9.04419,2.891933 5.19442,-0.239461 9.33892,-1.676215 8.62053,-2.799831 7.68112,-2.320914 7.1101,-2.689313 -0.75522,1.970934 -4.31027,3.555051 -6.66802,3.683989 -13.72286,2.855092 -10.02045,0.810477 12.06507,0.405239 5.62776,-0.256564 6.97389,-0.983499 -1.32772,1.307087 -6.36918,2.719427 -8.13443,1.168874 -8.039,-0.166981 -4.1507,-0.310111 -12.49982,-3.721319 -4.58009,2.290043 1.83681,1.121166 v 1.312005 l -4.55623,2.38546 -1.69368,0.214691 -0.0954,2.313897 -1.81295,1.645971 -3.64975,0.667927 0.14313,1.812951 -1.14503,1.312003 -3.07724,1.312005 -3.29194,0.524801 1.62212,1.359713 0.33396,1.192731 -0.2624,0.763346 3.05339,2.528589 0.66793,2.027642 -1.12117,1.526696 -3.48277,1.550549 -2.23419,0.08314 z"
       id="path7"
       inkscape:label="left wing"
       sodipodi:insensitive="true" /><path
       style="fill:#9b5d2c;stroke-width:0.264583"
       d="m 123.31278,81.630633 -5.80339,9.810816 -3.4409,-0.513437 -2.04764,-2.092823 -1.51117,2.806459 -2.24517,1.381641 -1.8134,-2.871224 -0.75558,-0.885113 -11.372994,-1.822688 -9.697238,-3.100861 -5.074134,-2.875343 -1.409483,-1.296723 1.552387,-0.288005 0.459642,-1.906169 1.90617,-0.202782 0.567795,-2.379332 2.257661,-0.797615 -0.337974,-2.838977 1.257261,-0.905766 -1.013921,-2.176548 -1.554676,-1.230222 0.824654,-1.25726 -0.905767,-1.433008 7.949129,0.621872 1.473562,0.432607 24.766486,11.298565"
       id="path8"
       inkscape:label="body"
       sodipodi:nodetypes="cccccccccccccccccccccccccc"
       sodipodi:insensitive="true" /></g><g
     inkscape:groupmode="layer"
     id="layer2"
     inkscape:label="orange fill"
     sodipodi:insensitive="true"><path
       style="fill:#f8b00f;fill-opacity:1;stroke-width:0.264583"
       d="m 61.153957,66.722288 -3.354025,1.758421 -1.302533,1.888675 -0.03256,2.149181 0.195379,1.302534 0.944337,0.814083 0.48845,-1.269971 1.823548,-1.660731 2.084054,-0.48845 1.595605,0.130254 1.497912,-1.563039 -1.46535,-2.181746 -1.790983,-0.944335 z"
       id="path2"
       inkscape:label="beak"
       sodipodi:insensitive="true" /><path
       style="fill:#f8b00f;fill-opacity:1;stroke-width:0.264583"
       d="m 114.35373,90.925527 2.78728,0.376661 0.60265,0.18833 0.37666,6.026547 0.56499,0.866315 -0.57809,0.08803 -1.48449,-1.102122 -0.67477,-0.85471 -0.11247,0.989663 1.7544,2.879009 -1.95683,-0.539806 -2.36169,0.08997 -1.30456,-2.90151 1.68693,-3.823695 0.13495,-2.361695 z"
       id="path3"
       inkscape:label="left claw"
       sodipodi:insensitive="true" /><path
       style="fill:#f8b00f;fill-opacity:1;stroke-width:0.264583"
       d="m 108.14312,92.938302 2.36169,-1.417015 0.92219,1.282062 0.39032,2.518741 -0.17827,0.241189 -1.02767,-1.625404 0.11535,2.778916 0.17827,0.639675 0.62919,1.080108 0.41945,0.859891 -0.76551,-0.14681 -0.0315,0.377513 -1.17448,-0.11535 -1.23741,-0.388001 -1.43664,-1.971458 -0.0105,-1.63589 0.66064,-2.265079 z"
       id="path4"
       inkscape:label="right claw"
       sodipodi:insensitive="true" /></g><g
     inkscape:groupmode="layer"
     id="layer3"
     inkscape:label="dark grey"
     style="fill:#3a3a3a;fill-opacity:1"
     sodipodi:insensitive="true"><path
       style="fill:#787878;fill-opacity:1;stroke-width:0.264583"
       d="m 66.698854,66.666697 1.768774,-0.128641 0.128638,0.289436 -0.482391,1.415021 -1.029105,0.03216 z"
       id="path5"
       inkscape:label="eye"
       sodipodi:insensitive="true" /></g><g
     inkscape:label="bird contours"
     inkscape:groupmode="layer"
     id="layer1"
     sodipodi:insensitive="true"><path
       style="fill:#000000;stroke-width:0.439806"
       d="m 132.14714,101.27241 c -0.24989,-0.0524 -0.90917,-0.30011 -1.46505,-0.55041 -0.55589,-0.2503 -1.27672,-0.5421 -1.60184,-0.64844 -0.58304,-0.190708 -0.59619,-0.189628 -0.95963,0.0788 -0.3146,0.23237 -0.49895,0.27076 -1.26048,0.26249 -1.74155,-0.0189 -3.14564,-0.712348 -4.79418,-2.367698 -1.37688,-1.38256 -2.63053,-3.10278 -3.77968,-5.18635 -0.18337,-0.33248 -0.18938,-0.2538 -0.12624,1.6527 0.08,2.41639 0.26998,3.25283 0.87131,3.83684 0.24728,0.24015 0.36206,0.43377 0.29601,0.49934 -0.11342,0.1126 -1.41807,-0.19288 -1.87056,-0.43798 -0.28648,-0.15518 -1.20463,-1.16647 -1.20463,-1.32682 0,-0.0588 -0.0496,-0.0762 -0.11014,-0.0388 -0.25733,0.15903 0.81651,2.36275 1.44159,2.958408 0.45294,0.4316 0.50259,0.56789 0.24317,0.66744 -0.168,0.0645 -1.15286,-0.24679 -1.42028,-0.44888 -0.0808,-0.061 -0.33267,-0.0504 -0.61643,0.026 -0.64545,0.17381 -1.95245,0.12859 -2.41515,-0.0836 -0.38366,-0.175908 -0.50059,-0.370278 -1.30231,-2.164698 l -0.35502,-0.79455 0.39234,-1.00905 c 0.21579,-0.55498 0.57718,-1.41192 0.8031,-1.90432 0.41224,-0.89848 0.63633,-1.74182 0.68567,-2.58043 0.0265,-0.45104 -0.0357,-0.54064 -0.72676,-1.04693 -0.65317,-0.4785 -1.40365,-1.92258 -1.56771,-3.0166 -0.14059,-0.93754 0.0953,-0.73965 1.26247,1.05891 0.78697,1.21271 1.18069,1.58646 2.08544,1.97967 0.61429,0.26698 0.65755,0.35511 0.32297,0.6579 -0.17463,0.15804 -0.33826,0.19058 -0.68191,0.13563 l -0.45215,-0.0723 0.0553,1.07515 c 0.0545,1.05835 0.047,1.09636 -0.47611,2.43172 -0.29228,0.7461 -0.64538,1.59898 -0.78465,1.89528 l -0.25323,0.53872 0.49479,1.07203 c 0.27214,0.58961 0.54706,1.13748 0.61093,1.21748 0.14305,0.17915 0.97545,0.193 1.08359,0.018 0.0433,-0.0701 -0.024,-0.26646 -0.14965,-0.43637 -0.67221,-0.90924 -0.71847,-1.2771 -0.28395,-2.25806 0.12049,-0.27201 0.36445,-0.90038 0.54214,-1.39639 0.17769,-0.49601 0.36942,-0.90183 0.42607,-0.90183 0.0567,0 0.0785,0.11782 0.0486,0.26182 -0.0299,0.144 -0.11244,0.62367 -0.18341,1.06593 -0.071,0.44226 -0.20763,0.95608 -0.30368,1.14183 -0.32377,0.6261 0.19244,2.17927 0.79859,2.40279 0.79999,0.29501 1.36756,0.43908 1.36756,0.34715 0,-0.0574 -0.12934,-0.29989 -0.28743,-0.53878 -0.39792,-0.60129 -0.87622,-1.81449 -0.87622,-2.2225 0,-0.18653 0.10027,-0.67194 0.22283,-1.07869 0.12256,-0.40675 0.25933,-0.97518 0.30394,-1.26318 0.0446,-0.28801 0.15914,-0.70692 0.25454,-0.93093 0.14852,-0.34874 0.18535,-0.37556 0.2563,-0.18659 0.10398,0.27694 -0.0529,1.46991 -0.28626,2.17672 -0.12318,0.37308 -0.14385,0.62021 -0.0681,0.81456 0.22264,0.57148 1.61064,1.72352 1.87768,1.55848 0.093,-0.0574 0.0823,-0.13619 -0.0368,-0.27284 -0.0921,-0.10565 -0.22587,-0.37536 -0.2973,-0.59937 -0.17915,-0.56178 -0.48137,-3.53621 -0.48137,-4.73767 0,-0.77917 -0.0331,-0.97642 -0.15601,-0.92926 -0.0858,0.0329 -0.225,0.0172 -0.30932,-0.0349 -0.12392,-0.0766 -0.11302,-0.1805 0.0568,-0.54197 0.11559,-0.24597 0.24169,-0.47341 0.28023,-0.50541 0.19417,-0.16122 1.05918,-1.9084 1.05918,-2.13936 0,-0.0958 0.0524,-0.20657 0.11636,-0.24612 0.064,-0.0395 0.11637,-0.19333 0.11637,-0.34172 0,-0.14839 0.087,-0.34166 0.19335,-0.4295 0.17885,-0.14773 0.18802,-0.0651 0.12232,1.10121 -0.039,0.6935 -0.11885,1.32188 -0.1773,1.39638 -0.0585,0.0745 -0.142,0.28473 -0.18566,0.46715 -0.0437,0.18242 -0.18427,0.47356 -0.31248,0.64698 -0.29078,0.39329 -0.19734,0.66951 0.47585,1.40683 0.26297,0.288 0.61933,0.70692 0.79194,0.93092 0.1726,0.224 0.37833,0.47554 0.45718,0.55896 0.0789,0.0834 0.33247,0.43658 0.5636,0.78479 0.23114,0.34822 0.5616,0.78444 0.73436,0.96938 0.17276,0.18494 0.44996,0.51252 0.616,0.72795 0.32708,0.42438 1.48549,1.61353 1.57181,1.61353 0.0292,0 0.12196,0.0655 0.20624,0.14546 0.74361,0.70578 1.75083,1.15482 2.93553,1.30871 0.33195,0.0431 0.68952,0.0303 0.79459,-0.0285 0.16532,-0.0925 0.14674,-0.13585 -0.13809,-0.32184 -0.43926,-0.28685 -1.00925,-0.88065 -1.27153,-1.32466 -0.11728,-0.19854 -0.25431,-0.36098 -0.40918,-0.53553 -0.15487,-0.17455 -0.23302,-0.26615 -0.26887,-0.37818 -0.0358,-0.11201 -0.39798,-0.55972 -0.80474,-0.99492 -0.81805,-0.87526 -1.7499,-2.25141 -1.59102,-2.3496 0.056,-0.0346 0.13335,-0.0121 0.17182,0.0502 0.0385,0.0623 0.15092,0.0821 0.24989,0.0441 0.11256,-0.0432 0.30479,0.0676 0.51336,0.29599 0.18338,0.20078 0.35757,0.36505 0.38709,0.36505 0.0295,0 0.40598,0.34036 0.83657,0.75637 0.43059,0.41601 0.8283,0.75638 0.99356,0.930925 0.16526,0.174545 0.36969,0.503055 0.51672,0.876555 0.0386,0.0981 0.30563,0.32729 0.59336,0.50932 0.28773,0.18203 0.58569,0.39252 0.66214,0.46775 0.0765,0.0752 0.34845,0.22075 0.60446,0.32337 0.59016,0.23658 1.66357,0.87381 2.55123,1.51454 0.37916,0.27369 0.89789,0.559958 1.15274,0.636158 0.4034,0.12062 0.52123,0.10903 0.91064,-0.0896 0.41916,-0.21384 0.44728,-0.261248 0.44728,-0.754098 0,-0.77238 -0.35617,-1.35526 -1.61538,-2.64356 -0.61556,-0.62978 -1.13666,-1.19434 -1.15799,-1.25456 -0.0213,-0.0602 -0.0891,-0.10948 -0.15054,-0.10948 -0.0615,0 -0.25293,-0.13091 -0.42548,-0.29091 -0.17256,-0.16001 -0.35532,-0.29092 -0.40613,-0.29092 -0.0948,0 -1.54477,-0.90719 -2.32457,-1.45437 -0.24,-0.16841 -0.43637,-0.38135 -0.43637,-0.4732 0,-0.22921 0.44387,-0.21087 0.89065,0.0368 1.06674,0.59137 2.73542,1.41513 3.2985,1.62835 0.35201,0.13329 1.37311,0.5282 2.26913,0.87759 4.08705,1.59368 4.90121,1.78539 7.12741,1.67829 1.49185,-0.0718 2.10382,-0.22056 2.5294,-0.61497 0.2571,-0.23828 0.29669,-0.65996 0.0747,-0.79614 -0.0747,-0.0458 -2.20896,-0.62347 -3.68056,-0.99616 -1.02321,-0.25913 -1.98587,-0.56087 -2.46266,-0.77191 -0.45713,-0.20233 -1.58493,-0.54306 -2.65741,-0.80285 -1.28859,-0.31214 -1.7681,-0.49139 -3.28453,-1.22784 -0.78247,-0.38001 -1.4763,-0.69093 -1.54184,-0.69093 -0.0655,0 -0.11915,-0.0524 -0.11915,-0.11636 0,-0.21501 1.11796,-0.11894 2.05757,0.17681 0.5123,0.16124 1.26694,0.36691 1.67697,0.45703 0.41004,0.0901 1.40008,0.34533 2.20009,0.56713 1.64822,0.45695 2.47663,0.65243 3.31641,0.78253 0.32,0.0496 0.81746,0.15787 1.10547,0.24065 0.73617,0.21158 4.62966,0.19318 5.40202,-0.0256 0.57447,-0.16268 0.86242,-0.45313 0.44921,-0.45313 -0.12053,0 -0.2689,-0.0489 -0.3297,-0.10868 -0.0608,-0.0598 -1.39347,-0.37213 -2.9615,-0.69413 -3.49117,-0.71692 -4.9465,-1.05265 -5.43634,-1.25412 -0.20595,-0.0847 -0.57685,-0.15402 -0.82424,-0.15402 -0.84703,0 -4.44502,-0.77297 -4.44502,-0.95495 0,-0.0508 -0.0836,-0.0923 -0.18568,-0.0923 -0.10212,0 -0.32467,-0.0935 -0.49455,-0.20783 -0.16988,-0.11431 -0.43979,-0.27446 -0.59979,-0.3559 -0.44826,-0.22814 -0.83928,-0.58214 -0.76887,-0.69607 0.0643,-0.10401 1.67132,0.203 2.63072,0.50257 1.03456,0.32304 3.21783,0.68912 4.13096,0.69266 2.07691,0.008 6.23857,-0.29721 8.08739,-0.59321 1.21902,-0.19517 1.68961,-0.31798 2.38548,-0.62255 0.25601,-0.11205 0.7142,-0.31196 1.0182,-0.44426 0.31095,-0.13532 0.55274,-0.31779 0.55274,-0.41714 0,-0.38574 -2.21997,-0.73408 -6.40009,-1.00428 -2.38865,-0.1544 -2.23677,-0.12821 -5.35281,-0.92315 -1.16941,-0.29833 -2.91242,-0.69918 -3.84005,-0.88312 -1.42675,-0.2829 -2.42164,-0.5221 -3.62465,-0.87147 -0.66248,-0.1924 -1.62343,-0.46178 -2.13543,-0.59862 -0.51201,-0.13685 -0.94838,-0.29255 -0.96971,-0.346 -0.0213,-0.0534 -0.13987,-0.0972 -0.2634,-0.0972 -0.12354,0 -0.31554,-0.0474 -0.42668,-0.1054 -0.11113,-0.058 -0.54242,-0.24821 -0.95843,-0.42276 -2.06781,-0.86764 -3.43065,-1.62221 -4.34406,-2.40516 -0.77677,-0.66583 -0.89128,-0.78054 -1.29966,-1.30187 -0.87802,-1.12089 -0.70051,-1.03868 -2.03615,-0.94308 -1.19487,0.0855 -1.49324,0.20324 -1.65904,0.65457 -0.0488,0.1328 -0.0902,0.13025 -0.24357,-0.015 -0.29209,-0.2766 -0.30118,-0.95127 -0.0179,-1.32554 0.13462,-0.17785 0.3985,-0.23939 1.36359,-0.31804 1.33365,-0.10868 3.13699,-0.50594 3.58215,-0.78913 0.74956,-0.47682 1.39532,-1.39972 1.39595,-1.99503 4.4e-4,-0.43394 -0.46123,-1.28449 -1.02952,-1.89668 -0.39885,-0.42966 -1.92931,-1.58797 -2.09816,-1.58797 -0.0715,0 -0.37875,0.12531 -0.68279,0.27847 -0.93894,0.47297 -1.34957,0.63159 -1.83281,0.70796 -0.25601,0.0405 -0.77965,0.14429 -1.16366,0.23072 -0.384,0.0864 -1.09092,0.21895 -1.57093,0.29447 -2.13848,0.33649 -2.63039,0.52864 -3.24985,1.26952 -0.21939,0.2624 -0.44194,0.47709 -0.49455,0.47709 -0.19436,0 -0.0875,-0.8977 0.16617,-1.39532 0.40363,-0.79195 0.66696,-0.90132 3.22914,-1.34107 2.4375,-0.41835 3.20168,-0.61877 4.24733,-1.11395 0.98893,-0.46832 1.32254,-0.87087 1.17626,-1.41931 -0.0982,-0.36834 -0.1606,-0.43443 -1.00171,-1.06154 l -0.75638,-0.56394 -1.16197,0.0698 c -1.62414,0.0975 -3.23347,-0.17187 -3.02658,-0.50663 0.12369,-0.20014 2.32408,-0.49078 4.41735,-0.58348 2.35315,-0.1042 2.52858,-0.13679 4.25126,-0.78971 2.05544,-0.77905 2.90913,-1.46833 2.90913,-2.34887 0,-0.37889 0.12897,-0.37568 -1.85104,-0.0461 -0.53807,0.0896 -1.55917,0.19454 -2.26912,0.23327 -1.51872,0.0828 -2.64379,-0.12611 -3.38539,-0.62875 l -0.46546,-0.31547 2.73458,-0.0625 c 1.95658,-0.0447 2.98288,-0.11863 3.60732,-0.25995 0.48001,-0.10863 1.60584,-0.3343 2.50186,-0.50149 0.89601,-0.16718 1.9321,-0.42694 2.30243,-0.57723 1.24495,-0.50525 2.06459,-1.36727 2.2298,-2.34508 l 0.0812,-0.4804 -0.44486,0.10875 c -2.59028,0.63327 -5.99117,0.85839 -7.77586,0.51472 -1.6889,-0.32522 -3.01302,-0.75503 -3.22146,-1.04569 -0.14859,-0.20722 0.0187,-0.27251 0.4571,-0.17839 2.00546,0.43058 7.83534,0.39395 9.38971,-0.059 0.32411,-0.0944 1.06058,-0.30663 1.63658,-0.47151 0.57601,-0.16489 1.20439,-0.3692 1.39639,-0.45403 0.192,-0.0848 0.55855,-0.22003 0.81456,-0.30045 0.94114,-0.29564 2.80743,-1.11198 3.40813,-1.49075 l 0.26627,-0.16789 -0.23718,-0.22096 c -0.32276,-0.3007 -0.29784,-0.44464 0.077,-0.44464 0.4476,0 0.22619,-0.17506 -0.66129,-0.52286 -0.89403,-0.35037 -1.21287,-0.35996 -2.27345,-0.0684 -0.90184,0.2479 -2.50465,0.53269 -3.66742,0.65165 -1.18212,0.12093 -3.60308,-0.40105 -3.60308,-0.77686 0,-0.0539 0.48437,-0.10082 1.07638,-0.10422 2.65517,-0.0153 5.25464,-0.4417 7.82557,-1.28383 1.12012,-0.3669 3.81547,-1.50795 3.7401,-1.58333 -0.0249,-0.0249 -0.79812,0.0668 -1.71818,0.20389 -1.3731,0.20457 -1.98557,0.23743 -3.4183,0.18338 -1.72552,-0.0651 -2.26912,-0.13746 -2.26912,-0.30205 0,-0.0942 2.25664,-0.4629 5.0037,-0.81749 0.99201,-0.12805 2.06548,-0.30416 2.38549,-0.39135 1.25407,-0.3417 3.34376,-1.26234 4.88258,-2.15107 0.38662,-0.22329 1.20041,-0.6586 1.80842,-0.96736 1.20761,-0.61324 1.17256,-0.64262 -0.46546,-0.39017 -0.60801,0.0937 -1.47796,0.17131 -1.93323,0.17246 -0.45528,10e-4 -1.08365,0.0506 -1.39639,0.1099 -0.31274,0.0593 -1.51117,0.2174 -2.66319,0.35131 -2.07805,0.24155 -3.66111,0.52285 -5.00371,0.88911 -0.384,0.10475 -1.01237,0.25761 -1.39638,0.33968 -0.384,0.0821 -1.22183,0.29127 -1.86184,0.46489 -2.02232,0.54858 -2.90973,0.73436 -4.96016,1.03837 -0.68006,0.10083 -1.72735,0.3328 -2.32731,0.51549 -0.59996,0.18268 -1.69303,0.44581 -2.42904,0.58472 -1.92163,0.36269 -3.37678,0.70595 -3.79946,0.89629 -0.20167,0.0908 -0.41778,0.16513 -0.48023,0.16513 -0.12873,0 -1.83931,0.65417 -2.14791,0.82141 -0.11113,0.0602 -0.26168,0.10951 -0.33455,0.10951 -0.13209,0 -1.19237,0.42842 -1.96524,0.79408 -0.35862,0.16968 -2.34033,1.50834 -3.14186,2.12237 -0.16001,0.12257 -0.65747,0.4415 -1.10547,0.70874 -0.44801,0.26724 -0.84075,0.52258 -0.87275,0.56743 -0.032,0.0448 -0.52946,0.33125 -1.10546,0.63645 -2.42239,1.28351 -2.84514,1.52478 -3.89824,2.22488 -0.608011,0.40419 -1.325063,0.93298 -1.593452,1.17508 -0.268388,0.2421 -0.933054,0.80673 -1.477034,1.25474 -0.543979,0.44801 -0.992035,0.87565 -0.995678,0.95032 -0.0037,0.0747 -0.0459,0.15321 -0.0939,0.17454 -0.048,0.0213 -0.480006,0.50835 -0.960013,1.08226 -0.480007,0.57391 -1.095039,1.25122 -1.366739,1.50515 -0.271699,0.25394 -0.843085,0.79239 -1.269746,1.19657 -0.426661,0.40418 -0.815902,0.73488 -0.864981,0.73488 -0.04908,0 -0.16824,0.079 -0.264804,0.17557 -0.09656,0.0966 -0.481031,0.20749 -0.854373,0.24651 -0.710877,0.0743 -2.012178,-0.12785 -2.012178,-0.31259 0,-0.0587 0.333307,-0.10173 0.740681,-0.0956 0.407375,0.006 0.865564,-0.054 1.018197,-0.1336 0.717841,-0.3743 2.970385,-2.54893 4.428534,-4.27534 0.913801,-1.08192 1.357484,-1.54688 1.971011,-2.06554 1.811718,-1.53159 3.573625,-2.84862 3.810835,-2.84862 0.0623,0 0.13079,-0.0423 0.15213,-0.094 0.0213,-0.0517 0.51006,-0.34713 1.08607,-0.65654 1.78878,-0.96083 4.12614,-2.38014 5.64149,-3.42568 2.47899,-1.7104 2.25098,-1.59536 5.82049,-2.93668 2.30693,-0.86688 3.57571,-1.22412 5.71256,-1.60843 0.74188,-0.13342 1.84153,-0.39614 2.44367,-0.58382 0.60215,-0.18767 1.93264,-0.46846 2.95666,-0.62397 1.0538,-0.16002 3.17491,-0.62241 4.88734,-1.06541 3.52176,-0.91107 5.22828,-1.27054 6.92374,-1.45844 3.46153,-0.38364 4.44057,-0.5615 4.93406,-0.89636 0.26231,-0.17798 0.58165,-0.41959 0.70965,-0.5369 0.54888,-0.50305 2.25457,-1.54313 3.9711,-2.42147 2.43412,-1.24554 3.7401,-2.04425 6.16803,-3.77223 0.26445,-0.1882 0.59795,-0.42074 0.74111,-0.51674 0.34443,-0.23097 2.25282,-1.74626 2.32722,-1.84786 0.032,-0.0437 0.7651,-0.64959 1.62911,-1.34643 3.0117,-2.42898 3.74015,-3.27258 4.70545,-5.44928 0.16405,-0.36991 0.29826,-0.71984 0.29826,-0.77763 0,-0.17958 0.46775,-0.26372 0.64559,-0.11612 0.25227,0.20936 0.20408,0.88513 -0.12827,1.79903 -0.16293,0.448 -0.33975,0.94959 -0.39294,1.11463 -0.176,0.54615 -1.16975,2.44431 -1.78364,3.40692 -3.01382,4.72588 -4.79419,6.72824 -7.37457,8.29407 -0.11946,0.0725 -0.18066,0.17014 -0.13599,0.21698 0.0447,0.0468 0.54213,-0.10193 1.10547,-0.33058 0.56334,-0.22867 1.26538,-0.49599 1.56009,-0.59405 0.29471,-0.0981 0.73981,-0.26633 0.98911,-0.37395 0.24929,-0.10761 0.76745,-0.31022 1.15145,-0.45024 1.01288,-0.36935 2.92462,-1.1724 3.66551,-1.53975 2.43025,-1.20497 9.50066,-5.5045 10.82197,-6.58085 0.096,-0.0782 0.35782,-0.25695 0.58183,-0.39721 0.224,-0.14025 0.56437,-0.39111 0.75637,-0.55745 0.19201,-0.16635 0.57504,-0.49568 0.85119,-0.73185 0.27614,-0.23616 0.72124,-0.62624 0.9891,-0.86684 0.51105,-0.45903 0.84263,-0.51445 1.05461,-0.17625 0.0961,0.15332 0.0744,0.29099 -0.0918,0.58182 -0.3601,0.63007 -1.43053,2.22652 -1.65989,2.47555 -0.11788,0.128 -0.39714,0.4682 -0.62057,0.75599 -0.22343,0.28779 -0.49346,0.62816 -0.60007,0.75637 -0.10662,0.12822 -0.38545,0.46876 -0.61964,0.75676 -0.45871,0.56411 -2.8055,2.97714 -3.45173,3.54915 -0.81712,0.72328 -1.68137,1.42393 -2.01852,1.63643 -0.192,0.12102 -0.37527,0.24864 -0.40727,0.28359 -0.0685,0.0749 -0.65666,0.46275 -2.95449,1.800425 -2.29783,1.337675 -3.88936,1.979415 -8.74023,3.396685 -0.83201,0.24309 -1.42247,0.45969 -1.31215,0.48133 0.11033,0.0216 0.73871,-0.0387 1.39639,-0.13418 0.65768,-0.0954 1.79797,-0.23472 2.53398,-0.30948 3.68104,-0.37395 6.87335,-1.08357 11.72381,-2.60612 0.528,-0.16574 1.37996,-0.4298 1.89322,-0.58681 0.51326,-0.157 0.9774,-0.31276 1.0314,-0.34614 0.14854,-0.0918 5.06765,-1.64017 7.08287,-2.22944 4.59682,-1.34416 6.78825,-2.14177 8.97536,-3.26676 0.66444,-0.34176 1.29281,-0.62058 1.39639,-0.6196 0.33998,0.003 0.51545,0.20284 0.50488,0.57441 -0.0217,0.76189 -2.36859,3.54168 -4.02049,4.76201 -1.69906,1.25517 -5.23091,3.50556 -5.50177,3.50556 -0.0252,0 -0.58253,0.26184 -1.23838,0.58187 -2.65809,1.29704 -6.04857,2.22496 -10.40913,2.84881 -1.13891,0.16294 -2.69912,0.39665 -3.46713,0.51935 -0.76802,0.12271 -2.44368,0.30539 -3.72369,0.40597 -1.28002,0.10058 -2.56295,0.20317 -2.85095,0.228 -0.28801,0.0248 2.33021,0.0259 5.81826,0.002 3.48805,-0.0236 6.65609,-0.0909 7.0401,-0.14959 0.384,-0.0587 1.30038,-0.19231 2.03639,-0.2969 1.61246,-0.22913 3.21415,-0.49532 4.04327,-0.67197 0.53883,-0.1148 0.63786,-0.1053 0.84365,0.0809 0.12823,0.11605 0.23315,0.31627 0.23315,0.44493 0,0.44669 -1.07945,1.27129 -2.81397,2.14961 -2.32685,1.17826 -3.47757,1.56971 -7.36799,2.50639 -1.74139,0.41927 -2.28058,0.51707 -4.30551,0.78093 -2.11461,0.27554 -6.37322,0.30552 -8.77917,0.0618 -0.86048,-0.0872 -1.64375,-0.12808 -1.7406,-0.0909 -0.36803,0.14122 3.72065,1.01784 5.80697,1.24501 1.61737,0.17611 4.81029,0.15236 6.13212,-0.0456 0.96497,-0.14453 1.17339,-0.0956 1.27232,0.29854 0.13176,0.525 -0.7854,1.22631 -2.64758,2.02446 -2.32685,0.99732 -3.9572,1.2273 -9.52784,1.34402 -4.41755,0.0926 -4.46228,0.10955 -1.62911,0.61885 1.70531,0.30654 2.3454,0.61661 2.49354,1.2079 0.0974,0.38884 0.0757,0.46502 -0.2204,0.77412 -0.18065,0.18855 -0.56964,0.42692 -0.86443,0.5297 -1.01397,0.35354 -6.47668,0.61876 -8.5042,0.41289 -1.38815,-0.14095 -4.57422,-0.67206 -6.28652,-1.04796 -0.544,-0.11942 -1.00493,-0.20199 -1.02427,-0.18348 -0.13772,0.13182 1.25942,0.57167 2.76975,0.87198 1.62968,0.32403 2.46587,0.54056 5.06189,1.31074 1.48604,0.44088 2.02693,1.01285 1.61587,1.70872 -0.24584,0.41618 -0.85805,0.72751 -2.10919,1.07258 -0.75804,0.20907 -1.23942,0.25085 -2.99763,0.26016 -2.14877,0.0114 -2.85127,-0.0823 -4.62553,-0.61667 -0.368,-0.11084 -0.66909,-0.16268 -0.66909,-0.11522 0,0.0475 0.27491,0.25491 0.61091,0.461 1.19445,0.7326 1.7499,1.35441 1.89347,2.11968 0.11281,0.60133 -0.18484,1.0292 -1.0382,1.49241 -0.68044,0.36935 -0.77241,0.38724 -2.22256,0.43214 -1.704,0.0528 -2.40767,-0.0735 -5.12007,-0.91854 -3.09079,-0.96297 -4.62575,-1.52027 -6.06042,-2.20037 -0.81011,-0.38403 -1.50088,-0.69824 -1.53503,-0.69824 -0.10576,0 0.46526,0.46283 0.89923,0.72886 0.22687,0.13907 0.46486,0.29473 0.52886,0.34591 0.064,0.0512 0.53957,0.40332 1.05683,0.78253 1.72565,1.26511 2.95777,2.83427 2.95777,3.76686 0,0.89574 -0.84343,1.42031 -2.5917,1.61193 -1.10062,0.12062 -1.26021,0.11114 -2.12109,-0.12603 -0.51201,-0.14105 -1.78185,-0.66943 -2.82186,-1.17418 -1.04002,-0.50474 -1.89094,-0.89195 -1.89094,-0.86045 0,0.0315 0.15836,0.22461 0.3519,0.42914 0.19354,0.20454 0.48816,0.64776 0.65471,0.98494 0.25727,0.52085 0.29086,0.70323 0.22332,1.21241 -0.0894,0.67397 -0.442,1.34249 -1.04398,1.9794 -0.46554,0.49256 -0.7579,0.65729 -1.81506,1.02269 -0.41601,0.14379 -0.79732,0.29889 -0.84735,0.34468 -0.11075,0.10133 0.35614,0.58431 1.13826,1.17749 0.83273,0.63157 5.17881,2.77878 6.51646,3.21951 1.8878,0.622 2.32313,0.75332 3.78187,1.14082 0.86401,0.22952 1.78039,0.46067 2.03639,0.51368 2.14822,0.44474 4.09631,0.88471 5.46917,1.23519 2.13486,0.545 3.09273,0.70707 4.71279,0.79739 0.73601,0.041 1.75712,0.12398 2.26913,0.18434 0.512,0.0604 1.42838,0.168 2.03639,0.2392 1.26309,0.14792 2.02483,0.31121 2.44367,0.52382 1.23441,0.62664 1.0548,1.6789 -0.40359,2.36442 -1.85155,0.87033 -3.75125,1.25893 -7.6838,1.57177 l -1.74548,0.13886 1.3382,0.20625 c 0.73601,0.11344 1.86185,0.31314 2.50186,0.44379 3.05567,0.62379 3.85118,0.93425 4.13219,1.61266 0.1321,0.31891 0.12259,0.39703 -0.0816,0.67052 -0.31245,0.41849 -1.27863,0.79187 -2.50875,0.96949 -1.00162,0.14463 -1.22699,0.25329 -0.80387,0.38758 0.37614,0.11938 0.73372,0.6084 0.7986,1.09212 0.16297,1.215 -1.0792,1.93587 -3.57296,2.0735 -2.03321,0.11222 -4.57197,-0.46145 -7.06792,-1.59713 -0.79157,-0.36016 -0.96899,-0.25594 -0.42528,0.24982 0.76068,0.70759 1.27537,1.80146 1.39752,2.97018 0.0696,0.665778 0.054,0.730488 -0.26065,1.080388 -0.40821,0.45398 -1.36568,0.71791 -2.06904,0.57035 z m -3.67382,-28.660138 c 0.92138,-0.32508 0.95857,-0.42753 0.51064,-1.4068 -0.45206,-0.9883 -2.82205,-3.29788 -4.34022,-4.22957 -0.35931,-0.22051 -0.67947,-0.43029 -0.71147,-0.46619 -0.032,-0.0359 -0.38433,-0.34405 -0.78294,-0.68478 l -0.72477,-0.61953 -0.86651,0.41678 c -0.47659,0.22923 -1.19773,0.50103 -1.60254,0.604 -0.40482,0.10297 -0.7884,0.22072 -0.8524,0.26165 -0.064,0.0409 -0.56146,0.13011 -1.10547,0.19815 l -0.9891,0.12371 0.49379,0.23548 c 1.07484,0.51258 1.44624,1.5035 0.99968,2.66722 -0.0445,0.11604 0.0217,0.16628 0.21918,0.16628 0.51079,0 2.90288,0.91214 3.06037,1.16697 0.0384,0.0622 0.16715,0.11305 0.28604,0.11305 0.11889,0 0.23362,0.0393 0.25495,0.0873 0.07,0.15752 2.50792,1.28881 3.22647,1.49723 0.65591,0.19024 2.21141,0.1206 2.9243,-0.13092 z m 9.96881,-3.21724 c 0.72977,-0.10854 0.96686,-0.19678 1.22659,-0.45651 0.17708,-0.17708 0.32196,-0.42361 0.32196,-0.54785 0,-0.22169 -1.07876,-1.42113 -1.27815,-1.42113 -0.0559,0 -0.1708,-0.0668 -0.25538,-0.14848 -0.41578,-0.40147 -3.40868,-2.06618 -4.22702,-2.35114 -1.15295,-0.40149 -3.74795,-1.4566 -4.56629,-1.85663 -0.3357,-0.1641 -0.65861,-0.29836 -0.71759,-0.29836 -0.059,0 -0.1247,-0.0393 -0.14603,-0.0873 -0.0213,-0.048 -0.38126,-0.26309 -0.79984,-0.47798 l -0.76104,-0.3907 -1.45311,0.36161 c -0.79921,0.19888 -1.56104,0.36161 -1.69295,0.36161 -0.22135,0 -0.23926,0.0666 -0.23226,0.86355 0.006,0.66232 -0.0392,0.91528 -0.19331,1.08554 -0.11049,0.1221 -0.2009,0.27979 -0.2009,0.35044 0,0.0706 -0.10473,0.16169 -0.23273,0.20232 -0.128,0.0406 -0.23273,0.12182 -0.23273,0.18043 0,0.11235 0.90354,0.59948 1.39486,0.75201 0.15916,0.0494 0.47335,0.21156 0.69819,0.36032 0.9378,0.62044 2.88938,1.34481 7.33254,2.72162 2.91124,0.90212 4.17791,1.06986 6.01519,0.7966 z m 7.72335,-3.76495 c 0.9703,-0.19276 1.85441,-0.60174 1.85441,-0.85783 0,-0.24868 -0.53372,-0.51922 -1.62912,-0.82578 -0.48,-0.13434 -1.13456,-0.31771 -1.45456,-0.40748 -0.59364,-0.16654 -1.57724,-0.40379 -4.09179,-0.98698 -1.34716,-0.31243 -2.40112,-0.74333 -3.21755,-1.31546 -0.20393,-0.1429 -0.39695,-0.2906 -0.42895,-0.3282 -0.22571,-0.26529 -2.25923,-1.16471 -3.14187,-1.38964 -0.224,-0.0571 -0.78593,-0.23675 -1.24874,-0.39927 -0.46281,-0.1625 -0.88886,-0.29547 -0.9468,-0.29547 -0.0579,0 -0.60623,-0.23564 -1.21842,-0.52364 -0.6122,-0.28801 -1.14178,-0.52365 -1.17686,-0.52365 -0.0351,0 -0.0641,0.22255 -0.0644,0.49456 -3.6e-4,0.272 -0.0531,0.68333 -0.11718,0.91405 -0.11604,0.41774 -0.22876,0.57656 -1.00843,1.42089 -0.2255,0.2442 -0.39163,0.45366 -0.36916,0.46546 0.0225,0.0118 0.15867,0.0873 0.30267,0.1679 0.14401,0.0805 0.26183,0.098 0.26183,0.0388 0,-0.0592 -0.0655,-0.13103 -0.14546,-0.1596 -0.08,-0.0286 -0.11194,-0.0883 -0.071,-0.13267 0.0748,-0.0811 1.05404,0.32196 1.38008,0.56807 0.096,0.0725 0.48873,0.25566 0.87274,0.40709 0.68515,0.27018 1.4611,0.61234 2.96731,1.30842 0.41601,0.19225 0.91347,0.42144 1.10547,0.5093 0.60765,0.27807 3.78107,1.32909 4.93834,1.63554 1.85368,0.49087 4.78354,0.5859 6.64744,0.21561 z m 6.15992,-4.13143 c 1.71966,-0.10563 2.67979,-0.29932 2.76601,-0.55801 0.05,-0.14989 -0.0359,-0.17301 -2.00963,-0.54122 -3.01442,-0.56236 -3.55723,-0.69042 -5.17825,-1.22159 -0.35201,-0.11534 -1.03275,-0.2973 -1.51275,-0.40434 -1.86776,-0.41653 -2.39395,-0.54515 -2.61822,-0.64002 -0.128,-0.0541 -0.46837,-0.16075 -0.75638,-0.23692 -1.34708,-0.35626 -5.6921,-2.28553 -5.79887,-2.57481 -0.0213,-0.0578 -0.086,-0.10509 -0.14371,-0.10509 -0.0577,0 -0.36916,-0.16259 -0.69213,-0.36132 l -0.58722,-0.36132 -0.28979,0.28979 c -0.33631,0.33631 -2.21183,1.27556 -3.31025,1.65775 -0.416,0.14475 -0.99001,0.36454 -1.27557,0.48843 l -0.51919,0.22525 0.69005,0.31592 c 0.74566,0.34138 1.72552,0.68415 3.37383,1.18024 0.57601,0.17336 1.46621,0.46185 1.97822,0.6411 2.94276,1.03018 3.74483,1.25629 5.76648,1.6256 1.57176,0.28712 3.1701,0.55779 3.6591,0.61963 0.72445,0.0916 4.72471,0.0674 6.45827,-0.0391 z m 5.0619,-3.60313 c 3.27305,-0.11087 4.39655,-0.26467 5.93463,-0.81244 1.12414,-0.40036 1.80366,-0.68683 1.80366,-0.76039 0,-0.0299 -0.7266,-0.0214 -1.61467,0.019 -1.69,0.0769 -3.86711,-0.074 -5.5418,-0.38403 -1.46749,-0.27169 -5.18662,-1.17933 -6.86555,-1.67552 -0.192,-0.0567 -1.10838,-0.30881 -2.03639,-0.56014 -3.5607,-0.96432 -4.96223,-1.38152 -5.55518,-1.65362 -0.2713,-0.1245 -0.52291,-0.22637 -0.55912,-0.22637 -0.0362,0 -0.28551,-0.0993 -0.554,-0.2207 -0.26849,-0.12139 -1.1681,-0.49172 -1.99913,-0.82296 -0.83102,-0.33125 -1.57371,-0.65436 -1.65041,-0.71801 -0.12388,-0.10281 -0.6336,0.11718 -0.85323,0.36824 -0.12405,0.1418 -2.36549,1.17561 -3.05459,1.40885 -0.55449,0.18768 -0.55147,0.28552 0.0116,0.37556 0.55511,0.0888 0.9769,0.41062 1.22596,0.93547 0.15364,0.32376 0.38828,0.50082 1.20751,0.91116 0.55924,0.28011 1.1532,0.5992 1.31989,0.70907 0.68063,0.44862 2.38564,1.0544 5.34064,1.89749 1.17761,0.33598 4.58968,1.02864 5.81826,1.18112 1.15696,0.14359 3.91452,0.1538 7.62193,0.0282 z m 7.56115,-4.8317 c 2.31728,-0.33824 2.99318,-0.48047 6.11177,-1.28605 1.04534,-0.27003 1.68974,-0.48133 2.96731,-0.973 0.38696,-0.14892 3.20003,-1.56159 3.16981,-1.59182 -0.0155,-0.0155 -0.28991,0.0216 -0.60986,0.0825 -0.31996,0.0608 -1.62903,0.26343 -2.90904,0.45024 -3.39546,0.49557 -7.05107,0.62398 -15.68735,0.55108 -6.9403,-0.0586 -8.44602,-0.13081 -10.08756,-0.48387 -0.41601,-0.0895 -1.22766,-0.24704 -1.80366,-0.35016 -2.53105,-0.4531 -3.61157,-0.77735 -4.61056,-1.38354 -0.17468,-0.106 -0.54798,0.0335 -1.96408,0.73413 -0.276,0.13655 -0.28794,0.46869 -0.0168,0.46869 0.12812,0 0.31149,0.0785 0.40749,0.17455 0.096,0.096 0.26993,0.17569 0.3865,0.1771 0.11658,0.001 0.4476,0.10951 0.7356,0.24022 0.81651,0.37059 4.43234,1.54264 5.90843,1.91518 1.13747,0.28708 2.30936,0.49148 5.96083,1.03966 2.99757,0.45001 3.59685,0.49373 6.98191,0.50931 2.72067,0.0125 3.31625,-0.0197 5.0593,-0.27418 z m -11.05211,-4.59614 c 7.28469,-0.28099 9.06118,-0.41408 12.50927,-0.9372 0.86401,-0.13109 2.25167,-0.33903 3.08368,-0.46209 0.83201,-0.12306 1.74838,-0.27237 2.03639,-0.3318 0.288,-0.0594 0.78546,-0.16228 1.10547,-0.22856 0.59116,-0.12245 1.37098,-0.32847 2.47276,-0.65328 0.33601,-0.099 0.8737,-0.25416 1.19489,-0.34467 0.32118,-0.0905 0.98882,-0.33079 1.48365,-0.53392 0.97972,-0.4022 3.96522,-1.84154 4.15604,-2.00368 0.1079,-0.0917 2.04969,-1.38672 2.49129,-1.66152 0.10284,-0.064 0.21317,-0.14648 0.24517,-0.18328 0.032,-0.0368 0.39856,-0.29223 0.81456,-0.56762 0.93217,-0.61707 3.32195,-3.01381 3.16327,-3.17249 -0.0704,-0.0704 -0.27537,-0.008 -0.56077,0.16959 -0.24735,0.15434 -0.86497,0.45223 -1.37248,0.66199 -0.50751,0.20975 -1.00497,0.42361 -1.10547,0.47525 -0.40381,0.20746 -3.73957,1.27037 -5.53553,1.76386 -2.1524,0.59141 -3.37337,0.96867 -5.52736,1.70785 -0.92801,0.31846 -2.5513,0.84902 -3.60732,1.17901 -1.05601,0.32999 -2.23421,0.70133 -2.61822,0.82518 -2.31325,0.74612 -5.92142,1.57688 -8.0292,1.84869 -2.94219,0.37941 -5.35819,0.69476 -6.80737,0.88853 -1.83199,0.24496 -5.21016,0.33477 -6.16736,0.16395 -0.416,-0.0742 -1.43711,-0.17619 -2.26912,-0.22657 -1.45489,-0.0881 -1.5339,-0.081 -2.06549,0.18559 -0.60932,0.30558 -0.6872,0.44923 -0.29091,0.53661 0.144,0.0317 0.57601,0.14467 0.96001,0.25093 2.62276,0.72574 4.75698,0.86114 10.24015,0.64965 z m -4.77098,-2.91178 c 0.44801,-0.0652 1.25966,-0.16903 1.80366,-0.23064 1.07906,-0.12222 1.88494,-0.28735 3.66551,-0.7511 1.51387,-0.39429 3.83684,-1.0897 4.29457,-1.28564 0.19802,-0.0848 0.64805,-0.26962 1.00005,-0.41077 1.16432,-0.46688 2.36552,-1.06874 4.00658,-2.0075 1.60689,-0.91922 2.86328,-1.68707 2.97534,-1.81841 0.032,-0.0375 0.39754,-0.3562 0.81232,-0.7082 0.92606,-0.78591 0.9121,-0.77309 2.11001,-1.93864 0.92765,-0.90259 1.60918,-1.64319 2.6192,-2.8462 0.74152,-0.88322 0.8587,-1.03342 0.80615,-1.03342 -0.0644,0 -1.96501,1.29429 -2.04217,1.3907 -0.0981,0.1226 -2.09092,1.2857 -2.20286,1.2857 -0.0578,0 -0.1225,0.0458 -0.14384,0.10181 -0.048,0.12611 -1.57094,1.06184 -1.72813,1.06184 -0.0629,0 -0.11432,0.0439 -0.11432,0.0977 0,0.0537 -0.20886,0.1977 -0.46412,0.32 -0.25527,0.1223 -0.46473,0.26163 -0.46547,0.30963 -8.8e-4,0.048 -0.0553,0.0873 -0.12119,0.0873 -0.0659,0 -0.60266,0.29664 -1.19275,0.65919 -1.8167,1.11622 -3.9104,2.12418 -6.3675,3.0655 -1.51529,0.5805 -1.68346,0.63655 -3.49096,1.16341 -0.92801,0.27051 -1.79202,0.53645 -1.92003,0.59099 -0.21722,0.0926 -1.88551,0.5863 -2.68001,0.79316 -0.19398,0.0505 -0.79618,0.30704 -1.3382,0.57007 -0.54202,0.26303 -1.12102,0.4952 -1.28666,0.51592 -0.16564,0.0207 -0.43871,0.12781 -0.60682,0.23796 -0.16811,0.11015 -0.35987,0.20027 -0.47533,0.306489 -0.11546,0.10622 -0.16285,0.140441 -0.27489,0.176641 -0.112,0.0362 -0.35193,0.18483 -0.53318,0.33031 l -0.32954,0.26452 1.43501,-0.0898 c 0.78926,-0.0494 1.80157,-0.1432 2.24957,-0.20842 z m -5.87645,-1.52032 c 0.83504,-0.13429 2.09767,-0.28921 3.25823,-0.39976 0.67782,-0.0646 1.33208,-0.24769 1.87682,-0.52532 2.2101,-1.12637 4.41018,-2.31186 4.81419,-2.59406 0.35119,-0.24532 1.14685,-0.95196 1.92242,-1.70734 0.50792,-0.49469 1.74221,-1.9601 1.74531,-2.0721 0.001,-0.0444 0.18451,-0.28954 0.40728,-0.54484 0.22278,-0.25531 0.40505,-0.50959 0.40505,-0.56508 0,-0.0555 0.15709,-0.29924 0.3491,-0.54167 0.192,-0.24242 0.34909,-0.49869 0.58182,-0.866715 0.23273,-0.368025 0.41601,-0.694635 0.64001,-1.027255 0.22401,-0.33263 0.40728,-0.65191 0.40728,-0.70953 0,-0.0576 -0.2525,0.12497 -0.56111,0.40573 -0.3086,0.28076 -0.66234,0.58902 -0.78608,0.68502 -0.47234,0.36646 -2.71302,2.21486 -2.86115,2.36025 -0.0855,0.0839 -0.52191,0.42405 -0.96991,0.75598 -0.44801,0.33192 -0.87138,0.65074 -0.94082,0.7085 -0.0694,0.0577 -0.61926,0.43506 -1.22183,0.83848 -0.60257,0.40341 -1.12389,0.7744 -1.15848,0.82441 -0.0346,0.05 -0.50587,0.35464 -1.04728,0.67695 -0.54142,0.3223 -1.10863,0.67734 -1.26047,0.78895 -0.31684,0.23292 -6.38383,3.36467 -6.88039,3.55163 -0.29641,0.1116 0.48352,0.0859 1.28001,-0.0422 z m -32.175,55.5162 c -0.0395,-0.064 -0.0401,-0.16782 -0.001,-0.2307 0.0389,-0.0629 -0.33768,-0.54806 -0.83678,-1.07818 -0.72103,-0.76585 -0.94927,-1.09705 -1.11108,-1.61228 -0.25973,-0.82706 -0.26003,-1.92921 -8.8e-4,-2.70069 l 0.2029,-0.60369 c 0.115,1.466653 0.049,3.035929 0.8068,4.34908 0.33592,0.53211 1.0766,1.20675 1.55965,1.42057 0.4918,0.21769 0.47017,0.36894 -0.0391,0.2734 -0.34559,-0.0648 -0.39757,-0.0477 -0.33664,0.11109 0.0779,0.20298 -0.12561,0.26258 -0.24376,0.0714 z m -2.10643,-0.22098 c -0.51928,-0.31665 -1.46772,-1.4453 -1.6982,-2.02087 -0.28885,-0.72133 -0.26296,-1.74404 0.0672,-2.65428 0.53519,-1.47553 0.52828,-1.55094 -0.26923,-2.93539 -0.38837,-0.67419 -0.70613,-1.30055 -0.70613,-1.3919 0,-0.22915 -0.37861,-0.55111 -0.64917,-0.55202 -0.12297,-4.1e-4 -1.3494,-0.18644 -2.72542,-0.4134 -3.753784,-0.61913 -4.551804,-0.74698 -5.061895,-0.81097 -2.344661,-0.29413 -5.449039,-1.04555 -7.331012,-1.77448 -0.576008,-0.22311 -2.568364,-0.91792 -4.427457,-1.54402 -1.859093,-0.62611 -3.744211,-1.31612 -4.189151,-1.53336 -0.769753,-0.37584 -2.185808,-1.30227 -2.60745,-1.7059 -0.108095,-0.10347 -0.402215,-0.36657 -0.6536,-0.58466 -0.251384,-0.21808 -0.569873,-0.49742 -0.707752,-0.62074 -0.162515,-0.14536 -0.809769,-0.34274 -1.840199,-0.56118 -2.666634,-0.5653 -5.248334,-1.55466 -6.985602,-2.67703 -0.320007,-0.20674 -0.791285,-0.51128 -1.047288,-0.67675 -0.651057,-0.4208 -2.547896,-1.77326 -2.618221,-1.8668 -0.03202,-0.0426 -0.398552,-0.33432 -0.814555,-0.64835 -0.416008,-0.31404 -0.782555,-0.5996 -0.814556,-0.63459 -0.03202,-0.035 -0.581828,-0.41292 -1.221837,-0.83987 -1.357791,-0.90576 -1.970708,-1.13373 -2.40634,-0.89501 -0.530367,0.29063 -1.804154,1.43234 -2.144498,1.92213 -0.382195,0.55002 -0.543261,0.55811 -0.388797,0.0195 0.230779,-0.80469 1.668276,-2.4325 2.557585,-2.89621 0.560185,-0.29209 1.691577,-0.37425 2.618221,-0.19014 0.426273,0.0847 0.510623,0.0583 0.927806,-0.29091 0.252395,-0.21124 0.600202,-0.53526 0.772905,-0.72003 0.356041,-0.38093 0.681779,-0.3472 0.680569,0.0705 -0.0018,0.60994 -1.196993,1.8264 -1.889054,1.92261 -0.243058,0.0338 -0.504708,0.003 -0.592532,-0.07 -0.08651,-0.0718 -0.189957,-0.0979 -0.2299,-0.0579 -0.08721,0.0872 0.250614,0.35274 0.987637,0.77627 0.299476,0.1721 0.613665,0.38078 0.698191,0.46375 0.08453,0.083 0.886789,0.70248 1.782801,1.37668 4.33835,3.26443 6.403621,4.2539 10.763788,5.15692 0.480007,0.0994 1.24553,0.18079 1.701162,0.18084 l 0.828423,10e-5 0.07213,-0.43637 c 0.03967,-0.24 0.0727,-0.60275 0.07341,-0.80611 0.002,-0.57496 0.439811,-0.85209 1.346149,-0.85209 0.724172,0 0.73284,-0.004 0.847248,-0.37819 0.06358,-0.208 0.149992,-0.58221 0.192037,-0.83157 0.153427,-0.90994 0.691905,-1.43919 1.735899,-1.70616 0.810816,-0.20734 0.781177,-0.11389 0.596752,-1.88153 -0.0903,-0.86544 -0.08208,-0.9146 0.218829,-1.30911 0.171956,-0.22544 0.38556,-0.4099 0.474676,-0.4099 0.229123,0 0.520354,-0.45542 0.436422,-0.68246 -0.03869,-0.10465 -0.388196,-0.52018 -0.776686,-0.9234 -0.388491,-0.40321 -0.754522,-0.8922 -0.813403,-1.08665 -0.05888,-0.19445 -0.229064,-0.43349 -0.378187,-0.5312 -0.33678,-0.22067 -0.343753,-0.52955 -0.02364,-1.0475 0.175297,-0.28364 0.211282,-0.43664 0.123366,-0.52456 -0.196603,-0.1966 -1.193411,-0.31215 -3.331879,-0.38624 -2.239546,-0.0776 -2.847793,-0.18217 -5.882738,-1.01149 -2.72172,-0.74373 -2.898984,-0.76966 -5.330512,-0.77992 -2.979468,-0.0126 -4.601204,0.27303 -6.135308,1.08047 -0.806226,0.42433 -0.932243,0.53301 -0.966671,0.83367 -0.02177,0.19015 -0.100324,0.38437 -0.17455,0.4316 -0.08185,0.0521 -0.03518,0.0866 0.118554,0.0876 0.139431,8.8e-4 0.324695,0.073 0.411702,0.15997 0.087,0.087 0.391841,0.26722 0.677411,0.40048 0.5657,0.26397 0.778179,0.42348 1.038421,0.77953 0.110923,0.15176 0.0502,0.12635 -0.174546,-0.073 -0.56026,-0.49708 -1.357056,-0.80969 -2.097183,-0.8228 -0.213024,-0.004 -2.06031,0.83754 -2.669353,1.21571 -1.018093,0.63216 -1.4519,1.04797 -1.756237,1.68339 -0.288653,0.60267 -0.323609,0.80719 -0.333817,1.95317 -0.01355,1.52044 0.06024,1.86624 0.522239,2.44759 0.191944,0.24153 0.327334,0.4608 0.300871,0.48726 -0.08518,0.0852 -1.168986,-0.51565 -1.409454,-0.78136 -0.205552,-0.22712 -0.237113,-0.4516 -0.270235,-1.92212 l -0.03751,-1.66497 -0.777053,-0.1345 c -0.833731,-0.14432 -1.616185,-0.56313 -2.385969,-1.27713 -0.480373,-0.44556 -1.358397,-1.65483 -1.358397,-1.87087 0,-0.32524 -0.26939,0.006 -0.457987,0.56306 -0.113932,0.33654 -0.327018,0.73949 -0.473522,0.89544 -0.984351,1.04779 -2.917689,0.27862 -3.757392,-1.49486 -0.330704,-0.69846 -0.42597,-0.76346 -0.707019,-0.48241 -0.272913,0.27291 -0.800935,0.32877 -1.266997,0.13404 -0.505011,-0.21101 -0.967485,-0.89148 -1.274628,-1.87546 -0.118901,-0.38092 -0.237517,-0.71391 -0.263588,-0.73998 -0.02608,-0.0261 -0.202505,0.063 -0.39207,0.19802 -0.815158,0.58044 -2.258574,0.0242 -3.88432,-1.49685 -0.554688,-0.51897 -1.083123,-1.08546 -1.174299,-1.25886 -0.721986,-1.37308 -0.891544,-1.74102 -0.896065,-1.94439 -0.0097,-0.43602 -0.323609,-0.6535 -1.586569,-1.0992 -0.694185,-0.24498 -1.817655,-0.68402 -2.496601,-0.97564 -0.733368,-0.31499 -1.331367,-0.50486 -1.473226,-0.46777 -0.314928,0.0824 -2.310349,-0.774 -3.283802,-1.40928 -1.375659,-0.89777 -1.980779,-1.67083 -4.011314,-5.1246 -0.564407,-0.96002 -1.120326,-1.88291 -1.235375,-2.05088 -0.115049,-0.16796 -0.526184,-0.9352 -0.913635,-1.70496 -1.551147,-3.08174 -2.131017,-5.99093 -1.47126,-7.38126 0.202803,-0.42738 1.148882,-1.48854 1.327105,-1.48854 0.05548,0 0.245587,0.35346 0.422468,0.78547 1.064849,2.60073 1.594837,3.57136 3.161034,5.78917 1.949611,2.76075 4.491235,5.36285 6.387045,6.53903 1.610766,0.99934 3.545494,1.89593 5.467269,2.53366 1.743566,0.5786 4.863285,1.39358 5.818266,1.51996 0.320002,0.0423 0.86983,0.14673 1.221833,0.23198 0.352007,0.0853 1.058925,0.21638 1.570934,0.2914 0.512004,0.075 1.847298,0.36286 2.967312,0.63963 1.120018,0.27678 2.48149,0.58699 3.025499,0.68936 0.544009,0.10237 1.538929,0.33825 2.210939,0.52419 1.590654,0.44011 3.968398,0.88333 5.934629,1.10624 0.864012,0.0979 2.199306,0.25824 2.967317,0.3562 2.845513,0.36293 3.317987,0.40322 6.109175,0.52089 4.187202,0.17653 4.324483,0.19766 8.611034,1.32536 1.651486,0.43447 4.06598,1.28943 5.141793,1.82068 0.799741,0.39492 1.676965,1.02011 2.401171,1.71131 0.08457,0.0807 0.163119,0.1508 0.174548,0.15575 0.03635,0.0157 2.051688,0.30437 3.977199,0.56962 1.724778,0.2376 2.332561,0.4109 1.941599,0.55361 -0.08414,0.0307 -0.200661,0.18126 -0.258942,0.33455 -0.123749,0.32548 -0.199818,0.33118 -1.508109,0.11304 -0.894778,-0.14919 -2.541491,-0.37081 -4.684134,-0.63039 -0.432243,-0.0524 -0.80639,-0.0747 -0.831436,-0.0497 -0.02505,0.025 0.07988,0.18086 0.233162,0.34626 0.352995,0.38089 0.373883,1.04527 0.04597,1.46214 -0.256893,0.32659 -0.31135,0.78281 -0.09344,0.78281 0.07661,0 0.510513,0.39354 0.964232,0.87454 1.021924,1.08336 1.239502,1.6416 0.911404,2.3384 -0.145082,0.30812 -0.355301,0.51855 -0.662552,0.66323 -0.439793,0.20708 -0.448392,0.223 -0.37757,0.69881 0.2118,1.42296 0.217783,1.9035 0.02863,2.29964 -0.183507,0.38433 -0.623293,0.68842 -0.997542,0.68977 -0.09924,3.6e-4 -0.371285,0.0537 -0.604539,0.11845 -0.522292,0.14507 -0.73849,0.56092 -0.84193,1.61944 -0.104362,1.06797 -0.335134,1.28696 -1.356194,1.28696 h -0.777994 l -0.06335,0.61092 c -0.08523,0.82194 -0.284026,1.2162 -0.683442,1.35544 -0.427243,0.14894 -0.41931,0.25366 0.04513,0.59569 0.521911,0.38437 0.557747,0.41207 1.018197,0.78691 0.750968,0.61136 2.744137,1.65475 3.161038,1.65475 0.06611,0 0.285207,0.0764 0.486882,0.16978 0.201675,0.0934 0.733233,0.27233 1.181239,0.39766 0.448006,0.12534 1.652387,0.52543 2.676402,0.8891 5.764266,2.04714 5.824208,2.06179 13.091098,3.19887 0.352,0.0551 1.0851,0.17884 1.62911,0.27502 0.54401,0.0962 1.40625,0.23162 1.91609,0.30095 0.74724,0.10163 0.99038,0.18681 1.25392,0.4393 0.17982,0.17227 0.30001,0.3834 0.31615,0.609345 0.0161,0.225945 0.30066,0.795255 0.581,1.050955 0.0351,0.032 0.14271,0.19975 0.23917,0.37279 0.0965,0.17303 0.3871,0.53958 0.64587,0.81455 0.40002,0.42506 0.86604,1.18728 0.86604,1.41649 0,0.0367 -0.13432,0.0157 -0.29848,-0.0467 -0.44064,-0.16752 -0.45496,-0.15641 -0.49135,0.38124 -0.0184,0.27191 -0.13622,0.8404 -0.26182,1.2633 -0.27589,0.92895 -0.27894,1.05493 -0.0446,1.84403 0.14813,0.4988 0.34896,0.78507 1.0357,1.47628 0.57618,0.57993 0.97172,0.88144 1.22201,0.93149 0.26068,0.0521 0.3243,0.10303 0.21522,0.17218 -0.26392,0.16731 -0.83626,0.11108 -1.21399,-0.11926 z M 56.068045,69.273582 c 0.203587,-0.2036 0.174968,-1.92821 -0.04829,-2.90979 -0.25766,-1.13284 -0.46991,-1.60519 -0.72129,-1.60519 -0.114341,0 -0.257638,-0.0494 -0.318441,-0.10969 -0.0608,-0.0603 -0.320003,-0.16263 -0.57601,-0.22733 -0.256002,-0.0647 -1.041469,-0.27648 -1.745479,-0.47064 -0.70401,-0.19415 -1.318621,-0.35368 -1.365808,-0.3545 -0.183373,-0.003 0.05944,1.8059 0.304354,2.26763 0.135795,0.25601 0.286173,0.48291 0.334174,0.50425 0.048,0.0213 0.08727,0.0896 0.08727,0.15163 0,0.38913 1.679508,2.22433 2.267564,2.47777 0.192859,0.0831 0.481565,0.20707 0.641566,0.27543 0.396943,0.16962 0.970973,0.16983 1.140381,4.3e-4 z m 2.40876,-1.93396 c 0.766264,-0.44137 1.836395,-0.83351 2.302581,-0.84376 l 0.373822,-0.008 -0.506661,-0.22488 c -0.278665,-0.12368 -0.907038,-0.33129 -1.396383,-0.46134 -0.48935,-0.13006 -1.243622,-0.33019 -1.676162,-0.44473 -0.432545,-0.11454 -0.810109,-0.18458 -0.839035,-0.15566 -0.02894,0.0289 0.02947,0.24231 0.129769,0.47419 0.100302,0.23187 0.210148,0.90712 0.24411,1.50055 l 0.06174,1.07896 0.362197,-0.28998 c 0.199206,-0.1595 0.624019,-0.4408 0.944022,-0.62512 z m -8.544042,0.49328 c 0.2721,-0.28963 0.282105,-0.36085 0.282105,-2.0073 0,-0.93885 -0.04064,-1.89807 -0.09034,-2.13159 -0.08851,-0.41601 -0.107321,-0.42847 -0.930919,-0.61656 -0.462324,-0.10559 -1.023864,-0.23922 -1.247866,-0.29695 -1.032624,-0.26615 -0.98794,-0.28066 -1.0001,0.32498 -0.006,0.30121 -0.02366,0.89643 -0.03914,1.32272 -0.04898,1.34946 0.664762,2.91534 1.562876,3.4288 0.631152,0.36083 1.109155,0.35296 1.463375,-0.0241 z m -4.344062,-2.139 c 0.15102,-0.24182 0.376275,-1.91319 0.377881,-2.8038 l 8.79e-4,-0.53031 -0.843648,-0.21324 c -0.464004,-0.11728 -0.893395,-0.25829 -0.954194,-0.31335 -0.0608,-0.055 -0.230986,-0.1001 -0.378189,-0.1001 -0.334574,0 -0.35166,0.32686 -0.0517,0.98911 0.115951,0.256 0.248139,0.62255 0.293751,0.81456 0.174915,0.73635 0.69064,1.94512 0.921745,2.16043 0.305515,0.28463 0.454073,0.28386 0.633404,-0.004 z m 16.303402,-0.71858 c 0.870345,-1.01681 1.492798,-1.26988 4.272894,-1.73729 1.297985,-0.21822 5.467533,-0.0775 6.508373,0.21972 0.448004,0.12792 1.231083,0.34555 1.740171,0.48363 0.509087,0.13808 0.959083,0.27174 0.99999,0.29703 0.08032,0.0496 1.993689,0.45691 2.688477,0.57226 0.303818,0.0504 0.476745,0.0187 0.606725,-0.11125 0.192595,-0.19259 2.248014,-0.39611 4.069022,-0.40289 0.676328,-0.003 0.899034,-0.0409 0.863106,-0.14885 -0.08452,-0.25391 -2.121079,-1.18855 -3.721339,-1.70785 -0.84934,-0.27562 -1.651559,-0.54147 -1.782711,-0.59078 -0.131151,-0.0493 -0.890435,-0.25652 -1.687296,-0.46046 -0.796862,-0.20394 -1.815389,-0.46721 -2.263397,-0.58505 -0.983463,-0.25868 -2.947398,-0.43187 -5.992812,-0.52848 -1.259603,-0.04 -3.278642,-0.19972 -4.538246,-0.35911 -1.248019,-0.15792 -2.949861,-0.36129 -3.781872,-0.45193 -1.890215,-0.20592 -3.159829,-0.43687 -5.236438,-0.95252 -0.896012,-0.2225 -1.969481,-0.47774 -2.385489,-0.56721 -0.416003,-0.0895 -1.280015,-0.27491 -1.920025,-0.41209 -0.640009,-0.13717 -1.451658,-0.32618 -1.803665,-0.42001 -0.869967,-0.2319 -1.926798,-0.4478 -4.130964,-0.84393 -3.110755,-0.55906 -6.750161,-1.5284 -9.076492,-2.4175 -0.797399,-0.30476 -4.015937,-1.90496 -4.285481,-2.13066 -0.07502,-0.0628 -0.398222,-0.30749 -0.718229,-0.5437 -1.207342,-0.89122 -3.479933,-3.1498 -4.429667,-4.40237 -0.240081,-0.31663 -0.480545,-0.59315 -0.534364,-0.61448 -0.05382,-0.0213 -0.09792,-0.0999 -0.098,-0.17455 -7.4e-5,-0.0747 -0.117894,-0.27589 -0.261821,-0.44717 -1.541545,-1.83452 -2.262712,-3.2656 -2.775082,-5.50685 -0.131678,-0.57601 -0.266544,-1.14371 -0.299692,-1.26155 -0.06409,-0.22781 -0.03571,-0.26507 -0.606462,0.79608 -0.221534,0.41188 -0.253776,2.48157 -0.04729,3.03526 0.0696,0.18664 0.217202,0.65353 0.327998,1.03753 0.110796,0.38401 0.247083,0.74794 0.302855,0.80874 0.05578,0.0608 0.101406,0.18128 0.101406,0.26772 0,0.2648 1.269389,2.77511 1.813882,3.58709 0.282386,0.42111 0.513425,0.78389 0.513425,0.80619 0,0.0223 0.268989,0.47638 0.597753,1.00909 0.328768,0.5327 0.822336,1.34594 1.096823,1.80718 0.783848,1.31719 1.549084,2.27662 2.132425,2.6736 1.051835,0.71579 2.485135,1.37961 4.085839,1.89231 3.922857,1.25649 6.331132,2.10294 7.796473,2.74027 0.544009,0.23661 1.381839,0.57565 1.861843,0.75343 0.480008,0.17778 1.160744,0.43012 1.512751,0.56076 0.738329,0.27402 3.841779,1.04895 5.93463,1.48189 0.416003,0.0861 1.070562,0.24126 1.454565,0.34489 0.384008,0.10362 0.914211,0.23523 1.178235,0.29245 0.26402,0.0572 0.840029,0.21279 1.280016,0.34571 0.43999,0.13293 1.061801,0.31777 1.381803,0.41076 0.320003,0.093 0.843649,0.25303 1.163652,0.35564 0.320007,0.10261 1.262563,0.36029 2.094575,0.57263 0.832011,0.21234 1.905485,0.54365 2.385489,0.73624 0.480008,0.19258 0.946264,0.35505 1.036125,0.36103 0.08986,0.006 0.348841,-0.20579 0.575513,-0.4706 z m -19.35602,-2.35981 c 0.113048,-0.53869 0.176318,-1.0556 0.140602,-1.14868 -0.03571,-0.0931 -0.213178,-0.206 -0.394348,-0.25093 -0.375431,-0.0931 -2.870929,-1.06709 -3.162485,-1.23432 -0.290412,-0.16656 -1.302401,-0.57578 -1.423897,-0.57578 -0.130368,0 -0.142972,0.31441 -0.01478,0.36849 0.05057,0.0213 0.27312,0.29829 0.494553,0.61547 1.307433,1.87273 2.880644,3.15952 3.90782,3.19633 0.21744,0.008 0.27158,-0.10832 0.452529,-0.97058 z M 111.327,98.274772 c -0.43867,-0.52133 -0.87587,-1.4917 -1.01693,-2.25711 -0.17633,-0.95681 -0.0237,-2.6332 0.23983,-2.6332 0.098,0 0.4551,0.72012 0.70482,1.42143 0.15598,0.43808 0.46636,0.70913 0.39439,0.34443 -0.0211,-0.10721 -0.0978,-0.56148 -0.17031,-1.00949 -0.18315,-1.13148 -0.31397,-1.44063 -0.84564,-1.99837 l -0.46293,-0.48563 0.38099,-0.61984 c 0.41411,-0.67373 0.76022,-1.02713 1.00596,-1.02713 0.22385,0 0.20776,0.045 -0.30306,0.84809 l -0.4598,0.72285 0.32948,0.34909 c 0.1812,0.192 0.39307,0.47274 0.47081,0.62386 0.13783,0.26792 0.39596,3.26925 0.29027,3.37495 -0.10296,0.10295 -0.5208,-0.37314 -0.71623,-0.8161 -0.10874,-0.24647 -0.24593,-0.44812 -0.30488,-0.44812 -0.0612,0 -0.0881,0.51113 -0.0626,1.19274 0.0421,1.12489 0.0696,1.23743 0.48436,1.97821 0.24189,0.43201 0.4157,0.78547 0.38626,0.78547 -0.0295,0 -0.18459,-0.15576 -0.34478,-0.34613 z M 67.117704,68.553602 c -0.218174,-0.16564 -0.553513,-1.00103 -0.553513,-1.37891 0,-0.20367 -0.05171,-0.22155 -0.436367,-0.15086 -0.666591,0.12249 -0.314443,-0.10592 0.508064,-0.32955 0.932503,-0.25353 3.039529,-0.48551 3.456618,-0.38058 0.579295,0.14576 0.285285,0.3627 -0.541181,0.39933 l -0.776191,0.0344 v 0.39961 c 0,0.59857 -0.334978,1.33562 -0.663847,1.46066 -0.389734,0.14818 -0.753211,0.12838 -0.993583,-0.0541 z m 0.896025,-0.60655 c 0.154746,-0.15475 0.528673,-0.89734 0.528673,-1.0499 0,-0.0734 -1.236122,-0.0491 -1.311021,0.0258 -0.0384,0.0384 -0.02454,0.18239 0.03074,0.32001 0.05529,0.13762 0.131331,0.39421 0.168982,0.57021 0.07689,0.35946 0.304698,0.4118 0.582633,0.13387 z"
       id="path1"
       sodipodi:nodetypes="cssssssssssscsscscscsscssssssccsscssscsssssssssssssssccsssssssscsscccssscsssscssssccssssssscsscssssssssssssssssssssssssssssscssssssssssscssssssssssssssssssssssssscccsscsscsccssssccscssssccsssccsssscsssssscsssssssssscsssccsssssssssscssssccsssscssccsssccssssssssssssssssssssscscssssssssssssssssccscccssssscsssssssscssssssssccsssscsssssssssssssssssccssssssssssssssssssscsccsssscssssssssssssccssssscsssscssscssssscssscssssscsscsscssssccsssssscssssscssscssssssssssccssscscsscssscsscssccssssscsssssssscssssssscssscsssssssccssssccssssscssssssscssssscsscsscsscsssssssssssscssscscsscsssscsscsccccssscssscssssssssssssccccssccsscscccssssssssssssssssssssssssscscsccsscsscssssssssssssssssscsssccssccsssscsscsssscssssscssssscssscsscssscccssscssssscsssscsssssssssscsscsssssssssssscscsssssssssccsssssscscsscsscccssscssccccsscscccssscccscsssscccsssccccssssscssscssssccscsssssssssssscssssscscsssssccssssscccsssssscsscssscsssssssssssssscscssssssssss"
       inkscape:label="main bird contour"
       sodipodi:insensitive="true" /></g></svg>
