<svg xmlns="http://www.w3.org/2000/svg" viewBox="0 0 512 512">
  <path
    fill="#f90"
    d="M 232.5 5.2 c 14.9 -6.9 32.1 -6.9 47 0 l 218.6 101 c 8.5 3.9 13.9 12.4 13.9 21.8 s -5.4 17.9 -13.9 21.8 l -218.6 101 c -14.9 6.9 -32.1 6.9 -47 0 L 13.9 149.8 C 5.4 145.8 0 137.3 0 128 s 5.4 -17.9 13.9 -21.8 L 232.5 5.2 z"
  >
    <animate attributeName="fill" dur="1.5s" repeatCount="indefinite" values="#f90;#fc8;#eee;#f90"/>
  </path>
  <path
    fill="#fc8"
    d="M 48.1 218.4 l 164.3 75.9 c 27.7 12.8 59.6 12.8 87.3 0 l 164.3 -75.9 34.1 15.8 c 8.5 3.9 13.9 12.4 13.9 21.8 s -5.4 17.9 -13.9 21.8 l -218.6 101 c -14.9 6.9 -32.1 6.9 -47 0 L 13.9 277.8 C 5.4 273.8 0 265.3 0 256 s 5.4 -17.9 13.9 -21.8 l 34.1 -15.8 z"
  >
    <animate attributeName="fill" dur="1.5s" repeatCount="indefinite" values="#fc8;#eee;#f90;#fc8"/>
  </path>
  <path
    fill="#eee"
    d="M 13.9 362.2 l 34.1 -15.8 164.3 75.9 c 27.7 12.8 59.6 12.8 87.3 0 l 164.3 -75.9 34.1 15.8 c 8.5 3.9 13.9 12.4 13.9 21.8 s -5.4 17.9 -13.9 21.8 l -218.6 101 c -14.9 6.9 -32.1 6.9 -47 0 L 13.9 405.8 C 5.4 401.8 0 393.3 0 384 s 5.4 -17.9 13.9 -21.8 z"
  >
    <animate attributeName="fill" dur="1.5s" repeatCount="indefinite" values="#eee;#f90;#fc8;#eee"/>
  </path>
</svg>
