<svg xmlns="http://www.w3.org/2000/svg" viewBox="-26 0 92 110">
   <!-- Foliage - overlapping circles (drawn first, behind trunk/branches) -->
   <circle fill="#2d5a2d" cx="-10" cy="38" r="16"/>
   <circle fill="#3a7a3a" cx="4" cy="30" r="18"/>
   <circle fill="#2d5a2d" cx="20" cy="24" r="20"/>
   <circle fill="#3a7a3a" cx="41" cy="25" r="18"/>
   <circle fill="#2d5a2d" cx="55" cy="33" r="16"/>
   <circle fill="#4a9a4a" cx="-4" cy="46" r="14"/>
   <circle fill="#3a7a3a" cx="16" cy="38" r="16"/>
   <circle fill="#4a9a4a" cx="40" cy="46" r="14"/>
   <circle fill="#3a7a3a" cx="8" cy="54" r="12"/>
   <circle fill="#4a9a4a" cx="28" cy="54" r="12"/>
   <!-- Trunk and main branches as one continuous shape -->
   <path fill="#6b4423" d="M 14,110 L 14,54 L 12,45 L -18,35 L -18,34 L 14,40 L 20,45 L 26,38 L 58,28 L 58,29 L 20,48 L 26,48 L 26,110 Z"/>
   <!-- Left side shading -->
   <path fill="#5d3a1a" d="M 14,110 L 14,54 L 12,45 L -18,35 L -18,34 L 14,40 L 14,110 Z"/>
   <!-- Right side highlight -->
   <path fill="#8b5a2b" d="M 26,110 L 26,48 L 28,40 L 58,29 L 58,28 L 26,46 L 20,42 L 14,40 L 26,110 Z"/>
   <!-- Left twig -->
   <path fill="#5d3a1a" d="M -6,40 L -4,38 L -2,28 L -5,28 L -8,38 Z"/>
   <!-- Right twig -->
   <path fill="#6b4423" d="M 46,36 L 44,34 L 42,24 L 45,24 L 48,34 Z"/>
</svg>
