<svg xmlns="http://www.w3.org/2000/svg" viewBox="0 0 340 220" width="340" height="220">

  <!-- Wings and ears: fill #7a4518 -->
  <g fill="#7a4518">
    <path d="M 145,95 L 30,42 Q 55,80 25,108 Q 50,120 48,145 Q 70,140 82,162 Q 100,148 115,152 L 148,135 Z"/>
    <path d="M 195,95 L 310,42 Q 285,80 315,108 Q 290,120 292,145 Q 270,140 258,162 Q 240,148 225,152 L 192,135 Z"/>
    <polygon points="152,80 146,62 162,76"/>
    <polygon points="188,80 194,62 178,76"/>
  </g>

  <!-- Body and head: fill #582f0e -->
  <g fill="#582f0e">
    <ellipse cx="170" cy="115" rx="28" ry="22"/>
    <ellipse cx="170" cy="88"  rx="22" ry="19"/>
  </g>

  <!-- All lines: stroke #4a2510, no fill -->
  <g stroke="#4a2510" fill="none">
    <g stroke-width="1.3">
      <line x1="145" y1="95"  x2="30"  y2="42" />
      <line x1="145" y1="97"  x2="25"  y2="108"/>
      <line x1="146" y1="108" x2="48"  y2="145"/>
      <line x1="147" y1="118" x2="82"  y2="162"/>
      <line x1="195" y1="95"  x2="310" y2="42" />
      <line x1="195" y1="97"  x2="315" y2="108"/>
      <line x1="194" y1="108" x2="292" y2="145"/>
      <line x1="193" y1="118" x2="258" y2="162"/>
    </g>
    <g stroke-width="2">
      <line x1="155" y1="133" x2="148" y2="155"/>
      <line x1="185" y1="133" x2="192" y2="155"/>
    </g>
    <g stroke-width="1.5">
      <line x1="148" y1="155" x2="142" y2="163"/>
      <line x1="148" y1="155" x2="148" y2="164"/>
      <line x1="148" y1="155" x2="154" y2="163"/>
      <line x1="192" y1="155" x2="186" y2="163"/>
      <line x1="192" y1="155" x2="192" y2="164"/>
      <line x1="192" y1="155" x2="198" y2="163"/>
    </g>
  </g>

  <!-- Nose: fill #4a2510 -->
  <ellipse cx="170" cy="100" rx="5" ry="3" fill="#4a2510"/>

  <!-- Eyes: fill #cc0000 -->
  <g fill="#cc0000">
    <circle cx="161" cy="88" r="4"/>
    <circle cx="179" cy="88" r="4"/>
  </g>

</svg>
