<svg xmlns="http://www.w3.org/2000/svg" viewBox="0 0 576 512">
	<path
	  fill="currentColor"
		d="M 291.2 388.4 c 31.2 -18.8 64.7 -36.4 101.1 -36.4 l 55.7 0 c 4.6 0 9.1 -.2 13.6 -.7 l 85.3 121.9 c 4 5.7 11.3 8.2 17.9 6.1 S 576 471 576 464 l 0 -240 c 0 -70.7 -57.3 -128 -128 -128 l -55.7 0 C 355.9 96 322.4 78.4 291.2 59.6 262.3 42.1 228.3 32 192 32 86 32 0 118 0 224 0 295.1 38.6 357.1 96 390.3 L 96 456 c 0 13.3 10.7 24 24 24 s 24 -10.7 24 -24 l 0 -46 c 15.3 3.9 31.4 6 48 6 5.4 0 10.7 -.2 16 -.7 l 0 40.7 c 0 13.3 10.7 24 24 24 s 24 -10.7 24 -24 l 0 -50.9 c 12.4 -4.4 24.2 -10 35.2 -16.7 z M 448 200 a 24 24 0 1 1 0 48 24 24 0 1 1 0 -48 z"
	/>
</svg>
