<svg xmlns="http://www.w3.org/2000/svg" viewBox="0 0 512 512">
	<path
	  fill="currentColor"
		d="M 496 64 c 13.2 0 20.7 15.1 12.8 25.6 L 480 128 480 304 c 0 79.5 -64.5 144 -144 144 l -112 0 -46.3 46.3 c -10.4 10.4 -26.5 12.4 -39.1 4.8 L 41.5 440.9 c -17 -10.2 -15 -35.5 3.4 -42.9 L 160 352 C 23.8 311.1 7.5 169.8 22 95.7 25.6 77.9 45.3 71.4 61.3 80.2 L 320 224 320 144 c 0 -44.2 35.8 -80 80 -80 l 96 0 z m -96 56 a 24 24 0 1 0 0 48 24 24 0 1 0 0 -48 z M 182.5 -9.6 c 12.4 -13.7 33.3 -8.9 42.5 7.1 l 56.4 98.3 c -5.8 14.4 -9.2 30.1 -9.4 46.5 L 138.1 68 c 10.1 -31.6 27 -58.4 44.4 -77.6 z"
	/>
</svg>
