<svg xmlns="http://www.w3.org/2000/svg" viewBox="0 0 512 512">
   <path
      fill="currentColor"
      d="M 236.5 29.4 L 224 48 c -20 30 -53.6 48 -89.7 48 L 68 96 c -37.5 0 -67.9 30.4 -67.9 67.9 0 18 7.2 35.2 19.9 47.9 l 27 27 c 11 11 17.2 25.9 17.2 41.5 0 15.8 -6.4 30.9 -17.7 42 L 33.4 335.1 c -11.1 10.8 -17.3 25.7 -17.3 41.2 0 36.8 34.1 64.2 70.1 56.2 l 62.3 -13.8 c 7.7 -1.7 15.7 -2.6 23.6 -2.6 32.8 0 64.2 14.6 85.2 39.8 l 30.5 36.6 c 10.4 12.4 25.7 19.6 41.9 19.6 30.1 0 54.5 -24.4 54.5 -54.5 l 0 -51.2 c 0 -41.4 25.4 -78.5 64 -93.5 l 22.2 -8.6 c 25.2 -9.8 41.8 -34.1 41.8 -61.1 0 -26.4 -15.9 -50.3 -40.3 -60.5 L 429 164.8 c -33.2 -13.9 -57.6 -43 -65.5 -78.1 l -7.9 -35.2 c -6.8 -30.1 -33.5 -51.5 -64.3 -51.5 -22 0 -42.6 11 -54.8 29.4 z M 160 192 a 32 32 0 1 1 0 64 32 32 0 1 1 0 -64 z m 96 0 a 32 32 0 1 1 64 0 32 32 0 1 1 -64 0 z m 32 96 a 32 32 0 1 1 0 64 32 32 0 1 1 0 -64 z"
   />
</svg>
