<?xml version="1.0" encoding="UTF-8" standalone="no"?>
<svg
   width="24"
   height="24"
   viewBox="0 0 24 24"
   version="1.1"
   id="svg2"
   sodipodi:docname="icon-helmet.svg"
   xml:space="preserve"
   inkscape:version="1.4.3 (0d15f750, 2025-12-25)"
   xmlns:inkscape="http://www.inkscape.org/namespaces/inkscape"
   xmlns:sodipodi="http://sodipodi.sourceforge.net/DTD/sodipodi-0.dtd"
   xmlns="http://www.w3.org/2000/svg"
   xmlns:svg="http://www.w3.org/2000/svg"><defs
     id="defs2" /><sodipodi:namedview
     id="namedview2"
     pagecolor="#ffffff"
     bordercolor="#000000"
     borderopacity="0.25"
     inkscape:showpageshadow="2"
     inkscape:pageopacity="0.0"
     inkscape:pagecheckerboard="0"
     inkscape:deskcolor="#d1d1d1"
     inkscape:zoom="17.554016"
     inkscape:cx="13.301799"
     inkscape:cy="8.8298882"
     inkscape:window-width="1412"
     inkscape:window-height="815"
     inkscape:window-x="0"
     inkscape:window-y="31"
     inkscape:window-maximized="0"
     inkscape:current-layer="svg2" /><path
     style="display:inline;fill:#ffffff;fill-opacity:1"
     d="M 2.9622851,5.2409659 C 6.5512074,2.620483 15.836832,3.1331861 18.343381,4.9561308 20.84993,6.7790755 21.134765,18.115513 18.628216,20.337226 16.121667,22.55894 5.3548999,23.185577 3.3610542,20.84993 1.3672085,18.514282 0.96843935,7.1208776 2.9622851,5.2409659 Z"
     id="path5"
     inkscape:label="suit-fill" /><g
     fill="none"
     stroke="currentColor"
     stroke-linecap="round"
     stroke-linejoin="round"
     stroke-width="2"
     id="g2-1"
     transform="translate(-1.0752679,1.1029599)"
     inkscape:label="suit outline"
     style="display:inline"><path
       d="m 7,13 h 10 a 4,4 0 0 1 0,8 H 7 A 4,4 0 0 1 3,17 V 7 A 4,4 0 0 1 7,3 h 10 a 4,4 0 0 1 4,4 v 10"
       id="path1-2" /><path
       d="M 17,17 H 7 A 4,4 0 0 1 3,13"
       id="path2-3" /></g><g
     inkscape:groupmode="layer"
     id="layer2"
     inkscape:label="helmet"
     transform="translate(2.848351)"
     style="display:inline"><path
       style="display:inline;fill:#f9f9f9"
       d="M 26.831467,2.9622851 C 26.717533,7.5196467 25.23639,10.766767 23.356478,10.880701 21.476567,10.994635 11.792173,12.020041 10.254064,10.823734 8.7159542,9.6274265 6.8360425,6.8360425 7.6905478,5.6967021 8.5450531,4.5573617 16.178634,6.2094053 17.545842,5.2979329 18.913051,4.3864606 19.995424,3.3040872 18.856084,2.0508127 17.716743,0.79753829 10.880701,-3.9876914 11.678239,-5.2979329 c 0.797539,-1.3102415 5.3549,-3.1331862 10.766767,0.2278681 5.411867,3.3610542 4.386461,8.0323499 4.386461,8.0323499 z"
       id="path3"
       inkscape:label="helmet fill" /><path
       style="fill:#979542;fill-opacity:1"
       d="M 9.1653573,0.78037502 C 9.3279522,3.3132325 8.2744311,4.2515345 10.133558,5.1700075 11.992685,6.0884799 14.737681,4.4612099 15.495215,2.6098521 16.252748,0.75849438 15.884323,-2.8912434 12.899171,-2.9084583 9.9140178,-2.9256733 9.1653573,0.78037502 9.1653573,0.78037502 Z"
       id="path4"
       sodipodi:nodetypes="csssc"
       inkscape:label="visor" /><g
       fill="none"
       stroke="currentColor"
       stroke-linecap="round"
       stroke-linejoin="round"
       stroke-width="2"
       id="g2"
       transform="matrix(-0.71075843,-0.70343617,-0.70343617,0.71075843,33.970164,3.1922179)"
       inkscape:label="helmet outline"><path
         d="m 10.6,13.4 6.3,6.1 C 17.2,20 17,20.6 16.5,20.9 15.1,21.6 13.6,22 12,22 a 2,2 0 0 1 -1.4,-0.6 l -8,-8 A 2,2 0 0 1 2,12 10,10 0 0 1 21.44,8.7 c 0.3,0.7 -0.3,1.3 -1,1.3 H 12"
         id="path1"
         style="display:inline" /><circle
         cx="12"
         cy="12"
         r="2"
         id="circle1"
         style="display:inline" /><path
         d="m 16.2,18.8 c 3,-1.9 4.4,-5.5 3.5,-8.8"
         id="path2"
         style="display:inline" /></g></g></svg>
