<svg xmlns="http://www.w3.org/2000/svg" viewBox="0 -40 640 600">
  <path
    d="
      M 256 -32 c 13.3 0 24 10.7 24 24 l 0 11 c 8.6 2.2 16.9 5.6 24.8 10.3 L 311 7 c 9.4 -9.4 24.6 -9.4 33.9 0 s 9.4 24.6 0 33.9 l -6.3 6.3 c 4.6 7.8 8 16.2 10.3 24.8 l 11 0 c 13.3 0 24 10.7 24 24 s -10.7 24 -24 24 l -11 0 c -2.2 8.6 -5.6 16.9 -10.3 24.8 L 345 151 c 9.4 9.4 9.4 24.6 0 33.9 s -24.6 9.4 -33.9 0 l -4.1 -4.1 -30.1 30.1 4.1 4.1 c 9.4 9.4 9.4 24.6 0 33.9 s -24.6 9.4 -33.9 0 l -4.1 -4.1 c -10 10 -20 20 -30.1 30.1 L 217 279 c 9.4 9.4 9.4 24.6 0 33.9 s -24.6 9.4 -33.9 0 l -6.3 -6.3 c -7.8 4.6 -16.2 8 -24.8 10.3 l 0 11 c 0 13.3 -10.7 24 -24 24 s -24 -10.7 -24 -24 l 0 -11 c -8.6 -2.2 -16.9 -5.6 -24.8 -10.3 L 73 313 c -9.4 9.4 -24.6 9.4 -33.9 0 s -9.4 -24.6 0 -33.9 l 6.3 -6.3 c -4.6 -7.8 -8 -16.2 -10.3 -24.8 l -11 0 c -13.3 0 -24 -10.7 -24 -24 s 10.7 -24 24 -24 l 11 0 c 2.2 -8.6 5.6 -16.9 10.3 -24.8 L 39 169 c -9.4 -9.4 -9.4 -24.6 0 -33.9 s 24.6 -9.4 33.9 0 l 4.1 4.1 c 10 -10 20 -20 30.1 -30.1 L 103 105 c -9.4 -9.4 -9.4 -24.6 0 -33.9 s 24.6 -9.4 33.9 0 l 4.1 4.1 30.1 -30.1 -4.1 -4.1 c -9.4 -9.4 -9.4 -24.6 0 -33.9 S 191.6 -2.3 201 7 l 6.3 6.3 c 7.8 -4.6 16.2 -8 24.8 -10.3 l 0 -11 c 0 -13.3 10.7 -24 24 -24 z
      M 128 256 a 32 32 0 1 0 0 -64 32 32 0 1 0 0 64 z
      M 240 144 a 32 32 0 1 0 -64 0 32 32 0 1 0 64 0 z
      m 296 40 l 0 11 c 8.6 2.2 16.9 5.6 24.8 10.3 L 567 199 c 9.4 -9.4 24.6 -9.4 33.9 0 s 9.4 24.6 0 33.9 l -6.3 6.3 c 4.6 7.8 8 16.2 10.3 24.8 l 11 0 c 13.3 0 24 10.7 24 24 s -10.7 24 -24 24 l -11 0 c -2.2 8.6 -5.6 16.9 -10.3 24.8 L 601 343 c 9.4 9.4 9.4 24.6 0 33.9 s -24.6 9.4 -33.9 0 l -4.1 -4.1 -30.1 30.1 4.1 4.1 c 9.4 9.4 9.4 24.6 0 33.9 s -24.6 9.4 -33.9 0 l -4.1 -4.1 c -10 10 -20 20 -30.1 30.1 L 473 471 c 9.4 9.4 9.4 24.6 0 33.9 s -24.6 9.4 -33.9 0 l -6.3 -6.3 c -7.8 4.6 -16.2 8 -24.8 10.3 l 0 11 c 0 13.3 -10.7 24 -24 24 s -24 -10.7 -24 -24 l 0 -11 c -8.6 -2.2 -16.9 -5.6 -24.8 -10.3 L 329 505 c -9.4 9.4 -24.6 9.4 -33.9 0 s -9.4 -24.6 0 -33.9 l 6.3 -6.3 c -4.6 -7.8 -8 -16.2 -10.3 -24.8 l -11 0 c -13.3 0 -24 -10.7 -24 -24 s 10.7 -24 24 -24 l 11 0 c 2.2 -8.6 5.6 -16.9 10.3 -24.8 L 295 361 c -9.4 -9.4 -9.4 -24.6 0 -33.9 s 24.6 -9.4 33.9 0 l 4.1 4.1 c 10 -10 20 -20 30.1 -30.1 L 359 297 c -9.4 -9.4 -9.4 -24.6 0 -33.9 s 24.6 -9.4 33.9 0 l 4.1 4.1 30.1 -30.1 -4.1 -4.1 c -9.4 -9.4 -9.4 -24.6 0 -33.9 s 24.6 -9.4 33.9 0 l 6.3 6.3 c 7.8 -4.6 16.2 -8 24.8 -10.3 l 0 -11 c 0 -13.3 10.7 -24 24 -24 s 24 10.7 24 24 z
      M 448 384 a 32 32 0 1 0 -64 0 32 32 0 1 0 64 0 z
    "
  />
</svg>
