<svg xmlns="http://www.w3.org/2000/svg" viewBox="0 0 576 512">
  <path
    fill="currentColor"
    d="M 0 96 C 0 60.7 28.7 32 64 32 l 448 0 c 35.3 0 64 28.7 64 64 L 0 96 z m 0 48 l 576 0 0 272 c 0 35.3 -28.7 64 -64 64 L 64 480 c -35.3 0 -64 -28.7 -64 -64 L 0 144 z M 247.3 416 c 20.2 0 35.3 -19.4 22.4 -35 -14.7 -17.7 -36.9 -29 -61.7 -29 l -64 0 c -24.8 0 -47 11.3 -61.7 29 -12.9 15.6 2.2 35 22.4 35 l 142.5 0 z M 176 312 a 56 56 0 1 0 0 -112 56 56 0 1 0 0 112 z M 360 208 c -13.3 0 -24 10.7 -24 24 s 10.7 24 24 24 l 112 0 c 13.3 0 24 -10.7 24 -24 s -10.7 -24 -24 -24 l -112 0 z m 0 96 c -13.3 0 -24 10.7 -24 24 s 10.7 24 24 24 l 112 0 c 13.3 0 24 -10.7 24 -24 s -10.7 -24 -24 -24 l -112 0 z"
  />
</svg>
