<svg xmlns="http://www.w3.org/2000/svg" viewBox="0 0 24 24">
<path d="M 22,18.5 A 2.5,2.5 0 0,1 19.5,21 A 2.5,2.5 0 0,1 17,18.5 C 17,17.47 17.62,16.59 18.5,16.21 V 6 H 14 V 7.35 C 15.22,7.93 16,9.15 16,10.5 V 22 H 2 V 10.5 C 2,9.15 2.78,7.93 4,7.35 V 6 H 2 V 4 H 4 V 3.5 A 1.5,1.5 0 0,1 5.5,2 A 1.5,1.5 0 0,1 7,3.5 V 4 H 11 V 3.5 A 1.5,1.5 0 0,1 12.5,2 A 1.5,1.5 0 0,1 14,3.5 V 4 H 18.5 A 2,2 0 0,1 20.5,6 V 16.21 C 21.38,16.59 22,17.47 22,18.5 M 11,7.35 V 6 H 7 V 7.35 C 8.22,7.93 9,9.15 9,10.5 C 9,9.15 9.78,7.93 11,7.35 Z" />
</svg>
