<svg xmlns="http://www.w3.org/2000/svg" viewBox="0 0 24 24">
  <path
    d="M 12 2 C 9.89 2 3 2.29 3 6 V 18 C 3 21.71 9.89 22 12 22 C 14.11 22 21 21.71 21 18 V 6 C 21 2.29 14.11 2 12 2 M 12 10 C 13.38 10 16.8 9.87 19 8.75 V 15.25 C 16.8 14.13 13.38 14 12 14 S 7.2 14.13 5 15.25 V 8.75 C 7.2 9.87 10.62 10 12 10 M 12 4 C 15.87 4 19 4.89 19 6 C 19 7.11 15.87 8 12 8 C 8.13 8 5 7.11 5 6 C 5 4.89 8.13 4 12 4 M 12 20 C 8.13 20 5 19.11 5 18 C 5 16.9 8.13 16 12 16 C 15.87 16 19 16.9 19 18 C 19 19.11 15.87 20 12 20 Z"
  />
</svg>
