<svg xmlns="http://www.w3.org/2000/svg" viewBox="40 40 160 160">
  <g transform="rotate(45 120 120)">
    <!-- Orange base flame -->
    <path fill="orange" d="M 86 96 C 90 102 95 107 102 110 H 142 C 145 109 147 107 149 105 C 159 95 163 80 158 67 L 157 65 C 156 62 154 60 152 58 C 151 56 149 55 148 53 C 144 50 140 47 136 43 C 127 34 126 20 131 10 C 126 11 121 14 117 18 C 102 30 96 51 103 70 V 72 C 103 73 102 74 101 75 C 100 76 98 75 97 74 L 96 73 C 90 65 89 53 93 43 C 84 51 79 64 80 77 C 80 80 81 83 82 86 C 82 89 84 93 86 96">
      <animate attributeName="d" dur="0.4s" repeatCount="indefinite" values="
        M 86 96 C 90 102 95 107 102 110 H 142 C 145 109 147 107 149 105 C 159 95 163 80 158 67 L 157 65 C 156 62 154 60 152 58 C 151 56 149 55 148 53 C 144 50 140 47 136 43 C 127 34 126 20 131 10 C 126 11 121 14 117 18 C 102 30 96 51 103 70 V 72 C 103 73 102 74 101 75 C 100 76 98 75 97 74 L 96 73 C 90 65 89 53 93 43 C 84 51 79 64 80 77 C 80 80 81 83 82 86 C 82 89 84 93 86 96;
        M 88 96 C 91 101 96 106 102 110 H 142 C 146 108 148 106 150 103 C 158 93 161 78 156 65 L 155 63 C 154 60 153 58 151 56 C 150 54 148 53 147 51 C 143 48 139 45 135 41 C 128 32 128 18 133 8 C 128 10 123 13 119 17 C 104 31 99 52 105 71 V 73 C 105 74 104 75 103 76 C 102 77 100 76 99 75 L 98 74 C 92 66 90 54 94 44 C 86 52 82 65 83 78 C 83 81 83 84 84 87 C 84 90 86 94 88 96;
        M 86 96 C 90 102 95 107 102 110 H 142 C 145 109 147 107 149 105 C 159 95 163 80 158 67 L 157 65 C 156 62 154 60 152 58 C 151 56 149 55 148 53 C 144 50 140 47 136 43 C 127 34 126 20 131 10 C 126 11 121 14 117 18 C 102 30 96 51 103 70 V 72 C 103 73 102 74 101 75 C 100 76 98 75 97 74 L 96 73 C 90 65 89 53 93 43 C 84 51 79 64 80 77 C 80 80 81 83 82 86 C 82 89 84 93 86 96
      "/>
    </path>
    
    <!-- Yellow middle flame -->
    <path fill="#ffcc00" d="M 95 100 C 98 104 103 108 108 110 H 136 C 139 108 142 105 144 102 C 150 94 152 83 149 73 C 147 68 144 63 140 59 C 136 54 133 48 132 42 C 130 35 132 27 136 20 C 130 23 125 28 122 34 C 115 45 114 60 118 73 C 119 76 118 79 115 79 C 113 79 111 77 110 75 C 106 68 106 59 109 51 C 103 58 100 68 101 78 C 101 83 103 88 95 100">
      <animate attributeName="d" dur="0.35s" repeatCount="indefinite" values="
        M 95 100 C 98 104 103 108 108 110 H 136 C 139 108 142 105 144 102 C 150 94 152 83 149 73 C 147 68 144 63 140 59 C 136 54 133 48 132 42 C 130 35 132 27 136 20 C 130 23 125 28 122 34 C 115 45 114 60 118 73 C 119 76 118 79 115 79 C 113 79 111 77 110 75 C 106 68 106 59 109 51 C 103 58 100 68 101 78 C 101 83 103 88 95 100;
        M 97 100 C 99 103 104 107 109 110 H 135 C 138 107 141 104 143 100 C 148 92 150 81 147 71 C 145 66 143 61 139 57 C 135 52 132 46 131 40 C 129 33 131 25 135 18 C 129 21 124 26 121 32 C 114 43 113 58 117 71 C 118 74 117 77 114 77 C 112 77 110 75 109 73 C 105 66 105 57 108 49 C 102 56 99 66 100 76 C 100 81 102 86 97 100;
        M 95 100 C 98 104 103 108 108 110 H 136 C 139 108 142 105 144 102 C 150 94 152 83 149 73 C 147 68 144 63 140 59 C 136 54 133 48 132 42 C 130 35 132 27 136 20 C 130 23 125 28 122 34 C 115 45 114 60 118 73 C 119 76 118 79 115 79 C 113 79 111 77 110 75 C 106 68 106 59 109 51 C 103 58 100 68 101 78 C 101 83 103 88 95 100
      "/>
      <animate attributeName="opacity" dur="0.25s" repeatCount="indefinite" values="0.9;1;0.85;1;0.9"/>
    </path>
    
    <!-- Red inner flame -->
    <path fill="red" d="M 123 81 C 124 76 122 72 121 68 C 120 64 120 60 122 56 L 125 62 C 129 68 136 70 138 78 V 81 C 138 86 136 91 133 94 C 131 95 129 97 127 97 C 121 99 114 96 110 92 C 118 92 122 86 123 81">
      <animate attributeName="d" dur="0.3s" repeatCount="indefinite" values="
        M 123 81 C 124 76 122 72 121 68 C 120 64 120 60 122 56 L 125 62 C 129 68 136 70 138 78 V 81 C 138 86 136 91 133 94 C 131 95 129 97 127 97 C 121 99 114 96 110 92 C 118 92 122 86 123 81;
        M 124 83 C 125 78 123 74 122 70 C 121 66 121 62 123 58 L 126 64 C 130 70 135 72 137 80 V 83 C 137 88 135 92 132 95 C 130 96 128 98 126 98 C 120 100 113 97 109 93 C 117 93 123 88 124 83;
        M 123 81 C 124 76 122 72 121 68 C 120 64 120 60 122 56 L 125 62 C 129 68 136 70 138 78 V 81 C 138 86 136 91 133 94 C 131 95 129 97 127 97 C 121 99 114 96 110 92 C 118 92 122 86 123 81
      "/>
    </path>
    
    <!-- Torch handle -->
    <path fill="#aa6418" d="M 150 120 V 140 H 140 L 130 220 H 110 L 100 140 H 90 V 120 H 150 Z"/>
  </g>
</svg>
