<svg xmlns="http://www.w3.org/2000/svg" viewBox="0 0 480 480">
  <path
     style="fill:#f9f9f9"
     d="m 239 50 c 32 0 61 32 61 32 1 31 0 68 0 68 36 3 41 38 41 38 0 52 2 126 2 126 -14 19 -9 27 -39 9 -1 86 6 69 -4 85 -6 23 -32 26 -61 2 -28 29 -57 20 -57 -8 3 -71 2 -95 -11 -79 -12 16 -32 -4 -32 -4 C 140 197 127 166 166 152 208 129 161 94 185 75 190 42 239 50 239 50 Z" />
  <g fill="currentColor" fill-rule="evenodd">
    <path d="M 170 90 a 50 50 0 0 1 50 -50 h 40 a 50 50 0 0 1 50 50 v 51 c 23 5 40 25 40 49 v 120 a 30 30 0 0 1 -40 28 V 400 a 40 40 0 0 1 -70 26 A 40 40 0 0 1 170 400 v -62 A 30 30 0 0 1 130 310 V 190 a 50 50 0 0 1 40 -49 z m 130 70 a 30 30 0 0 1 30 30 v 90 h -20 v -90 h -20 v 50 h -40 v -80 z m 20 160 a 10 10 0 0 1 -10 -10 v -10 h 20 v 10 a 10 10 0 0 1 -10 10 m -50 100 a 20 20 0 0 1 -20 -20 V 300 h 40 v 100 a 20 20 0 0 1 -20 20 m -90 -260 a 30 30 0 0 0 -30 30 v 90 h 20 v -90 h 20 v 50 h 40 v -80 z m 30 260 a 20 20 0 0 0 20 -20 V 300 h -40 v 100 a 20 20 0 0 0 20 20 m -50 -100 a 10 10 0 0 0 10 -10 v -10 h -20 v 10 a 10 10 0 0 0 10 10 M 260 60 a 30 30 0 0 1 30 30 v 50 H 190 V 90 a 30 30 0 0 1 30 -30 z m 30 200 v 20 h -40 v -20 z m -100 0 v 20 h 40 v -20 z" />
    <path d="m 250 70 c 17 0 30 13 30 30 0 16 -11 30 -31 30 C 227 130 250 130 230 130 212 130 199 117 200 100 201 83 213 70 230 70 Z m -20 20 c -6 0 -10 4 -10 10 0 6 4 11 10 12 13 1 9 1 22 0 C 258 112 260 107 260 100 260 94 256 90 250 90 Z" />
  </g>
</svg>
