<svg xmlns="http://www.w3.org/2000/svg" viewBox="0 0 24 24">
  <path
    fill="orange"
    d="M 8.6 9.6 C 9 10.2 9.5 10.7 10.2 11 H 14.2 C 14.5 10.9 14.7 10.7 14.9 10.5 C 15.9 9.5 16.3 8 15.8 6.7 L 15.7 6.5 C 15.6 6.2 15.4 6 15.2 5.8 C 15.1 5.6 14.9 5.5 14.8 5.3 C 14.4 5 14 4.7 13.6 4.3 C 12.7 3.4 12.6 2 13.1 1 C 12.6 1.1 12.1 1.4 11.7 1.8 C 10.2 3 9.6 5.1 10.3 7 V 7.2 C 10.3 7.3 10.2 7.4 10.1 7.5 C 10 7.6 9.8 7.5 9.7 7.4 L 9.6 7.3 C 9 6.5 8.9 5.3 9.3 4.3 C 8.4 5.1 7.9 6.4 8 7.7 C 8 8 8.1 8.3 8.2 8.6 C 8.2 8.9 8.4 9.3 8.6 9.6"
  />
  <path
    fill="red"
    d="M 12.3 8.1 C 12.4 7.6 12.2 7.2 12.1 6.8 C 12 6.4 12 6 12.2 5.6 L 12.5 6.2 C 12.9 6.8 13.6 7 13.8 7.8 V 8.1 C 13.8 8.6 13.6 9.1 13.3 9.4 C 13.1 9.5 12.9 9.7 12.7 9.7 C 12.1 9.9 11.4 9.6 11 9.2 C 11.8 9.2 12.2 8.6 12.3 8.1"
  />
  <path
    fill="#aa6418"
    d="M 15 12 V 14 H 14 L 13 22 H 11 L 10 14 H 9 V 12 H 15 Z"
  />
</svg>
