<svg xmlns="http://www.w3.org/2000/svg" viewBox="0 0 240 240">
  <path
    id="bottles"
    fill="#F0A500"
    d="
      M 55,20 A 15,15 0 0,1 70,35 V 73.5
      C 82.2,79.3 90,91.5 90,105 V 220 H 20 V 105
      C 20,91.5 27.8,79.3 40,73.5 V 35
      A 15,15 0 0,1 55,20 Z
      M 125,20 A 15,15 0 0,1 140,35 V 73.5
      C 152.2,79.3 160,91.5 160,105 V 220 H 90 V 105
      C 90,91.5 97.8,79.3 110,73.5 V 35
      A 15,15 0 0,1 125,20 Z
    "
  />
  <path
    id="hose-mouthpiece"
    fill="currentColor"
    d="
      M 20,40 H 185 A 20,20 0 0,1 205,60 V 162.1
      C 213.8,165.9 220,174.7 220,185
      A 25,25 0 0,1 195,210
      A 25,25 0 0,1 170,185
      C 170,174.7 176.2,165.9 185,162.1
      V 60 H 20 Z
    "
  />
</svg>
