<svg xmlns="http://www.w3.org/2000/svg" viewBox="96 32 384 384">
  <path
    fill="currentColor"
    d="
      M 288 32 a 192 192 0 1 1 0 384 a 192 192 0 1 1 0 -384 z
      M 373 139
      A 120 120 0 0 0 170 200
      L 152.2 200
      A 10 10 0 0 0 142.7 206.84
      L 137.4 222.84
      A 10 10 0 0 0 146.87 236
      L 169 236
      A 120 120 0 0 0 373 309
      A 20 20 0 0 0 345 281
      A 80 80 0 0 1 209 236
      L 285.79 236
      A 10 10 0 0 0 295.3 229.16
      L 300.6 213.16
      A 10 10 0 0 0 291.13 200
      L 212 200
      A 80 80 0 0 1 345 167
      A 20 20 0 0 0 373 139
      Z
    "
  />
</svg>
