<svg xmlns="http://www.w3.org/2000/svg" viewBox="0 0 512 512">
  <path
    fill="currentColor"
    d="
      M 168.5 72 l 87.5 93 87.5 -93 -175 0 z
      M 383.9 99.1 l -72.3 76.9 129 0 -56.6 -76.9 z
      m 50 124.9 L 78.1 224 256 420.3 433.9 224 z
      M 71.5 176 l 129 0 -72.3 -76.9 -56.6 76.9 z
      m 434.3 40.1 l -232 256 c -4.5 5 -11 7.9 -17.8 7.9 s -13.2 -2.9 -17.8 -7.9 l -232 -256 c -7.7 -8.5 -8.3 -21.2 -1.5 -30.4 l 112 -152 c 4.5 -6.1 11.7 -9.8 19.3 -9.8 l 240 0 c 7.6 0 14.8 3.6 19.3 9.8 l 112 152 c 6.8 9.2 6.1 21.9 -1.5 30.4 z
    "
  />
</svg>
