<svg xmlns="http://www.w3.org/2000/svg" viewBox="0 0 576 512">
  <!-- card -->
  <rect x="0" y="32" width="576" height="448" rx="64" ry="64" fill="currentColor"/>
  <!-- magnetic strip -->
  <rect x="0" y="96" width="576" height="48" fill="#444"/>
  <!-- person and text -->
  <path
    fill="#444"
    d="
      M 247.3 416 c 20.2 0 35.3 -19.4 22.4 -35 -14.7 -17.7 -36.9 -29 -61.7 -29 l -64 0 c -24.8 0 -47 11.3 -61.7 29 -12.9 15.6 2.2 35 22.4 35 l 142.5 0 z
      M 176 312 a 56 56 0 1 0 0 -112 56 56 0 1 0 0 112 z
      M 360 208 c -13.3 0 -24 10.7 -24 24 s 10.7 24 24 24 l 112 0 c 13.3 0 24 -10.7 24 -24 s -10.7 -24 -24 -24 l -112 0 z
      M 360 304 c -13.3 0 -24 10.7 -24 24 s 10.7 24 24 24 l 112 0 c 13.3 0 24 -10.7 24 -24 s -10.7 -24 -24 -24 l -112 0 z
    "
  />
</svg>

