<svg xmlns="http://www.w3.org/2000/svg" viewBox="96 32 384 384">
  <path
    fill="currentColor"
    d="
      M 288 32 a 192 192 0 1 1 0 384 a 192 192 0 1 1 0 -384 z
      M 364.5 147.5
      A 108 108 0 0 0 181.8 202.4
      L 165.98 202.4
      A 9 9 0 0 0 157.43 208.56
      L 152.34 222.96
      A 9 9 0 0 0 161.18 234.8
      L 181.1 234.8
      A 108 108 0 0 0 364.5 300.5
      A 18 18 0 0 0 336.7 275.3
      A 72 72 0 0 1 216.9 234.8
      L 286.21 234.8
      A 9 9 0 0 0 294.57 228.64
      L 299.34 214.24
      A 9 9 0 0 0 290.82 202.4
      L 219.6 202.4
      A 72 72 0 0 1 339.3 172.7
      A 18 18 0 0 0 364.5 147.5
      Z
    "
  />
</svg>
