<svg xmlns="http://www.w3.org/2000/svg" viewBox="0 0 512 512">
  <path fill="currentColor" d="M 80 64 c 0 -17.7 14.3 -32 32 -32 l 64 0 c 17.7 0 32 14.3 32 32 l 96 0 c 0 -17.7 14.3 -32 32 -32 l 64 0 c 17.7 0 32 14.3 32 32 l 16 0 c 35.3 0 64 28.7 64 64 l 0 256 c 0 35.3 -28.7 64 -64 64 L 64 448 c -35.3 0 -64 -28.7 -64 -64 L 0 128 C 0 92.7 28.7 64 64 64 l 16 0 z M 392 184 c 0 -13.3 -10.7 -24 -24 -24 s -24 10.7 -24 24 l 0 32 -32 0 c -13.3 0 -24 10.7 -24 24 s 10.7 24 24 24 l 32 0 0 32 c 0 13.3 10.7 24 24 24 s 24 -10.7 24 -24 l 0 -32 32 0 c 13.3 0 24 -10.7 24 -24 s -10.7 -24 -24 -24 l -32 0 0 -32 z M 64 240 c 0 13.3 10.7 24 24 24 l 112 0 c 13.3 0 24 -10.7 24 -24 s -10.7 -24 -24 -24 L 88 216 c -13.3 0 -24 10.7 -24 24 z"/>
</svg>
