<svg xmlns="http://www.w3.org/2000/svg" viewBox="0 0 800 600">
  <defs>
    <filter id="blur" x="-20%" y="-20%" width="140%" height="140%">
      <feGaussianBlur stdDeviation="5"/>
    </filter>
    <filter id="blur2" x="-20%" y="-20%" width="140%" height="140%">
      <feGaussianBlur stdDeviation="8"/>
    </filter>
    <linearGradient id="topFade" x1="0%" y1="0%" x2="0%" y2="100%">
      <stop offset="0%" stop-color="white" stop-opacity="0"/>
      <stop offset="20%" stop-color="white" stop-opacity="1"/>
    </linearGradient>
    <mask id="fadeMask">
      <rect width="800" height="600" fill="url(#topFade)"/>
    </mask>
  </defs>
  
  <!-- Background -->
  <rect width="800" height="600" fill="#06080c"/>
  
  <!-- Pillars - far back, very blurry -->
  <g filter="url(#blur2)" mask="url(#fadeMask)">
    <path d="M35,0 Q55,150 45,300 Q65,450 50,600 L95,600 Q80,420 100,200 Q75,60 90,0 Z" fill="#0c0e14"/>
    <path d="M165,0 Q190,200 175,400 Q200,530 185,600 L240,600 Q220,400 245,170 Q205,40 230,0 Z" fill="#0a0c12"/>
    <path d="M335,0 Q365,180 350,360 Q380,500 360,600 L425,600 Q400,420 430,190 Q380,50 415,0 Z" fill="#0c0e14"/>
    <path d="M505,0 Q540,210 520,410 Q550,530 535,600 L595,600 Q570,400 605,180 Q555,40 590,0 Z" fill="#0a0c12"/>
    <path d="M665,0 Q700,190 680,380 Q715,510 695,600 L765,600 Q740,410 775,190 Q720,55 755,0 Z" fill="#0c0e14"/>
  </g>
  
  <!-- Stalactites - from ceiling -->
  <g filter="url(#blur)" mask="url(#fadeMask)">
    <path d="M20,-10 Q40,40 30,100 Q50,150 38,200 L55,200 Q70,140 58,75 Q78,25 65,-10 Z" fill="#14100c"/>
    <path d="M85,-10 Q108,60 95,150 L118,150 Q138,75 125,-10 Z" fill="#0e1016"/>
    <path d="M155,-10 Q178,55 165,125 Q190,175 175,220 L198,220 Q218,160 205,90 Q228,35 215,-10 Z" fill="#14100c"/>
    <path d="M230,-10 Q255,70 242,160 L268,160 Q290,85 278,-10 Z" fill="#100c0a"/>
    <path d="M310,-10 Q338,90 320,190 Q350,235 332,280 L358,280 Q380,215 365,130 Q390,50 375,-10 Z" fill="#0e1016"/>
    <path d="M400,-10 Q425,60 412,140 L438,140 Q460,70 448,-10 Z" fill="#14100c"/>
    <path d="M475,-10 Q505,80 490,175 Q522,220 505,265 L532,265 Q555,200 542,115 Q570,40 555,-10 Z" fill="#100c0a"/>
    <path d="M560,-10 Q585,50 572,115 L598,115 Q620,60 608,-10 Z" fill="#0e1016"/>
    <path d="M630,-10 Q662,100 645,200 L675,200 Q702,110 688,-10 Z" fill="#14100c"/>
    <path d="M710,-10 Q742,75 725,170 Q758,215 742,260 L772,260 Q798,195 782,105 Q812,40 798,-10 Z" fill="#100c0a"/>
    
    <!-- Smaller stalactites -->
    <path d="M52,-5 Q65,35 60,80 L75,80 Q85,42 80,-5 Z" fill="#0d0f15"/>
    <path d="M125,-5 Q140,32 135,78 L152,78 Q165,40 158,-5 Z" fill="#12100b"/>
    <path d="M195,-5 Q212,42 205,98 L225,98 Q240,50 232,-5 Z" fill="#0d0f15"/>
    <path d="M270,-5 Q288,48 280,105 L302,105 Q318,58 310,-5 Z" fill="#12100b"/>
    <path d="M355,-5 Q372,38 365,85 L385,85 Q400,45 392,-5 Z" fill="#0d0f15"/>
    <path d="M440,-5 Q458,52 450,115 L475,115 Q492,62 485,-5 Z" fill="#12100b"/>
    <path d="M525,-5 Q542,35 535,75 L555,75 Q570,42 562,-5 Z" fill="#0d0f15"/>
    <path d="M600,-5 Q620,48 612,105 L638,105 Q655,55 648,-5 Z" fill="#12100b"/>
    <path d="M680,-5 Q698,38 692,88 L715,88 Q730,48 722,-5 Z" fill="#0d0f15"/>
    <path d="M760,-5 Q780,45 772,100 L798,100 Q815,55 808,-5 Z" fill="#12100b"/>
  </g>
  
  <!-- Stalagmites - from floor -->
  <g filter="url(#blur)">
    <path d="M10,610 Q32,540 22,455 Q48,385 35,320 L60,320 Q78,405 65,490 Q92,560 75,610 Z" fill="#14100c"/>
    <path d="M90,610 Q118,530 105,425 L132,425 Q155,520 148,610 Z" fill="#0e1016"/>
    <path d="M165,610 Q195,515 180,400 Q212,330 198,265 L228,265 Q255,360 238,470 Q275,550 255,610 Z" fill="#100c0a"/>
    <path d="M270,610 Q298,540 285,445 L318,445 Q342,530 335,610 Z" fill="#14100c"/>
    <path d="M360,610 Q395,505 378,380 Q415,300 395,230 L430,230 Q462,335 445,450 Q485,540 462,610 Z" fill="#0e1016"/>
    <path d="M480,610 Q512,525 498,420 L532,420 Q558,520 550,610 Z" fill="#100c0a"/>
    <path d="M570,610 Q608,515 590,390 Q628,315 608,250 L645,250 Q682,350 662,465 Q705,550 680,610 Z" fill="#14100c"/>
    <path d="M690,610 Q725,535 712,440 L750,440 Q778,530 770,610 Z" fill="#0e1016"/>
    <path d="M770,610 Q802,515 788,400 L822,400 Q850,510 842,610 Z" fill="#100c0a"/>
    
    <!-- Smaller stalagmites -->
    <path d="M48,610 Q65,568 58,512 L78,512 Q92,565 85,610 Z" fill="#0d0f15"/>
    <path d="M138,610 Q158,555 150,490 L172,490 Q190,552 182,610 Z" fill="#12100b"/>
    <path d="M235,610 Q255,560 248,500 L272,500 Q290,558 282,610 Z" fill="#0d0f15"/>
    <path d="M325,610 Q348,550 340,475 L365,475 Q385,545 378,610 Z" fill="#12100b"/>
    <path d="M425,610 Q448,565 440,502 L465,502 Q485,560 478,610 Z" fill="#0d0f15"/>
    <path d="M540,610 Q565,545 555,470 L582,470 Q605,542 598,610 Z" fill="#12100b"/>
    <path d="M630,610 Q652,565 645,510 L672,510 Q692,562 685,610 Z" fill="#0d0f15"/>
    <path d="M745,610 Q768,550 760,480 L790,480 Q812,548 805,610 Z" fill="#12100b"/>
  </g>
<rect x="0" y="0" width="100%" height="100%" fill="white" opacity="0.08"/>
</svg>
