<svg xmlns="http://www.w3.org/2000/svg" viewBox="0 0 800 600">
  <defs>
    <filter id="blur" x="-20%" y="-20%" width="140%" height="140%">
      <feGaussianBlur stdDeviation="4"/>
    </filter>
    <filter id="blur2" x="-20%" y="-20%" width="140%" height="140%">
      <feGaussianBlur stdDeviation="6"/>
    </filter>
  </defs>
  
  <!-- Solid dark blue background -->
  <rect width="800" height="600" fill="#0e0f23"/>
  
  <!-- Tree trunks - dark brown, fuzzy -->
  <g filter="url(#blur2)">
    <path d="M25,0 Q40,150 30,300 Q45,450 35,600 L70,600 Q60,400 75,200 Q65,100 60,0 Z" fill="#1a0f08"/>
    <path d="M115,0 Q130,200 120,400 Q135,500 125,600 L155,600 Q145,350 155,150 Q140,50 145,0 Z" fill="#1f1209"/>
    <path d="M270,0 Q290,180 280,350 Q300,500 285,600 L340,600 Q320,400 335,200 Q310,80 320,0 Z" fill="#1a0f08"/>
    <path d="M415,0 Q430,250 420,450 Q440,550 425,600 L460,600 Q450,300 460,100 Q445,30 450,0 Z" fill="#1c1008"/>
    <path d="M545,0 Q560,200 550,400 Q570,520 555,600 L595,600 Q580,350 590,150 Q565,50 575,0 Z" fill="#1f1209"/>
    <path d="M675,0 Q695,180 680,380 Q700,500 690,600 L740,600 Q725,400 740,180 Q710,60 720,0 Z" fill="#1a0f08"/>
    <path d="M755,0 Q775,220 765,420 Q785,540 770,600 L810,600 Q800,380 810,160 Q780,40 795,0 Z" fill="#1c1008"/>
  </g>
  
  <!-- Foliage clusters - irregular blob shapes, overlapping -->
  <g filter="url(#blur)">
    <!-- Cluster top-left -->
    <path d="M20,30 Q60,10 100,35 Q130,20 120,60 Q140,90 100,85 Q70,100 40,75 Q10,80 20,30 Z" fill="#0d2a0d"/>
    <path d="M80,45 Q120,25 160,50 Q180,80 150,95 Q110,110 75,90 Q50,70 80,45 Z" fill="#0e2c0e"/>
    
    <!-- Cluster top-mid -->
    <path d="M300,20 Q350,5 390,30 Q430,15 420,55 Q450,85 400,90 Q340,100 310,70 Q270,60 300,20 Z" fill="#0d280d"/>
    <path d="M360,50 Q400,30 450,55 Q480,45 470,80 Q440,110 390,100 Q350,90 360,50 Z" fill="#0f2e0f"/>
    
    <!-- Cluster top-right -->
    <path d="M620,40 Q680,15 730,45 Q770,30 760,75 Q790,100 740,105 Q680,115 640,85 Q600,70 620,40 Z" fill="#0d2a0d"/>
    <path d="M700,25 Q750,10 790,40 Q820,70 780,90 Q720,100 690,70 Q670,45 700,25 Z" fill="#0e2c0e"/>
    
    <!-- Upper area scattered -->
    <path d="M150,120 Q190,95 240,125 Q280,110 270,155 Q290,180 240,185 Q180,195 155,160 Q120,150 150,120 Z" fill="#0d2a0d"/>
    <path d="M500,100 Q560,80 600,115 Q640,100 630,150 Q660,175 610,185 Q550,190 515,155 Q480,140 500,100 Z" fill="#0e2c0e"/>
    
    <!-- Mid-upper clusters -->
    <path d="M30,200 Q80,170 130,205 Q170,185 165,235 Q200,270 145,280 Q80,295 45,255 Q5,240 30,200 Z" fill="#0d280d"/>
    <path d="M90,230 Q130,210 180,240 Q210,260 175,290 Q130,310 95,280 Q60,260 90,230 Z" fill="#0d2a0d"/>
    
    <path d="M330,180 Q390,155 440,190 Q490,175 475,230 Q510,265 450,275 Q380,290 340,245 Q300,225 330,180 Z" fill="#0f2e0f"/>
    
    <path d="M680,190 Q740,165 790,200 Q830,220 790,260 Q750,290 700,270 Q660,250 680,190 Z" fill="#0d2a0d"/>
    <path d="M720,220 Q760,200 800,230 Q780,280 730,285 Q690,270 720,220 Z" fill="#0e2c0e"/>
    
    <!-- Mid clusters -->
    <path d="M180,320 Q240,290 300,330 Q350,310 340,370 Q380,410 320,420 Q250,435 195,385 Q150,365 180,320 Z" fill="#0d2a0d"/>
    <path d="M250,350 Q300,330 360,365 Q390,395 345,420 Q280,440 240,400 Q210,375 250,350 Z" fill="#0d280d"/>
    
    <path d="M520,300 Q580,270 640,310 Q690,295 680,355 Q720,395 660,405 Q590,420 540,370 Q500,345 520,300 Z" fill="#0e2c0e"/>
    <path d="M580,340 Q630,315 690,350 Q720,385 670,410 Q610,425 570,385 Q545,360 580,340 Z" fill="#0f2e0f"/>
    
    <!-- Lower-mid area -->
    <path d="M40,420 Q100,385 160,425 Q210,405 200,465 Q240,505 180,515 Q110,530 60,480 Q15,460 40,420 Z" fill="#0d280d"/>
    <path d="M100,450 Q150,430 210,465 Q245,500 195,525 Q130,540 90,500 Q60,475 100,450 Z" fill="#0d2a0d"/>
    
    <path d="M360,400 Q420,365 490,410 Q550,390 535,460 Q580,505 510,520 Q430,540 375,480 Q330,455 360,400 Z" fill="#0d2a0d"/>
    <path d="M420,440 Q480,415 550,455 Q590,490 535,525 Q460,545 410,495 Q375,465 420,440 Z" fill="#0e2c0e"/>
    
    <path d="M680,410 Q750,375 810,420 Q790,480 740,500 Q680,515 650,470 Q640,435 680,410 Z" fill="#0d280d"/>
    
    <!-- Bottom clusters -->
    <path d="M20,530 Q80,495 150,540 Q210,520 195,585 Q150,610 80,600 Q20,590 20,530 Z" fill="#0d2a0d"/>
    <path d="M120,550 Q180,520 250,560 Q280,600 220,615 Q150,620 110,585 Q90,560 120,550 Z" fill="#0e2c0e"/>
    
    <path d="M300,520 Q370,480 450,530 Q510,510 495,580 Q450,620 370,610 Q310,595 300,520 Z" fill="#0d280d"/>
    <path d="M380,555 Q440,530 510,570 Q545,610 480,625 Q400,630 365,590 Q350,565 380,555 Z" fill="#0f2e0f"/>
    
    <path d="M580,510 Q650,475 730,525 Q790,505 775,575 Q730,620 650,605 Q590,590 580,510 Z" fill="#0d2a0d"/>
    <path d="M650,545 Q720,515 790,560 Q810,600 750,620 Q680,625 640,585 Q620,560 650,545 Z" fill="#0d280d"/>
  </g>
</svg>
