<svg xmlns="http://www.w3.org/2000/svg" viewBox="0 0 800 600">
  <defs>
    <linearGradient id="topFade" x1="0%" y1="0%" x2="0%" y2="100%">
      <stop offset="0%" style="stop-color:white;stop-opacity:0"/>
      <stop offset="25%" style="stop-color:white;stop-opacity:1"/>
      <stop offset="100%" style="stop-color:white;stop-opacity:1"/>
    </linearGradient>
    <mask id="fadeMask">
      <rect width="800" height="600" fill="url(#topFade)"/>
    </mask>

    <filter id="blur" x="-20%" y="-20%" width="140%" height="140%">
      <feGaussianBlur stdDeviation="4"/>
    </filter>
    <filter id="blur2" x="-20%" y="-20%" width="140%" height="140%">
      <feGaussianBlur stdDeviation="6"/>
    </filter>
  </defs>
  
  <!-- Background -->
  <rect width="800" height="600" fill="#0e0f23"/>
  
  <!-- Tree trunks -->
  <g filter="url(#blur2)" mask="url(#fadeMask)">
    <path d="M18,0 Q45,120 28,280 Q50,400 32,600 L78,600 Q55,450 72,250 Q48,100 65,0 Z" fill="#130b06"/>
    <path d="M108,0 Q135,180 118,350 Q145,520 130,600 L162,600 Q148,400 165,220 Q138,80 155,0 Z" fill="#170d06"/>
    <path d="M255,0 Q285,150 268,320 Q298,480 278,600 L348,600 Q318,420 342,200 Q302,70 328,0 Z" fill="#130b06"/>
    <path d="M405,0 Q438,220 418,420 Q448,540 430,600 L472,600 Q455,350 478,140 Q442,45 468,0 Z" fill="#150c06"/>
    <path d="M535,0 Q568,170 545,380 Q578,510 558,600 L608,600 Q585,380 612,170 Q572,60 598,0 Z" fill="#170d06"/>
    <path d="M662,0 Q698,200 672,360 Q712,490 685,600 L752,600 Q718,410 748,195 Q702,55 735,0 Z" fill="#130b06"/>
    <path d="M745,0 Q782,190 758,400 Q795,530 772,600 L820,600 Q798,390 825,180 Q785,50 812,0 Z" fill="#150c06"/>
  </g>
  
  <!-- Foliage - 60 randomly placed blobs -->
  <g filter="url(#blur)" mask="url(#fadeMask)">
    <path d="M225,407 Q256,391 288,413 Q313,404 321,434 Q306,458 272,454 Q238,463 221,438 Q209,422 225,407 Z" fill="#091f09"/>
    <path d="M371,153 Q428,121 489,163 Q524,197 480,240 Q423,264 374,227 Q337,190 371,153 Z" fill="#0a210a"/>
    <path d="M214,156 Q250,138 286,164 Q314,150 321,189 Q337,179 331,220 Q304,246 259,236 Q222,249 205,214 Q189,193 214,156 Z" fill="#091f09"/>
    <path d="M576,506 Q626,479 683,516 Q712,547 673,584 Q621,605 578,572 Q547,539 576,506 Z" fill="#091f09"/>
    <path d="M556,15 Q595,-6 639,24 Q662,49 630,79 Q588,97 552,68 Q528,42 556,15 Z" fill="#0a210a"/>
    <path d="M580,-56 Q626,-78 674,-45 Q709,-63 719,-12 Q739,-25 732,28 Q696,61 639,48 Q590,66 568,20 Q548,-7 580,-56 Z" fill="#0b220b"/>
    <path d="M351,-12 Q389,-35 420,-5 Q409,31 377,42 Q341,36 335,7 Q329,-12 351,-12 Z" fill="#0b220b"/>
    <path d="M592,342 Q639,315 692,349 Q730,331 743,382 Q766,369 759,422 Q723,457 666,444 Q616,462 594,415 Q574,384 592,342 Z" fill="#091e09"/>
    <path d="M326,415 Q346,393 379,404 Q400,391 416,419 Q431,408 424,443 Q408,461 374,456 Q344,464 331,439 Q318,428 326,415 Z" fill="#0b220b"/>
    <path d="M193,-55 Q250,-89 320,-46 Q365,-70 384,-7 Q415,-25 408,40 Q360,83 289,66 Q229,90 200,36 Q174,-3 193,-55 Z" fill="#0a210a"/>
    <path d="M725,391 Q758,372 785,395 Q776,422 748,430 Q718,426 714,404 Q710,391 725,391 Z" fill="#091e09"/>
    <path d="M682,412 Q721,391 767,422 Q790,451 752,480 Q709,495 678,465 Q655,439 682,412 Z" fill="#091e09"/>
    <path d="M109,9 Q134,-2 166,20 Q185,34 168,59 Q146,75 114,61 Q93,44 109,9 Z" fill="#091f09"/>
    <path d="M784,219 Q829,193 872,230 Q860,273 823,286 Q779,280 771,247 Q764,225 784,219 Z" fill="#091f09"/>
    <path d="M765,563 Q813,535 866,572 Q895,602 857,638 Q806,659 763,624 Q731,593 765,563 Z" fill="#0a210a"/>
    <path d="M759,41 Q809,14 862,52 Q884,87 845,123 Q796,142 754,109 Q723,76 759,41 Z" fill="#0b220b"/>
    <path d="M-46,33 Q2,6 55,41 Q85,60 63,100 Q27,126 -17,109 Q-51,92 -46,33 Z" fill="#091e09"/>
    <path d="M519,569 Q567,542 612,581 Q600,627 561,640 Q515,633 506,599 Q499,576 519,569 Z" fill="#091f09"/>
    <path d="M441,282 Q474,256 518,275 Q549,251 559,296 Q580,284 575,329 Q544,359 497,348 Q455,362 437,322 Q418,301 441,282 Z" fill="#091f09"/>
    <path d="M680,453 Q730,426 787,463 Q816,494 777,531 Q726,552 682,519 Q651,486 680,453 Z" fill="#0b220b"/>
    <path d="M780,123 Q803,112 833,133 Q851,146 835,170 Q814,184 784,171 Q765,155 780,123 Z" fill="#091e09"/>
    <path d="M223,284 Q285,248 360,294 Q408,268 429,336 Q462,317 455,387 Q404,433 326,415 Q262,440 231,382 Q203,340 223,284 Z" fill="#0b220b"/>
    <path d="M556,383 Q587,374 622,402 Q638,423 614,443 Q579,456 550,431 Q527,411 556,383 Z" fill="#0a210a"/>
    <path d="M645,368 Q686,345 720,373 Q709,408 673,419 Q636,413 630,385 Q625,368 645,368 Z" fill="#0b220b"/>
    <path d="M64,298 Q123,265 191,308 Q236,285 254,348 Q282,331 274,396 Q229,439 157,422 Q97,445 70,389 Q44,351 64,298 Z" fill="#0b220b"/>
    <path d="M64,514 Q112,484 171,520 Q210,501 226,553 Q252,538 246,590 Q204,628 143,612 Q93,634 62,586 Q40,553 64,514 Z" fill="#0a210a"/>
    <path d="M292,420 Q341,393 394,429 Q424,459 385,495 Q336,516 294,484 Q262,452 292,420 Z" fill="#091f09"/>
    <path d="M321,430 Q370,402 416,442 Q403,489 363,504 Q316,496 307,461 Q299,437 321,430 Z" fill="#0b220b"/>
    <path d="M267,433 Q311,409 361,441 Q395,424 408,471 Q428,458 423,506 Q389,538 336,525 Q292,542 271,501 Q252,472 267,433 Z" fill="#091e09"/>
    <path d="M209,1 Q252,-20 297,11 Q330,-6 339,41 Q358,29 351,79 Q318,110 264,98 Q219,114 197,72 Q179,46 209,1 Z" fill="#0a210a"/>
    <path d="M7,546 Q50,521 99,552 Q124,577 95,610 Q56,630 17,605 Q-8,577 7,546 Z" fill="#091e09"/>
    <path d="M293,566 Q327,546 356,573 Q346,606 317,615 Q284,609 279,584 Q273,566 293,566 Z" fill="#0a210a"/>
    <path d="M583,528 Q616,509 652,532 Q673,553 646,577 Q611,591 581,567 Q560,544 583,528 Z" fill="#091e09"/>
    <path d="M12,152 Q53,130 97,160 Q122,187 89,218 Q45,236 8,205 Q-19,177 12,152 Z" fill="#0a210a"/>
    <path d="M581,244 Q624,222 668,253 Q702,236 711,284 Q730,272 723,322 Q690,353 636,341 Q590,357 569,315 Q551,289 581,244 Z" fill="#091f09"/>
    <path d="M550,490 Q597,463 636,500 Q623,545 583,557 Q538,550 530,515 Q523,490 550,490 Z" fill="#091e09"/>
    <path d="M699,480 Q747,454 803,492 Q830,528 785,564 Q731,581 693,546 Q666,513 699,480 Z" fill="#091f09"/>
    <path d="M230,331 Q279,303 326,340 Q314,387 274,406 Q228,401 218,364 Q211,338 230,331 Z" fill="#091e09"/>
    <path d="M215,372 Q267,342 326,380 Q359,401 334,445 Q295,474 246,455 Q208,436 215,372 Z" fill="#091e09"/>
    <path d="M544,149 Q594,121 651,157 Q691,137 705,192 Q730,178 723,235 Q684,273 622,259 Q569,278 546,228 Q524,194 544,149 Z" fill="#0a210a"/>
    <path d="M750,-14 Q799,-41 851,-5 Q880,24 843,60 Q794,81 753,49 Q721,18 750,-14 Z" fill="#091e09"/>
    <path d="M646,191 Q676,169 715,192 Q744,176 753,214 Q771,203 765,243 Q739,270 698,259 Q662,273 644,237 Q628,217 646,191 Z" fill="#091e09"/>
    <path d="M708,276 Q744,255 782,280 Q807,303 775,332 Q737,348 703,321 Q678,296 708,276 Z" fill="#091f09"/>
    <path d="M-21,199 Q21,176 67,207 Q93,232 60,263 Q18,281 -19,254 Q-46,227 -21,199 Z" fill="#091e09"/>
    <path d="M460,124 Q502,98 553,128 Q585,113 597,162 Q580,196 536,187 Q492,202 468,164 Q449,139 460,124 Z" fill="#091e09"/>
    <path d="M710,243 Q755,217 808,248 Q842,233 855,284 Q837,320 790,310 Q744,326 719,286 Q699,259 710,243 Z" fill="#091e09"/>
    <path d="M736,71 Q775,47 819,76 Q841,98 815,128 Q780,146 745,123 Q723,98 736,71 Z" fill="#0b220b"/>
    <path d="M316,-43 Q363,-67 412,-32 Q448,-51 459,1 Q480,-12 472,42 Q435,77 376,63 Q326,81 303,35 Q282,7 316,-43 Z" fill="#0a210a"/>
    <path d="M669,518 Q711,495 759,528 Q784,555 750,587 Q703,607 665,575 Q638,547 669,518 Z" fill="#091f09"/>
    <path d="M329,523 Q385,491 449,532 Q485,555 458,602 Q415,633 363,613 Q322,592 329,523 Z" fill="#091e09"/>
    <path d="M198,214 Q219,191 254,202 Q277,188 294,219 Q310,207 303,244 Q285,263 249,258 Q217,266 203,240 Q189,228 198,214 Z" fill="#091f09"/>
    <path d="M196,601 Q234,578 266,609 Q255,646 222,656 Q185,650 179,621 Q173,601 196,601 Z" fill="#091f09"/>
    <path d="M358,75 Q374,58 401,66 Q418,56 431,79 Q443,70 438,98 Q425,113 397,109 Q373,115 362,95 Q351,86 358,75 Z" fill="#0a210a"/>
    <path d="M193,507 Q233,484 278,512 Q304,538 270,567 Q227,584 191,554 Q165,527 193,507 Z" fill="#091e09"/>
    <path d="M41,360 Q79,338 111,365 Q101,396 67,407 Q32,402 27,375 Q23,360 41,360 Z" fill="#0a210a"/>
    <path d="M482,194 Q519,183 560,216 Q579,241 550,265 Q509,279 475,250 Q448,226 482,194 Z" fill="#0b220b"/>
    <path d="M-5,230 Q31,210 71,235 Q96,258 64,288 Q24,304 -10,277 Q-35,251 -5,230 Z" fill="#091e09"/>
    <path d="M349,86 Q383,64 422,87 Q445,74 455,113 Q439,139 403,133 Q366,145 347,114 Q334,97 349,86 Z" fill="#0a210a"/>
    <path d="M144,74 Q177,69 206,91 Q227,80 236,111 Q250,101 246,134 Q223,156 183,147 Q150,158 136,128 Q121,113 144,74 Z" fill="#091f09"/>
    <path d="M287,176 Q303,159 330,167 Q347,156 360,180 Q372,171 367,199 Q353,213 326,209 Q302,216 291,196 Q281,187 287,176 Z" fill="#0a210a"/>
  </g>
</svg>
