<svg xmlns="http://www.w3.org/2000/svg" viewBox="0 0 200 120">
  <!-- Seaweed left - main stems with branches -->
  <path d="M 20 120 Q 12 90 22 60 Q 14 40 24 15" fill="none" stroke="#3a6a4a" stroke-width="5" stroke-linecap="round"/>
  <path d="M 22 70 Q 10 55 5 40" fill="none" stroke="#3a6a4a" stroke-width="3" stroke-linecap="round"/>
  <path d="M 20 50 Q 8 45 12 30" fill="none" stroke="#3a6a4a" stroke-width="2" stroke-linecap="round"/>
  
  <path d="M 32 120 Q 42 85 32 55 Q 40 30 30 10" fill="none" stroke="#4a8a5a" stroke-width="4" stroke-linecap="round"/>
  <path d="M 35 75 Q 50 65 55 50" fill="none" stroke="#4a8a5a" stroke-width="2.5" stroke-linecap="round"/>
  <path d="M 33 45 Q 45 35 42 20" fill="none" stroke="#4a8a5a" stroke-width="2" stroke-linecap="round"/>

  <path d="M 12 120 Q 5 100 10 80 Q 3 65 8 50" fill="none" stroke="#5a9a6a" stroke-width="3" stroke-linecap="round"/>
  <path d="M 9 70 Q 0 60 2 45" fill="none" stroke="#5a9a6a" stroke-width="2" stroke-linecap="round"/>

  <!-- Seaweed right - main stems with branches -->
  <path d="M 180 120 Q 188 88 178 55 Q 186 35 176 12" fill="none" stroke="#3a6a4a" stroke-width="5" stroke-linecap="round"/>
  <path d="M 180 65 Q 192 50 195 35" fill="none" stroke="#3a6a4a" stroke-width="3" stroke-linecap="round"/>
  <path d="M 182 45 Q 195 40 192 25" fill="none" stroke="#3a6a4a" stroke-width="2" stroke-linecap="round"/>

  <path d="M 168 120 Q 158 90 168 60 Q 160 35 170 8" fill="none" stroke="#4a8a5a" stroke-width="4" stroke-linecap="round"/>
  <path d="M 166 80 Q 150 70 148 55" fill="none" stroke="#4a8a5a" stroke-width="2.5" stroke-linecap="round"/>
  <path d="M 168 50 Q 155 42 158 25" fill="none" stroke="#4a8a5a" stroke-width="2" stroke-linecap="round"/>

  <path d="M 188 120 Q 195 95 190 75 Q 198 60 193 45" fill="none" stroke="#5a9a6a" stroke-width="3" stroke-linecap="round"/>
  <path d="M 191 65 Q 200 55 198 42" fill="none" stroke="#5a9a6a" stroke-width="2" stroke-linecap="round"/>

  <!-- Shell base/hinge -->
  <ellipse cx="100" cy="118.5" rx="8" ry="5" fill="#d4a060"/>

  <!-- Main shell fan shape -->
  <path d="M 100 118.5 
           Q 55 108.5 45 73.5 
           Q 50 48.5 100 43.5 
           Q 150 48.5 155 73.5 
           Q 145 108.5 100 118.5 Z" 
        fill="#f5d8a8"/>
  
  <!-- Shell outer edge highlight -->
  <path d="M 100 118.5 
           Q 55 108.5 45 73.5 
           Q 50 48.5 100 43.5 
           Q 150 48.5 155 73.5 
           Q 145 108.5 100 118.5 Z" 
        fill="none" stroke="#e8c078" stroke-width="3"/>

  <!-- Soft radiating ridges -->
  <g stroke="#e8c488" stroke-width="2" fill="none" opacity="0.6">
    <path d="M 100 115.5 Q 100 78.5 100 47.5"/>
    <path d="M 100 115.5 Q 85 83.5 70 55.5"/>
    <path d="M 100 115.5 Q 115 83.5 130 55.5"/>
    <path d="M 100 115.5 Q 70 88.5 52 65.5"/>
    <path d="M 100 115.5 Q 130 88.5 148 65.5"/>
    <path d="M 100 115.5 Q 60 95.5 48 78.5"/>
    <path d="M 100 115.5 Q 140 95.5 152 78.5"/>
  </g>

  <!-- Inner glow/highlight -->
  <path d="M 75 93.5 Q 90 68.5 100 58.5 Q 110 68.5 125 93.5" 
        fill="none" stroke="#fff8e8" stroke-width="4" opacity="0.4" stroke-linecap="round"/>
</svg>
