<svg xmlns="http://www.w3.org/2000/svg" viewBox="0 0 200 120">
  <!-- Back wall remnants -->
  <rect x="25" y="30" width="18" height="45" fill="#4a5568" transform="rotate(-3 34 52)"/>
  <rect x="40" y="20" width="22" height="55" fill="#5a6578"/>
  <rect x="58" y="35" width="15" height="40" fill="#4a5568" transform="rotate(2 65 55)"/>
  
  <!-- Fallen stones -->
  <rect x="75" y="65" width="20" height="12" fill="#5a6578" transform="rotate(-8 85 71)"/>
  <rect x="90" y="70" width="15" height="10" fill="#4a5568" transform="rotate(5 97 75)"/>
  
  <!-- Right wall section -->
  <rect x="130" y="25" width="20" height="50" fill="#5a6578" transform="rotate(5 140 50)"/>
  <rect x="145" y="40" width="16" height="35" fill="#4a5568" transform="rotate(-2 153 57)"/>
  <rect x="158" y="45" width="14" height="28" fill="#5a6578"/>
  
  <!-- Scattered rubble -->
  <rect x="50" y="80" width="12" height="8" fill="#4a5568" transform="rotate(-15 56 84)"/>
  <rect x="110" y="78" width="14" height="9" fill="#5a6578" transform="rotate(12 117 82)"/>
  <rect x="140" y="82" width="10" height="7" fill="#4a5568" transform="rotate(-5 145 85)"/>
  
  <!-- Column base -->
  <rect x="95" y="50" width="16" height="25" fill="#5a6578"/>
  <rect x="93" y="48" width="20" height="5" fill="#4a5568"/>
</svg>
