<svg xmlns="http://www.w3.org/2000/svg" width="1536" height="1024">
	<!-- lower level -->
	<path fill="#393d3a" d="m1294 252 1 2-6 11-4 8-2 4-15 29-17 32 11-5 11-6 3-1 6-3 18-10 30-15 6-3 8-4 5-3q12-4 23-5h15l53-1-8 10-10 11-15 15-20 21-10 11-15 15-10 11-7 7 2 3 1 6h3l32 3q14 2 27 6l7 2 8 3 8 6 8 1 17 3q6 1 9 7c6 15 5 36 0 51q-2 5-8 7l-5 1-11 3h-5c-6 1-7 2-12 6l-10 3v9l3 1 3 1 4 1 6 4q3 4 9 3c9 0 21 1 28 7 9 16 6 40 2 56q-7 8-18 8l-4 1-1 1h-5l-11 4c-14 10-31 10-47 10h-12c-9 0-9 0-12-3h-44v5q0 6-4 10-11 6-25 7c-13 1-13 1-25 6q-11 4-23 3h-5c-12 0-12 0-17-2l-26 4-7 1v12h-49l-21 4c-21 7-44 6-66 6l2 3 1 5 8-1v8h3l59-1h36l25 1v1l44 1v-2l4 1h32l35-1 45-1v1l-6 1h25l8-1h16l18 1v1h-12l-3 1-11 1h-13l-6 1h-18l18 1v2l33 2h20l62 2v1l-46 1 52 8q-8 3-16 2h-76l-84 1-26 1h-134l-235 1H792l-89-1H549l-208-1h-9l-110-3q-61-1-122-6h-3c-31-3-31-3-41-6 7-6 23-4 32-4l4-1h20l96-2h80l1-3 16-1h8q-3-5-9-7-7-4-11-12l-5 1-9-6c-5-3-5-3-11-4l-1 2q-8 1-16-2l-1-6h-4l-25-5-10-2-6-1-6-1-7-3v-2l-5-2-6-4-3-3q-2-1-2-6h-3q-6-4-7-11-4-11-16-14l-12-3-6-2-13-3-29-8-9-3-6-1-4-2q-4 0-7-5-7-18-11-37l-1-4-1-4-1-3 1-9q5-5 12-8l4-2 4-2 5-1 14-6 4-2 4-1q36-15 69-31c76-36 157-64 241-71q18-1 32-10 17-10 36-10v-2h5l23-1q30-3 61-3h24c20 0 20 0 29 4q15 6 31 7l12 1 5 1 11 1h4q13 3 25 9l14 2h50l54 1h17l63 1h10c20 1 20 1 38-7l6-6q7-4 13-5l4-1a460 460 0 0 1 106 1q11-2 17-12l8-6 4-3 34-24 13-9 17-13 26-18 5-3 4-3c22-15 60-12 85-11"/>
	<path fill="#304044" d="m1294 252 1 2-6 11-4 8-2 4-15 29-17 32 11-5 11-6 3-1 6-3 18-10 30-15 6-3 8-4 5-3q12-4 23-5h15l53-1-8 10-10 11-15 15-20 21-10 11-15 15-10 11-7 7 2 3 1 6h3l32 3q14 2 27 6l7 2 8 3 8 6 8 1 17 3q6 1 9 7c6 15 5 36 0 51q-2 5-8 7l-5 1-11 3h-5c-6 1-7 2-12 6l-10 3v9l3 1 3 1 4 1 6 4q3 4 9 3c9 0 21 1 28 7 9 16 6 40 2 56q-7 8-18 8l-4 1-1 1h-5l-11 4c-14 10-31 10-47 10h-12c-9 0-9 0-12-3h-44v5q0 6-4 10-11 6-25 7c-13 1-13 1-25 6q-11 4-23 3h-5c-12 0-12 0-17-2l-26 4-7 1v12h-49l-21 4c-21 7-44 6-66 6l2 3 1 5 8-1v8h3l59-1h36l25 1v1l44 1v-2l4 1h32l35-1 45-1v1l-6 1h25l8-1h16l18 1v1h-12l-3 1-11 1h-13l-6 1h-18l18 1v2l33 2h20l62 2v1l-46 1 52 8q-8 3-16 2h-76l-84 1-26 1h-134l-235 1H792l-89-1H549l-208-1h-9l-110-3q-61-1-122-6h-3c-31-3-31-3-41-6 7-6 23-4 32-4l4-1h20l96-2h80l1-3 16-1h8q-3-5-9-7-7-4-11-12l-5 1-9-6c-5-3-5-3-11-4l-1 2q-8 1-16-2l-1-6h-4l-25-5-10-2-6-1-6-1-7-3v-2l-5-2-6-4-3-3q-2-1-2-6h-3q-6-4-7-11-4-11-16-14l-12-3-6-2-13-3-29-8-9-3-6-1-4-2q-4 0-7-5-7-18-11-37l-1-4-1-4-1-3 1-9q5-5 12-8l4-2 4-2 5-1 14-6 4-2 4-1q36-15 69-31c76-36 157-64 241-71q18-1 32-10 17-10 36-10v-2h5l23-1q30-3 61-3h24c20 0 20 0 29 4q15 6 31 7l12 1 5 1 11 1h4q13 3 25 9l14 2h50l54 1h17l63 1h10c20 1 20 1 38-7l6-6q7-4 13-5l4-1a460 460 0 0 1 106 1q11-2 17-12l8-6 4-3 34-24 13-9 17-13 26-18 5-3 4-3c22-15 60-12 85-11M372 392l-2 6h-3l-5 1h-4q-5 1-6 4l-4 8 15 1h11v-5l42-1-1 5-13 3h-9l-1 2h17l-4 12-2 12h-10q-4 0-7 2-4 6-3 11l-1 5v3h-9q-3-1-7 3v4h5l-2-1v-2l9-1-3 2-3 2v1h47l4 1 9-1q4-4 3-7h3v3l-3 3 5-1v-10h6l12-1v-1l-18 1v-9q1-3-3-7h-11c-4 0-4 0-8 4l-2 14-9 1 4-20 7-22 19-1c3-5 3-5 3-9l38 1 1 5h-4v54h-7l-1 9h-4q-4-1-7 2h10v2l-5-1h-15v-5l-2 1v5h-8l2-5v-5h-38l1 2h4l-2 3v5l-6-1 1-9h-39l-2 7-2 1-1-3-4-6-2-10c-2-8-2-8-6-14h-6l5 16-3-1-1-3-2-4-4-1 1-3 2-3 1-4v-6l-16 38-5 12-3 6c-6 17-6 17-13 22l-8 2-7 3q-5 4-11 2h-71l-5 1h-17l-11 1v-2H65v4h2l1 5 2 8h204l-4 21q0 17 2 33 16 7 33 10v-27l8 1v2h3v2h-4v2h10l-3-2h7l-1-2h-2v-2h7l-1-3h-24l-1-8 24 1-10-4-8-2h-8l1-5h28v13c6 3 6 3 13 4l1 2h3l1 13h2v5q-1 6 2 6h8l2-4v16l-1 11 4 1 4 1 4 1 5 2 11 2 3 1 8 1v2l5 1 2 6-2 1h91l160 1h303l44 1h46q35 0 70-7l16-2 13-4v-92h141v-25h-16v-43l22 1h25q-7-3-15-2l-4 1 2-10h22v-19q1-18-5-35h-9l-5-1q-4 0-6-2l-11-1h-3l-61-1h-134q-12 0-22 6l-13 1h-22q-18 2-34-7-15-7-31-6H854l-64-1h-74l-94-1H501q-64-3-128 5v-5z"/>
	<!-- upper level -->
	<path fill="#393d3a" d="M372 392h1v5h4q60-7 122-5h117l169 1h4l44 1h141q19 0 36 10 7 3 16 2h12l11 1h11q8 0 15-3 10-5 22-4h133l60 1 4 1c7 0 7 0 9 2l14 1h4l2 6 1 3q3 15 2 30v15h-22l-2 10h5l12-1 2 2h-29l-18-1v44h14v8H729l-442-1 9-4 4-2h3v-2l410-1c-6-17-6-17-15-19l-11 1h-5l-1-5-17-1 1-3h3v-2l-5 1-1-3 1 9 18 1v4l-12 1h-58l-4-1v-24h-6v18l-2 1-3-1h-15l-1-46v16l-1 1-1 8h-1l-1 43-16 1v-41h-2v41h-15l1-26v-4l-1-1v-10h-9v9h6v1l-5 1-1 4h-12l-6-1v16h-20q-2-8-2-17l18-1-4-1v-10l-16-1v10h-21v-9l-1-3 5-1v-3l-1-15v-5l1-31h4l-1-5-38-1-1 6-2 3-10 1h-9l-1 3-3 12-2 5-1 4-1 4-2 5-1 9 9-1v-5q1-7 4-12l9-1h8q5 7 3 16h2l16-1v1l-18 1 1 4q1 4-2 7l-4-1 3-2v-3h-3l-1 4-2 3h-60l6-5-9 1v2l2 1h-5l1-5q7-3 15-2v-3l1-5v-4q1-6 6-9h14l1-5 5-19h-17l1-2h9l5-1 8-2 1-5-42 1v5h-25l4-11 17-3z"/>
	<path fill="#4e9aa2" d="M1212 268h73q-9 21-21 41l-2 5-6 12h-2l-1 5q-3 10-13 14l-3 2q-11 5-21 12c-11 6-26 3-38 2l-38-3-11-1h-17l22 2h8l40 3 11 1 6 8 15 4h3l9 1 7 1 55 8c11 1 11 1 14 4l4 12h-215q-10 0-21 6l-13 1h-22q-18 2-34-7-15-7-31-6H854l-64-1-173-1H460a574 574 0 0 0-87 4l-1-4-2 6h-8l-4 1c-5 1-5 1-9 11l25 1v-5q5-2 11-1h31v5q-6 4-14 4h-9l16 1-6 24h-11q-4 0-7 5l-2 8-1 5v3l-9 1-6 2-1 4 3-1v-2q5-2 11-2l-7 5h59l3-6h3l1-3v6l-3 2h3l1-10 12-1h-12l-1-9-2-6h-12q-3-1-6 3l-2 7v4l-1 3-9 1q0-10 3-20l6-17 2-6 10-1h9l3-8h34l5 1v5h-4l1 55-8-1v10h-9l7 1v2l-20-1-1-4-1 5h-8l2-10h-38l5 2-2 8-6 1c-1-4-1-4 1-11h-39l-1 7-3 1-3-8h-9v-1h7l-3-10-1-3c-1-6-1-6-4-10h-5l2 5 2 10-4-1-2-6-4-2 3-12-25 58-4 9q-3 6-11 8l-5 2-8 3-1 2h-79l-5 1h-28v-2H65v4h2c2 4 2 4 3 13h204v6l-1-4h-92l-1 31-3 3 4 11q-9 2-18-1l-2 1-1-2-9-3-3-1-6-1-10-3-30-9-21-6-6-1-4-2q-4 0-7-5-7-18-11-38l-1-3-1-4-1-3 1-9q5-5 12-8l4-2 4-2 5-1 14-6 4-2 4-1q36-15 69-31c76-36 157-64 241-71q17-1 32-10 17-10 36-10v-2h5l23-1q30-3 61-3h24c20 0 20 0 29 4q15 6 31 7l11 1 5 1 12 1h4q13 3 25 9l14 1 6 1h43l55 1h17l73 1c20 1 20 1 38-7l6-6q6-5 13-5l4-1a473 473 0 0 1 101 0h5q10-2 17-11l8-6 4-3 16-11 16-12 7-3 9-6 2-2 36-25c9-6 9-6 16-6"/>
	<path fill="#666960" d="M372 392h1v5h3q64-8 128-5h190l4 1 102 1v49h-14l-1-40-1 21-12 1h-21q-2 6-1 11v6l-1 6v20h3v-40l27 1v39h-2v2h-28l1 41 36 1v-66h14v19l1 7v40l487 1v8H729l-442-1 9-4 4-2h3v-2l410-1c-6-17-6-17-15-19l-11 1h-5l-1-5-17-1 1-3h3v-2l-5 1-1-3 1 9 18 1v4l-12 1h-58l-4-1v-24h-6v18l-2 1-3-1h-15l-1-46v16l-1 1-1 8h-1l-1 43-16 1v-41h-2v41h-15l1-26v-4l-1-1v-10h-9v9h6v1l-5 1-1 4h-12l-6-1v16h-20q-2-8-2-17l18-1-4-1v-10l-16-1v10h-21v-9l-1-3 5-1v-3l-1-15v-5l1-31h4l-1-5-38-1-1 6-2 3-10 1h-9l-1 3-3 12-2 5-1 4-1 4-2 5-1 9 9-1v-5q1-7 4-12l9-1h8q5 7 3 16h2l16-1v1l-18 1 1 4q1 4-2 7l-4-1 3-2v-3h-3l-1 4-2 3h-60l6-5-9 1v2l2 1h-5l1-5q7-3 15-2v-3l1-5v-4q1-6 6-9h14l1-5 5-19h-17l1-2h9l5-1 8-2 1-5-42 1v5h-25l4-11 17-3z"/>
	<path fill="#4a5151" d="M426 370v1l-23 2-1 5-2 3q-4 6-4 13h-1v-6l-5 1-16 1-1 3h-1l-2 6h-8l-4 1c-5 1-5 1-9 11l25 1v-5q5-2 11-1h31v5q-6 4-14 4h-9l16 1-6 24h-10c-4 1-4 1-8 5l-2 8v5l-1 3-9 1-6 2-1 4 3-1v-2q5-2 11-2l-7 5h59l3-6h3l1-3v6l-3 2h3l1-10 12-1h-12l-1-9-2-6h-11q-4-1-7 3l-2 7v4l-1 3-9 1q0-10 3-20l6-17 2-6 10-1h9l3-8h34l5 1v5h-4l1 55-8-1v10h-9l7 1v2l-20-1-1-4-1 5h-8l2-10h-38l5 2-2 8-6 1c-1-4-1-4 1-11h-39l-1 7-3 1-3-8h-9v-1h7l-3-10-1-3c-1-6-1-6-4-10h-5l2 5 2 10-4-1-2-6-4-2 3-12-13 30-2 5-9 20-1 4-3 8q-4 6-12 8l-5 2-8 3-1 2h-79l-5 1h-28v-2H65v4h2c2 4 2 4 3 13h204v6l-1-4h-92l-1 31-3 3 4 11q-9 2-18-1l-2 1-1-2-9-3-3-1-6-1-10-3-30-9-12-3-9-3-6-1-4-2q-4 0-7-5-7-18-11-37l-1-4-1-4-1-3 1-9q5-5 12-8l4-2 4-2 5-1 14-6 4-2 4-1q36-15 69-31c78-36 171-74 259-72"/>
	<path fill="#ff000080" d="m175 602 23 5 4 1 16 4 20 5 4 1 36 7 35 7 6 2 10 1 27 5 36 7-1 4c-11 7-22 4-34 1h-12c-8 6-8 6-11 15l2 1h-3v3h3l212-1 21-1h397v1h-3c-8 1-8 1-14 5l-1 3-3 1-1 7h4l32 2v4l10 2v1H782l-79-1H549l-208-1h-9l-110-3q-61-1-122-6h-3c-31-3-31-3-41-6 7-6 23-4 32-4l4-1h20l96-2h80l1-3 21-1h3q-3-5-9-7-7-4-11-12l-5 1-9-6c-5-3-5-3-11-4l-1 2q-8 1-16-2l-1-6h-4l-25-5-10-2-6-1-6-1-7-3v-2l-5-2-6-4-3-2z"/>
	<path fill="#292c2b" d="M335 436q1 5-1 10l-2 3-1 3 5 2 2 6 3 1-2-6-1-4-2-6h6q5 5 6 12l1 5 1 7 3 3 2 6 2-1 2-7h39l-1 9 6 1v-5l2-3h-5v-2h38l-2 10h8v-5l2-1v5h11l9 1v-2h-10q6-3 11-2l1-9h5l-3 1v2l2 1-1 9h21v-10h26v1h-10v10h8q-6 3-13 2h-9l1 2 1 8v7l5-1 15 1v-16l18 1 1-5-1-1v-9h9v5l2 7v7l-1 4v8l-1 10h15v-41h2v41l16-1v-44h1v-3l2-6v-11l1-9h1v51l2-1h10l7 1 1-18h5l1-4v4l3 1h-3l1 23h73v-4h-18l-2-16c2 3 2 3 2 8h5v2l-3 1-1 2h18v6h22l10 19H303l4-12 2-5 2-5 4-9 2-5z"/>
	<path fill="#137f92" d="M1212 268h73q-9 21-21 41l-2 5-6 12h-2l-1 5q-3 10-13 14l-3 2q-11 5-21 12c-11 6-26 3-38 2l-38-3-11-1h-10q-51 0-103-4v-1h38l5 1h10c13 1 13 1 23-5l6-6 8-6 4-3 16-11 16-12 7-3 9-6 2-2 36-25c9-6 9-6 16-6"/>
	<path fill="#37a9bc" d="m327 454-10 26-4 9-2 4-4 8-1 4-1 3-6 6-5 1-10 5h-84l-5 1h-19l-19-1h-4l-12-1h-27l-1-22v-9q1-8 8-11l17-3h6l16-2 12-1 22-3 34-4 36-4 24-2 3-1 13-1 9-1 6-1z"/>
	<path fill="red" d="m396 649 4 1 25 1h33l12 3q7 4 16 3h37c9 0 9 0 12 3h18l6 1h56l4 1 20 1h6c11 0 17-1 27-6 12-8 24-7 38-7h212l8 1h16q6 0 11 3l7 1q7 1 11 6l4 2v1h-4l-8 2v3l-199 1H585l-43 1H333q0-9 6-15l3-3q7-5 15-2l6 1 9 2c9 0 16-5 24-5"/>
	<path fill="#7f9597" d="M786 446h14v19l1 7v40l487 1v8H729l-442-1 9-4 4-2h3v-2h483z"/>
	<path fill="#29a3b7" d="M1293 514h28v49l-26 8h-4l-14 4-30 7-26 6-31 7-4 1-18 4-1 26-6 1-3 1h-8v-91h143z"/>
	<path fill="#178699" d="m1349 300 27 2h43l1 3-4 4-5 5-3 3-14 15-7 7-10 11-15 15-13 15q-8 5-17 2l-20-4-6-1-80-16q-6-1-7-3c8-6 8-6 14-7v-2l5-2 17-9 8-4 43-22 15-8 3-1q12-7 25-3"/>
	<path fill="#313838" d="M372 392h1v5h3q68-8 136-5h100v1h-54v7h-15v4l1 38h14v2h-15v25h-9v-7h-26v7h-16v-2h-13l1-52h-2l-1 16v3l-1 10v23h-1l-1-18v-5l1-31h4l-1-5-38-1-1 6-2 3-10 1h-9l-1 3-3 12-2 5-1 4-1 4-2 5-1 9 9-1v-5q1-7 4-12l9-1h8q5 7 3 16h2l16-1v1l-18 1 1 4q1 4-2 7l-4-1 3-2v-3h-3l-1 4-2 3h-60l6-5-9 1v2l2 1h-5l1-5q7-3 15-2v-3l1-5v-4q1-6 6-9h14l6-24h-17l1-2h9l5-1 8-2 1-5-42 1v5h-25l4-11 17-3z"/>
	<path fill="#141c1e" d="m175 602 23 5 4 1 16 4 20 5 4 1 36 7 35 7 6 2 10 1 27 5 36 7-1 4c-11 7-22 4-34 1h-12c-8 6-8 6-11 15l2 1h-3v3h12l10 1 2 8h3l1 6c-11 7-27 6-39 6h-4l-51-1-45-1-122-6h-3c-31-3-31-3-41-6 7-6 23-4 32-4l4-1h20l96-2h80l1-3 21-1h3q-3-5-9-7-7-4-11-12l-5 1-9-6c-5-3-5-3-11-4l-1 2q-8 1-16-2l-1-6h-4l-25-5-10-2-6-1-6-1-7-3v-2l-5-2-6-4-3-2z"/>
	<path fill="#756858" d="M1064 541h76v3l1 3v4l2 8v14l4-1v20l-6 1v-7h-25l-1 2-8 1-1 4q-2 6-4 6h-11v15l-1 11h-2l-2 4-12 1h-41l-1-10h25v-2h-24v-10l-3-5v-3h-89v-2h86v-8l2 2 3-3h-14l-1 7h-12v-7h-7v-22h18q2 5 1 11v9h10v-31l15-1 11-1 7 1v-10q-1-5 4-4"/>
	<path fill="#525958" d="M1069 430h79c2 3 2 3 2 9h27v42h-22v-14h-2v3h-3l-1-3-2 2 2 1v2h4v9h-5c2 2 9 1 12 2h10l-1 2h-14v3l16 1v-6l3-1v29h-25l27 1v1H831v-1l21-1v-3h-19v-4h125v4H854v4l270-1-1-30-2 1-1 28h-23v-29h-3v29h-2l-1-29h-16v-3l12-2v-2l-6 2-11 1 5-5-6 1c-2-38-2-38 0-43"/>
	<path fill="#303232" d="M446 588h15l-1 5 4 1 1-6h12l-1 11h2l3-10 5-1 2 31v10l26 1v-26l2 1h11l4 1h14v-10h-3l-8-2 3-6 5 1h35l30 1h48l9 1 2-3 9 3 2 4h2v4h5v-11h4v41h23v-30l4 1v8h-1v8h2c1 11 1 11-1 14l3 1q-128 2-257 0l1-2h2l1-32-17-1v-2h9v-5h-11z"/>
	<path fill="#25808d" d="m126 464-1 4-2 9-4 3c-6 6-5 13-5 22v17h46l20 1h12l4-1h29l56 1-1 2h-79l-5 1h-28v-2H65v4h2c2 4 2 4 3 13h204v6l-1-4h-92l-1 31-3 3 4 11q-9 2-18-1l-2 1-1-2-9-3-3-1-6-1-10-3-30-9-12-3-9-3-6-1-4-2q-4 0-7-5c-10-29-10-29-10-43l-1-11q-1-3 3-6l7-3 5-2 5-2 10-4 15-6 5-2 5-2 11-5z"/>
	<path fill="#a2b8b9" d="M1149 620v9q-12 4-25 5l-16 3q-30 6-60 5h-17l-30-1H657l-167-1h-84l2-1-2-3v-3l-5-1 14-1h587l25 1h31q23 0 46-5l10-2 15-3 5-1h4z"/>
	<path fill="#77756b" d="M440 407h34l5 1v5h-4l1 55-8-1v10h-9l7 1v2l-20-1-1-4-1 5h-8l2-10h-38l5 2-2 8-6 1c-1-4-1-4 1-11h-39l-1 7-3 1-3-8h-9v-1h7l-3-10-1-3c-1-6-1-6-4-10h-5l2 5 2 10-4-1-2-6-4-2 5-16 3-5 6-12 16-2h5l43-1-6 24h-10c-4 1-4 1-8 5l-2 8v5l-1 3-9 1-6 2-1 4 3-1v-2q5-2 11-2l-7 5h59l3-6h3l1-3v6l-3 2h3l1-10 12-1h-12l-1-9-2-6h-11q-4-1-7 3l-2 7v4l-1 3-9 1q0-10 3-20l6-17 2-6 10-1h9z"/>
	<path fill="#2fa4b8" d="M612 372h97l169 1v21H672l-60-1z"/>
	<path fill="#269fb5" d="M879 374h117l33-1h51q4 1 6 4 4 8 4 15v8h-4l-10 4q-9 5-19 4h-22q-18 2-34-7-10-6-22-6h-95l-5-1z"/>
	<path fill="#4bb3c4" d="M427 369v2h4l19-1h23l137 1v21H464a649 649 0 0 0-91 5l1-7 8-1 4-1h9l6-12q2-3 6-4h5z"/>
	<path fill="#38a9bc" d="M1212 268h73l-7 14-2 4-1 3h-34l-12-1h-4q-10-1-18 7l-4 3-56 44-7 6q-7 4-13 2l-2-1h-5l-7-10 5 9h-12l-9-1c1-6 3-7 8-11l4-3 17-11 16-12 7-3 9-6 2-2 36-25c9-6 9-6 16-6"/>
	<path fill="#717b78" d="M462 552h26v23l-14 1 11 1h3q2 5 1 9h43l8 1h35l19 1h58v1l-15 1h-90l-10-1-2 5 10 2v10h-26l-4-1-1 25h-26q-2-4-1-10v-6l-1-6v-20l-4 1-3 8-1 2h-2l1-11-4 1-8-1v7l-6-1 2-6-4 1v5h-9v2h11l6 1v23l1 4-5 7h-12l-8-1-8-1h-8v-32q5-2 10-1l1 1h7l-1-11h3l1-4 2-1v2l9 1v-2l5 1zm-16 76-1 2 3-1z"/>
	<path fill="#926b4b" d="M856 558h35l47 1v27l-3 2v-15h-5l-1-5v-3l-6 1-1 3-1 4-3 1v8l15-2v13l-17 1 1-5-2-2 1-2-3 1-2 12-1 9h-20l-2 23h-13l-1-3h-2l-6-9-5-7-19-27-4-5-3-7h29l-5-8z"/>
	<path fill="#192224" d="M580 437h1v51l2-1h10l7 1 1-18h5l1-4v4l3 1h-3l1 23h73v-4h-18l-2-16c2 3 2 3 2 8h5v2l-3 1-1 2h18v6h22l10 19H520l-11-1v-1h7v-26l18 1 1-5-1-1v-9h9v5l2 7v7l-1 4v8l-1 10h15v-41h2v41l16-1v-44h1v-3l2-6v-11z"/>
	<path fill="#20292b" d="M911 589h1v41l14-1 13 1v-41h9l1 8h-8v3h89l2 6 27 1v1h-26v10h24v2h-25l1 10h30l1-2 1 1h14q6 0 10-4v4l2 1q-9 3-18 2H874l-1-2h15l1-24 21 1z"/>
	<path fill="#e36811" d="M65 521h103v2l3-1h13c7 1 7 1 14-1h82l-5 17H70l-2-9-1-4h-2z"/>
	<path fill="#b1b6aa" d="M831 513h457v8h-224l-6-1H831z"/>
	<path fill="#b2a38a" d="M1064 541h76v3l1 3v4l2 8v14l4-1v20l-6 1v-7h-25l-1 2-8 1-1 4q-2 6-4 6h-11v-8c-2 2-2 2-2 9h-25v-11l22-1v-33h2v-4h-3l-25-1v-8z"/>
	<path fill="#3698a8" d="M570 346h5c21 0 37 2 56 10l1 12q-1 3-7 2h-12l-92-1h-39l-1-12-1 1h-10q-14 0-26 7l-13 4c17-17 42-17 65-19l10-1z"/>
	<path fill="#6c807d" d="M478 415h2v42l-1 10h13v2h16v-7h26v7h9v-25h15v25h2v-11h16v52l-16 1v-41h-2v41h-15l1-26v-4l-1-1v-10h-9v9h6v1l-5 1-1 4h-12l-6-1v16h-20q-2-8-2-17l18-1-4-1v-10l-16-1v10h-21v-9l-1-3h6v-40q0-7 2-13"/>
	<path fill="red" d="M304 667h4c4 0 4 0 9 3v2h-21l-1 2v-2l-8 3-9 1-1 3q0 3-4 5l-1 5 17 1v1l-54-1h-11q-63-2-124-6h-3c-31-3-31-3-41-6 6-6 23-4 32-4l4-1h20l96-2h80l1-3z"/>
	<path fill="#3caec1" d="M1355 301h4l8 2-12 8-10 7c-22 15-22 15-33 19-4 1-4 1-8 5l-11 6-6 4-3 1-23 14-34-6c-6-1-6-1-8-3 8-6 8-6 14-7v-2l5-2 17-9 8-4 58-30 3-1c12-6 19-5 31-2"/>
	<path fill="#1b99ae" d="M1150 570h139l-1 2-9 2-6 2-6 1-9 2-11 3-26 6-31 7-4 1-18 4-1 26-6 1-3 1h-8z"/>
	<path fill="#556569" d="M1298 405h23q6 19 5 39v15h-22l-2 10h5l12-1 2 2h-29l-18-1v-59h13l1 19 6-2h5v-3h2l-1-6v-4z"/>
	<path fill="#669993" d="M426 370v1l-23 2-1 5-2 3q-4 6-4 13h-1v-6l-5 1-16 1-1 3h-1l-2 6-4 1-95 14-7 1-27 3h-7q4-4 11-6v-2c57-20 124-41 185-40"/>
	<path fill="#5b8f92" d="m661 429 2 1v15l1 7 5 1 5 1 3 8 2 6 4 1q3 0 2-6l1-7 1-9v-9l2 1v4l1 8-1 4h3l14-1v-9h1v25l-3 1 3 1v-34l9-1 1 1 10 1-1 4 1 12c0 6 0 6-2 10h-5v14q-1 6-5 10h-8q2 13 10 22h-4l-1-4q-3-7-8-13-10-3-22-1l-1-5-17-1 1-3h3v-2l-5 1-2-11-1-4v-3l-3-1h2v-26c0-5 0-5 2-9"/>
	<path fill="#67c1d1" d="M879 374h117l33-1h51q4 1 7 4l2 9H936l-57-1z"/>
	<path fill="#c1bca8" d="M303 512h266v8H287l9-4 4-2h3z"/>
	<path fill="#cbd7dc" d="m409 416-6 24h-10c-4 1-4 1-8 5l-2 8v5l-1 3-14 1-4-9-4-6h-7l-11-1h-5l2 5 2 10-4-1-2-6-4-2 5-16 3-5 6-12 16-2h5z"/>
	<path fill="#ce6c1c" d="M1385 505h22a118 118 0 0 1 7 52q0 17-5 33l-22 1v-4l1-3 1-9v-40h-9v-1h8q3-11-1-21z"/>
	<path fill="#2d3738" d="M749 424h26l7 1v2h-2v42h2v-32h1l1 31 1-23h15v1h-14v66h-37v-42h28v-2h2v-39h-11l-16-1v40h-3z"/>
	<path fill="#69a1a7" d="M1149 620v9q-12 4-25 5l-23 5-39 3h-50l-40-1H831v-1h125v-8h100q25 1 48-5l10-2 15-3 5-1h4z"/>
	<path fill="#37afc1" d="M1275 471h46v42h-26l-20-1z"/>
	<!-- objects -->
	<path fill="#c9d7dc" d="M423 416h49l-3 13-1 6-1 3-1 4v3l-2 9-9 1-4 1h-11l-1-9-2-6h-12q-3-1-6 3l-2 7v4l-1 3-9 1q0-10 3-20l6-17q0-7 7-6"/>
	<path fill="#a95721" d="M723 558q4 22-1 43h-1v-13h-10v41l-24 1v-18l1-25h-3v-20h30l2-7z"/>
	<path fill="#d36e1d" d="M1386 404h20c10 23 10 52 4 76l-4 9h-20l3-16q2-15 1-31v-5c1-11 1-11-2-21z"/>
	<path fill="#688488" d="M1179 439h27v16c0 9 0 9-2 12q5 3 11 2l-1-3v-23h19v26h37v1h-38v7h-17v-7h-8v11h-9l-1-1v-6h-8v7h-9l-1-5z"/>
	<path fill="#1b1f20" d="M853 464h100v3l4 1-11 1 13 1-1 9-50 1-1 3-56-1 1-2z"/>
	<path fill="#b5aa92" d="M1093 442h1v27h3v-26h24l-1 2v16l-1 49h-22v-29h-3v29h-2v-38l3-2h-7l4-1v-26z"/>
	<path fill="#b0a792" d="M561 544h60v6h-8l2 8h-8v4l-25 1v2h-20l-2 4h-6v-8l6-3v-6l-3-1 1-6z"/>
	<path fill="#c9722f" d="M1440 282q-3 7-8 10l-9 10-2 2h-2v-2h-34q-24 2-49-4v-3q20-11 42-12h6z"/>
	<path fill="#cc6214" d="M613 466h47l1 11 2 12 18 1v4l-12 1h-58l-4-1v-17c0-11 0-11 6-11"/>
	<path fill="#c9bfa7" d="M831 513h227v7H831z"/>
	<path fill="#28a7bb" d="M1293 514h28v49l-16 5-5 1-9 1-1-4v-29h3z"/>
	<path fill="#305361" d="M604 417v51l-2 2-1 9v9l-2 1-3-1h-15l-1-56h-1l-1-14h6c6 0 14-3 20-1"/>
	<path fill="#6d6b64" d="m447 581 1 2 8 1h8q2 5 1 11l-6-1 2-6-4 1v5h-9v2h11l6 1v23l1 4-5 7h-12l-8-1-8-1h-8v-32q5-2 10-1l1 1h7l-1-11h3l1-4zm-1 47-1 2 3-1z"/>
	<path fill="#6ac7d4" d="M612 372h143v11h-59l-84-1z"/>
	<path fill="#33383b" d="M1208 541h58v26h-58z"/>
	<path fill="#5f777a" d="M1027 556h29v32l-38 1-1 7h-12v-7h-7v-22h18q2 6 1 11v9h10z"/>
	<path fill="#91aeb4" d="M776 632h180v8H776z"/>
	<path fill="#aca99b" d="M833 482h74v19h-73q-3-9-1-19"/>
	<path fill="#cdc5af" d="M833 438h74v18q-4 2-9 1h-65z"/>
	<path fill="#65c2d1" d="m757 372 80 1h41v11H757z"/>
	<path fill="#cf7929" d="M1066 364h16l48 1h18l15 3v4l-59 1 7 3q2 10 1 19h-22v-8q-1-7-6-12l-17-1h-16l2-5 3-1v-2z"/>
	<path fill="#4e4f49" d="M920 558h19v72h-27v-44l4-1v2l12 1v1h-11l1 4h15l-1-12-3 1h-11v-8l3-2 2-7h6l1 7 5 1 1 14q2-3 1-7v-4l1-4v-13h-18z"/>
	<path fill="#484b46" d="M468 467h5l-3 1v2l2 1-1 9h21v-10h26v1h-10v10h8q-6 3-13 2h-9l1 2 1 8v7l5-1 15 1v10h-22l-1-4-1 4-22 1-1-9-1 8h-1l-1-32h-10q6-3 11-2z"/>
	<path fill="#bbcad0" d="M226 425h18l-13 12-3 2-11 8-3 3-3 2-6 5q-7 4-15 4h-3l-29 1-1-5 50-25 5-2 5-2c5-3 5-3 9-3"/>
	<path fill="#bbc2be" d="M621 632h155v8H621z"/>
	<path fill="#668085" d="M1004 490h59v21h-59z"/>
	<path fill="#1e5762" d="M565 345h24c20 0 20 0 29 4q15 7 31 7l12 1h5l7 3-23-1-3-1-15-2v11h-1v-11h-3l-11-4c-40-17-101-3-143 2h-8q-13 2-23 8l-4 2-7 4 16-6q10-5 22-5h10l2-4v16h82l1-3v3h86l18 1h36v1H427v-3q22-16 49-17v-2h5l23-1q30-3 61-3"/>
	<path fill="#5c6f73" d="M783 562h12v68h-12v-41l-2 1v9h-35v-2l20-1-4-2v-3h-2v2l-9 2-1-2-1 3h-3c-1-6-1-6 1-11l2 1 1-1 6-1v-2h14l1 4 12 1z"/>
	<path fill="#5f7072" d="M303 555h28l1 53h-6v2l-10-2 7-1-9-3 1 3-8-3 3-1-5-1v-27h8l3 3v2h-4v2l7-1-1-2h7l-2-1v-2h7l-1-2-24-1-1-8h20l-22-5z"/>
	<path fill="#187f90" d="M548 354h5l11 1v14h-82v-13z"/>
	<path fill="#aba491" d="M882 558h23l33 1v27l-3 2v-15h-5l-1-5v-3l-6 1-1 3-1 4-3 1v8l15-2v13l-17 1 1-5-2-2 1-2-4 1v-14h-23l-1 2h12l-1 2h-10v12h-7z"/>
	<path fill="#a9bebc" d="M914 435h43v23h-49c0-23 0-23 6-23"/>
	<path fill="#958d7a" d="M835 572h26l5 1h15v14h-7v-5h-2v35q1 5-2 6c-6-8-6-8-6-10l-5-5-14-20-8-12z"/>
	<path fill="#6f3f1c" d="M720 465h7v1h-6v4h19v31l-1 10h9v1h-34v-3l-3-5q-4-7-4-15h4l4-1 4-10-2-1h2v-4z"/>
	<path fill="#5bbac8" d="m1015 351 1 2h6l36 1 19 1 23 2 41 2 7 1 18 1v6l-27-1h-23l-4-1-26-1v-6h-2v5h-52l-4-1h-9l-7-1v-8h3z"/>
	<path fill="#ef8326" d="M1305 406h16q6 18 5 38v15h-23l-1-38 6-1q0-7-3-14"/>
	<path fill="#cbc2ab" d="M621 513h155v7H621z"/>
	<path fill="#7d999d" d="M908 480h49v22h-42l-7-1z"/>
	<path fill="#437989" d="M786 446h14v19l1 7v40h29v1h-54v-1h10z"/>
	<path fill="#7e7f81" d="M1323 406h31q8 13 7 28l-4 1c-28 0-28 0-30-2v-5q1-7-2-12zm37 4 7 1v3h-3v2h4l1 6-1 1h-5q-5-5-4-12z"/>
	<path fill="#222626" d="M446 588h15l-1 5 4 1 1-6h12l-1 11h2l3-10 5-1 2 32v11h-27l1-2h2l1-32-17-1v-2h9v-5h-11z"/>
	<path fill="#308391" d="m632 356 41 3q16 0 30 8 16 5 33 3h24v1l-98 1h-50v20h-2v-21l20-1 2-8z"/>
	<path fill="#8a8d88" d="M513 590v36q-7 2-15 1l-11-1v-35q13-2 26-1"/>
	<path fill="#838f86" d="M478 415h2v42l-1 10h13v2h16v-7h26l-1 9v9l-25 1v-10l-16-1v10h-21v-9l-1-3h6v-40q0-7 2-13"/>
	<path fill="#d16f27" d="M1255 254h37l-6 13h-79v-3c13-10 31-10 48-10"/>
	<path fill="#151d1e" d="m331 568 14 5 4 1v13h2v-6h1l1 16h8l1-7q3 9 2 17v12q-6 1-12-2c3-1 3-1 11 1l-1-17-11-1v16l-16-4-9-2v-2h5z"/>
	<path fill="#c3d1d6" d="M271 430v22q-27 5-55 6l17-14 8-7c10-9 17-9 30-7"/>
</svg>
