<svg xmlns="http://www.w3.org/2000/svg" viewBox="96 32 384 384">
  <path
    fill="currentColor"
    d="
      M 96 224 a 192 192 0 1 1 384 0 192 192 0 1 1 -384 0 z
      m 176 -92 l 0 4 c -28.8 .3 -52 23.7 -52 52.5 0 25.7 18.5 47.6 43.9 51.8 l 41.7 7 c 6 1 10.4 6.2 10.4 12.3 0 6.9 -5.6 12.5 -12.5 12.5 L 248 272 c -11 0 -20 9 -20 20 s 9 20 20 20 l 24 0 0 4 c 0 11 9 20 20 20 s 20 -9 20 -20 l 0 -4.7 c 25 -4.1 44 -25.7 44 -51.8 0 -25.7 -18.5 -47.6 -43.9 -51.8 l -41.7 -7 c -6 -1 -10.4 -6.2 -10.4 -12.3 0 -6.9 5.6 -12.5 12.5 -12.5 l 47.5 0 c 11 0 20 -9 20 -20 s -9 -20 -20 -20 l -8 0 0 -4 c 0 -11 -9 -20 -20 -20 s -20 9 -20 20 z
    "
  />
</svg>
