<svg xmlns="http://www.w3.org/2000/svg" viewBox="0 0 32 32">
  <!-- Platform -->
  <rect x="4" y="24" width="24" height="6" rx="1" fill="#8b4513" stroke="#5d2e0a" stroke-width="1"/>
  <!-- Coin -->
  <circle cx="16" cy="14" r="10" fill="#ffd700" stroke="#b8860b" stroke-width="1.5"/>
  <!-- Coin inner detail (S symbol) - all transforms applied -->
  <path fill="#b8860b" d="M 16.832 9.216 l 0 0.208 c 1.4976 0.0156 2.704 1.2324 2.704 2.73 0 1.3364 -0.962 2.4752 -2.2828 2.6936 l -2.1684 0.364 c -0.312 0.052 -0.5408 0.3224 -0.5408 0.6396 0 0.3588 0.2912 0.65 0.65 0.65 L 18.08 16.496 c 0.572 0 1.04 0.468 1.04 1.04 s -0.468 1.04 -1.04 1.04 l -1.248 0 0 0.208 c 0 0.572 -0.468 1.04 -1.04 1.04 s -1.04 -0.468 -1.04 -1.04 l 0 -0.2444 c -1.3 -0.2132 -2.288 -1.3364 -2.288 -2.6936 0 -1.3364 0.962 -2.4752 2.2828 -2.6936 l 2.1684 -0.364 c 0.312 -0.052 0.5408 -0.3224 0.5408 -0.6396 0 -0.3588 -0.2912 -0.65 -0.65 -0.65 l -2.47 0 c -0.572 0 -1.04 -0.468 -1.04 -1.04 s 0.468 -1.04 1.04 -1.04 l 0.416 0 0 -0.208 c 0 -0.572 0.468 -1.04 1.04 -1.04 s 1.04 0.468 1.04 1.04 z"/>
</svg>
