<svg xmlns="http://www.w3.org/2000/svg" viewBox="0 0 32 32">
  <!-- Platform -->
  <rect x="4" y="24" width="24" height="6" rx="1" fill="#8b4513" stroke="#5d2e0a" stroke-width="1"/>
  <!-- Coin -->
  <circle cx="16" cy="14" r="10" fill="#ffd700" stroke="#b8860b" stroke-width="1.5"/>
  <!-- Coin inner detail (S symbol from icon-coin-mirror, scaled and mirrored) -->
  <g transform="translate(16, 14) scale(-0.052, 0.052) translate(-288, -224)" fill="#b8860b">
    <path d="M 272 132 l 0 4 c -28.8 .3 -52 23.7 -52 52.5 0 25.7 18.5 47.6 43.9 51.8 l 41.7 7 c 6 1 10.4 6.2 10.4 12.3 0 6.9 -5.6 12.5 -12.5 12.5 L 248 272 c -11 0 -20 9 -20 20 s 9 20 20 20 l 24 0 0 4 c 0 11 9 20 20 20 s 20 -9 20 -20 l 0 -4.7 c 25 -4.1 44 -25.7 44 -51.8 0 -25.7 -18.5 -47.6 -43.9 -51.8 l -41.7 -7 c -6 -1 -10.4 -6.2 -10.4 -12.3 0 -6.9 5.6 -12.5 12.5 -12.5 l 47.5 0 c 11 0 20 -9 20 -20 s -9 -20 -20 -20 l -8 0 0 -4 c 0 -11 -9 -20 -20 -20 s -20 9 -20 20 z"/>
  </g>
</svg>
