<svg xmlns="http://www.w3.org/2000/svg" viewBox="0 0 448 545">
  <path d="
     M 384 144 C 384 64.5 312.4 0 224 0 S 64 64.5 64 144 c 0 47.1
     25.1 88.9 64 115.2 l 0 28.8 c 0 17.7 14.3 32 32 32 l 128 0 c
     17.7 0 32 -14.3 32 -32 l 0 -28.8 c 38.9 -26.3 64 -68.1 64
     -115.2 z
     M 160 128 a 32 32 0 1 1 0 64 32 32 0 1 1 0 -64 z
     m 96 32 a 32 32 0 1 1 64 0 32 32 0 1 1 -64 0 z
     M 445.5 339.7 c -6.8 -16.3 -25.5 -24 -41.8 -17.2 L 224 397.3
     44.3 322.5 c -16.3 -6.8 -35 .9 -41.8 17.2 s .9 35 17.2 41.8
     L 140.8 432 19.7 482.5 C 3.4 489.3 -4.3 508 2.5 524.3 s 25.5
     24 41.8 17.2 L 224 466.7 403.7 541.5 c 16.3 6.8 35 -.9 41.8
     -17.2 s -.9 -35 -17.2 -41.8 L 307.2 432 428.3 381.5 c 16.3
     -6.8 24 -25.5 17.2 -41.8 z
    "
  />
</svg>
