<svg xmlns="http://www.w3.org/2000/svg" width="1024" height="1536"><path fill="#ccd3e4" d="m536 311 4 1 13 1v-1h6v2l11 1 1 2 10 1 6 1 11 1 2 1v3l4-4 4 3-5 2h5q6 1 7 3l10 5q45 19 81 52l2 2q10 10 18 21l3 4q23 33 36 70 3 10 8 18c15 31 11 74-4 104l-6 15q-15 46-51 76h-2v2q-18 15-40 23l-6 2-15 5 11 5q26 9 50 23 16 8 34 2h4l28-7 4-1 26-8q9-5 20-3l3-1q22-4 36 14 3 5 3 12l2 1c11 3 17 14 19 24v7q0 10 3 20 4 22-11 37-11 9-23 5l-3-1q-5-1-9 3c-12 8-26 9-39 12l-4 1q-67 12-129-13v3c-6 65-23 121-80 158q-4 2-4 5l9 17 6 12 1 4 3 7 9 1h5c5 0 5 0 9-2v4l8 1q18 6 31 19v2h2q11 13 11 29l2 1h-2v4c-5 33-46 59-72 75l-5 3c-19 11-42 21-64 21h-5q-16-3-24-19l-2-2-19-30h-3l-1-3h2l-3-6-2-3-1-2-2 1-2-1 1-5-3-6-3-9-2-1-1-3-5-8-2-3-5-4-2-4-4-5q-9 0-17 5l-12 3v15q0 26-19 41-28 13-55-1l-3-1q-9-4-16-11l-3-2c-24-23-40-63-33-96 4-17 13-26 27-35l5-4 3-2 2-2h3l6-4 26-17 5-3h2l-5-10q-12-18-17-39l-1-3q-5-26-4-52v-9q1-3-2-4l2-1 1-10 4-22v-4q-16 3-27 14l-7 6-11 9-27 22c-5 3-5 3-4 8l2 10q4 15-5 28-8 6-17 4-10-6-12-16l-1-4-1-3-3 2-6 1 1 3q5 14-4 25-10 7-22 2l-10-8-5-2c-19-9-28-32-30-52v-15c1-31 17-59 38-81l3-3 23-20 3-2 22-14 4-2c38-22 91-48 137-39q6 2 11-3l-4-2a223 223 0 0 1-50-28q-20-16-34-38l-2 1v-2q-5-19-21-26c-17-9-25-34-29-51l-2-6v-21q-2-36 22-63l1 1 5-15q6-21 18-40l-1-4 2-1 1 2 3-5c24-37 24-37 32-37v-2q33-31 76-47l8-3-1-4 4 1 1-2h5l19-2 3-1 8-2v-3h4l31-1zm-63 2-1 2 4-1zm4 0v1h6v-1zm-37 8 4 1Zm-85 519 1 2Z"/><path fill="#dde3f0" d="m536 311 4 1 13 1v-1h6v2l11 1 1 2 10 1 6 1 11 1 2 1v3l4-4 4 3-5 2h5q6 1 7 3l10 5q45 19 81 52l2 2q10 10 18 21l3 4q23 33 36 70 3 10 8 18c15 31 11 74-4 104l-6 15q-15 46-51 76h-2v2c-28 22-28 22-42 23l-12 3c-14 5-14 5-21 5l-3 2q-30 8-62 6h-20l-14-2h-10l-17-1v-1l-14-1-5-1-11-1-3-1v-2h-5l-10-1-11-2-11-3v-2l-5 1-11-3-3-1-37-14q-24-10-43-30l-2-2q-12-11-20-25l-2 1v-2q-5-19-21-26c-17-9-25-34-29-51l-2-6v-21q-2-36 22-63l1 1 5-15q6-21 18-40l-1-4 2-1 1 2 3-5c24-37 24-37 32-37v-2q33-31 76-47l8-3-1-4 4 1 1-2h5l19-2 3-1 8-2v-3h4l31-1zm-63 2-1 2 4-1zm4 0v1h6v-1zm-37 8 4 1Z"/><path fill="#091629" d="m648 402 6 1c24 2 47 7 65 23l2 2c32 30 43 80 42 122v5q1 19-3 37l-1 3c-7 37-25 70-63 83-60 18-171 23-222-22l-2-2c-42-39-39-123-28-175q12-53 64-68c44-13 94-14 140-9"/><path fill="#dfe4ef" d="m403 717-1 1 2 1q23 10 25 35 2 29-18 50l-2 3c-14 14-41 34-62 34v2l-4 2q-13 7-23 17l-6 5-12 10c-14 12-14 12-21 16-5 5-2 11-1 18q4 16-5 28-7 6-17 4-10-6-12-16l-1-4-1-3-3 2-6 1 1 3q5 14-4 25-10 7-22 2l-10-8-5-2c-19-9-28-32-30-52v-15c1-31 17-59 38-81l3-3 23-20 3-2 22-14 4-2c39-23 99-52 145-37"/><path fill="#d8ddeb" d="M865 751q3 5 3 12l3 1c10 3 16 14 18 24v7q0 10 3 20 4 22-11 37-11 8-23 5l-3-1q-5-1-9 3c-11 8-26 9-39 12l-4 1q-41 8-82 1l1-2-2-2-7-10-1-3c-13-28-5-64 12-87l2-3 2-3q7-5 16-6l8-1 4-1 20-5 4-1c14-3 14-3 26-8q9-5 20-3l3-1q23-4 36 14"/><path fill="#e2e7f3" d="m548 976 3 2v2l4 2a124 124 0 0 1 23 26q7 8 11 18l-1 2-1-3c-25-8-50 5-69 20-21 19-44 46-46 75v7c-5-1-5-2-8-6l-3-2v-5l-2-1-2-4-5-3c-16-18-32-43-39-67l-1-3 1-2h-2c-7-19 0-37 11-52h2l2-4c35-31 85-29 122-2"/><path fill="#8b59c5" d="M629 791h10q13 1 18 12 3 10 2 22v38c0 35 0 35-12 44-21 9-46 8-69 8h-20q-16 2-26-9-2-6-2-14v-80q0-11 10-17l26-3h29l23-1z"/><path fill="#cdd5e8" d="M188 814v5c-2 27 15 51 36 66 14 9 33 18 49 12l3-2h3l-1 5 2 8c2 11 3 22-5 31q-7 6-17 4-10-6-12-16l-1-4-1-3-3 2-6 1 1 3q5 14-4 25-10 7-22 2l-10-8-5-2c-19-9-28-32-30-52v-15q2-35 23-62"/><path fill="#e5e9f4" d="M865 751q3 5 3 12l3 1c10 3 16 14 18 24v7q0 10 3 20 5 21-10 35-12 9-26 5-8-7-8-18v-4h3q16 1 28-11l-2 2c-8 6-18 11-28 7q-11-9-10-22l6-3q20-7 24-28v-11 6q-3 21-20 31-10 3-18-3l-4-7-1-2q-1-10 3-21l1-6-1 3q-3 18-19 26-13 3-22-8-7-20 6-36 13-15 32-12l3-1q23-4 36 14"/><path fill="#9beffc" d="M591 501q16 20 14 44v3q2 33-25 51-16 5-30-6c-16-16-19-39-16-61q5-26 27-39 17-4 30 8"/><path fill="#c9cfe0" d="m800 746-4 2-2 4-2 3q-10 15-3 31 8 9 21 7c13-5 16-16 19-29l1-3h1q1 7-2 14-6 14 2 25 7 6 15 4 18-9 21-28l1-4v-7q5 6 2 13-5 22-27 29-5 1-3 7 1 10 9 16 15 4 27-7l3-3c0 6-7 9-12 12q-9 4-19 1c1 9 1 9 5 18v2l4 1 3 1q12 2 21-6l2 1c-9 7-14 9-25 7l-3-1q-5-1-9 3c-22 14-57 16-82 16v-1l10-1q22 0 42-7l-5-2q-10-6-17-13l-4-4a81 81 0 0 1-10-79q4-10 13-18l1-1-4-2c7-2 7-2 10-1"/><path fill="#9ceffc" d="M716 502c17 20 16 50 9 74q-5 14-17 22-14 1-22-11a85 85 0 0 1 0-76c7-11 18-18 30-9"/><path fill="#7453b0" d="M308 500q21 20 18 49v4c0 14-2 30-14 39q-11 4-20-5a77 77 0 0 1-12-71c5-11 14-23 28-16"/><path fill="#adb6ce" d="M188 814v5c-2 27 15 51 36 66 14 9 33 18 49 12l3-2h3l-1 5 2 8c2 11 3 22-5 31q-7 6-17 4-10-6-12-16l-1-4-1-3-3 2h-6l3-2c15-7 15-7 26-18h-5c-25 0-51-20-64-41l-8-16-2-4q-4-14 3-27"/><path fill="#b3b9d0" d="m601 1015-8 5-3 5 3 6c3 6 3 6 2 8l-1-2c-9-9-22-8-33-6-39 11-71 50-83 87l-3 17-5-8h2v-6c0-26 19-49 36-67l3-3c17-18 41-31 67-29l9 3-2-5-1-4q4 3 3 5l3-2 3-2 3-2z"/><path fill="#d0d8e9" d="M886 781q5 8 3 17 0 8 3 17 5 21-10 35-12 9-26 5-8-7-8-18v-4h3q16 2 28-11 8-14 7-29z"/><path fill="#bec6db" d="m181 908 3 3q15 13 35 13h5l8-1h3q5 13 0 25-9 9-21 6-8-2-14-9l-5-2 3-1q1-6-3-6l-2-13q-1-7-9-10-4-3-3-5"/><path fill="#98a0bb" d="m800 746-4 2-2 4-2 3q-10 15-3 31 8 9 21 7c13-5 16-16 19-29l1-3h1l-2 16-1 5q-1 5-6 5l-3 3q-8 8-19 6c-10-4-13-8-17-18a85 85 0 0 0 4 48q8 21 27 33l3 2 15 3c-17 11-49 11-68 11v-1l10-1q22 0 42-7l-5-2q-10-6-17-13l-4-4a81 81 0 0 1-10-79q4-10 13-18l1-1-4-2c7-2 7-2 10-1"/><path fill="#8b98b8" d="m375 990 6 7-3 9c-8 26 2 55 19 75q18 18 42 23-17 7-32-5l-14-12-2-2a81 81 0 0 1-22-59v-3q-1-13 5-24l-3-1 5-2z"/><path fill="#a5adc6" d="M279 746v4c-3 33 19 70 45 89q9 5 20 4l-4 3-5 4q-4 4-7 3l2-3-2-1c-30-15-55-53-57-86q0-7 3-14h3z"/><path fill="#a6aec6" d="m732 762-3 2q-13 13-18 32l-1 3-2 25v4q-1 25 15 44l-15-3 4-1-2-2c-14-19-13-50-6-72l1-4c4-10 14-32 27-28"/><path fill="#4a2c80" d="M635 803h5c5 0 5 0 9 4l1 11v55q2 14-7 24-18 5-37 4v-1l7-1h4l9-1 4-1h4q9-1 12-9v-6l1-4v-47c1-13 1-13-3-25l-11-1-29 1-4 1h-33l-4 1h-8l-9 1-1 12v40l-1 17v15q0 6 6 7l6 1h6v1h-10q-7 0-10-6v-79q0-7 6-11l14-2h28l21-1z"/><path fill="#382962" d="M626 791h13q6 0 11 3h-22l-43 1h-27c-14 1-14 1-24 9q-2 5-1 11v83q0 8 7 11 11 4 22 3h21c34 1 34 1 65-9l2 1c-15 15-52 11-72 11h-20q-16 2-26-9-2-6-2-14v-80q0-11 10-17l26-3h29l23-1z"/><path fill="#e4e4f2" d="m368 1179 6 1-6 2z"/><path fill="#e1e7f2" d="m308 1131 2 3h-3z"/><path fill="#fdfefe" d="M299 1117h2v2l2 1h-3z"/><path fill="#b4b2df" d="m703 870 4 1-3 1z"/><path fill="#e7edf9" d="m500 1185 2 1-1 3z"/><path fill="#b2b0e3" d="m458 1115 2 1-1 2-2-2z"/><path fill="#f3fbfc" d="M611 1064h5v1h-5z"/><path fill="#f5fdfe" d="m606 1055 2 1-1 3z"/><path fill="#d2d7eb" d="m517 1210 2 3h-2z"/><path fill="#cfced8" d="m376 1181 4 1Z"/><path fill="#c8cfe0" d="m352 1175 4 1Z"/><path fill="#c4c7e1" d="m433 1117 4 1Z"/><path fill="#d4e7e8" d="m685 1112 1 4Z"/><path fill="#f8fbfb" d="m639 1066 2 1-1 2z"/><path fill="#f8fbfc" d="m598 1038 2 3h-2z"/><path fill="#c5f8f3" d="m605 1014 2 1h-3z"/><path fill="#e5fcfe" d="m355 957 2 1-1 2z"/><path fill="#dcdeeb" d="M395 709h3l-1 2z"/><path fill="#dcf8f8" d="m308 629 2 3h-2z"/><path fill="#fdfffe" d="m781 526 2 2-2 1z"/><path fill="#f4f9fb" d="m456 315 3 1-3 1z"/><path fill="#fafbfc" d="m467 313 2 2-3-1z"/><path fill="#b9bdd2" d="m336 1165 2 1-2 1z"/><path fill="#dadfef" d="m312 1138 2 2h-2z"/><path fill="#d1d3e2" d="m297 1102 1 2-2-1z"/><path d="m924 1090 3 1Z"/><path fill="#cde0df" d="M596 1019h2l-1 2z"/><path fill="#bdc1d4" d="m368 984 2 2h-2z"/><path fill="#fafefe" d="m191 942 1 2-2-1z"/><path fill="#96f1f7" d="m741 876 3 1Z"/><path fill="#fafdfd" d="m760 752 3 1Z"/><path fill="#fefefc" d="m776 748 2 1-2 1z"/><path fill="#c8d7f0" d="m352 715 3 1Z"/><path fill="#e6e5f1" d="m358 714 3 1Z"/><path fill="#e3e2f3" d="m354 685 1 2-2-1z"/><path fill="#fcfefc" d="m272 590 2 2h-2z"/><path fill="#e5e7ea" d="m336 383 2 1-2 1z"/><path fill="#fdfcff" d="M692 371h2l-1 2z"/><path fill="#e7e9ec" d="m399 336 3 1Z"/><path fill="#edeef6" d="m608 323 1 2-2-1z"/><path fill="#fdfdfd" d="m428 321 2 2h-2z"/><path fill="#e5fcfa" d="m574 315 3 1Z"/><path fill="#f7f7fb" d="m463 314 2 1-2 1z"/><path fill="#fbfbfd" d="m562 313 3 1Z"/><path fill="#c0bfe7" d="m581 1215 2 1Z"/><path fill="#9d96b2" d="m386 1181 2 1Z"/><path fill="#c6c2df" d="m320 1151 2 1Z"/><path d="m942 1119 2 1Z"/><path fill="#404040" d="m874 1117 2 1Z"/><path fill="#c1c0df" d="m452 1110 2 1Z"/><path d="m1004 1090 2 1Zm-48 0 2 1Z"/><path fill="#fafbfc" d="m622 1064 2 1Z"/><path fill="#fff" d="m619 1064 2 1Z"/><path fill="#f8fcfd" d="m601 1045 2 1Z"/><path fill="#dcdfe0" d="m350 1008 2 1Z"/><path fill="#d2cff8" d="m373 994 2 1Z"/><path fill="#c5c0da" d="m368 989 2 1Z"/><path fill="#fffefc" d="m759 877 2 1Z"/><path fill="#97a8c5" d="m738 876 2 1Z"/><path fill="#9b98c5" d="m821 870 2 1Z"/><path fill="#cbd3d2" d="m679 862 2 1Z"/><path fill="#fcffff" d="m340 846 2 1Zm533-83 2 1Z"/><path fill="#f7fbff" d="m783 747 2 1Z"/><path fill="#e9f9f8" d="m786 746 2 1Z"/><path fill="#f8fefe" d="m790 745 2 1Z"/><path fill="#fbfdff" d="m273 744 2 1Z"/><path fill="#fcffff" d="m653 728 2 1Z"/><path fill="#fefeff" d="m366 713 2 1Z"/><path fill="#fcffff" d="m381 702 2 1Z"/><path fill="#dddede" d="m362 691 2 1Z"/><path fill="#c4f9f9" d="m321 651 2 1Z"/><path fill="#fcfdfc" d="m780 518 2 1Z"/><path fill="#dbfdfc" d="m323 398 2 1Z"/><path fill="#f9fafb" d="m336 381 2 1Z"/><path fill="#fafaff" d="m697 376 2 1Z"/><path fill="#fffdff" d="m687 368 2 1Z"/><path fill="#f9fcfe" d="m385 344 2 1Z"/><path fill="#fdfdff" d="m620 329 2 1Z"/><path fill="#f9fbfe" d="m428 324 2 1Z"/><path fill="#f9ffff" d="m451 317 2 1Z"/></svg>